<?xml version="1.0" encoding="UTF-8"?>
<svg id="Layer_1" data-name="Layer 1" xmlns="http://www.w3.org/2000/svg" xmlns:xlink="http://www.w3.org/1999/xlink" viewBox="0 0 443 336.5">
  <defs>
    <style>
      .cls-1 {
        fill: url(#linear-gradient-2);
      }

      .cls-2 {
        fill: #fff;
      }

      .cls-3 {
        fill: url(#linear-gradient-4);
      }

      .cls-4 {
        fill: url(#linear-gradient-3);
      }

      .cls-5 {
        fill: url(#linear-gradient-5);
      }

      .cls-6 {
        fill: url(#linear-gradient-8);
      }

      .cls-7 {
        fill: url(#linear-gradient-7);
      }

      .cls-8 {
        fill: url(#linear-gradient-6);
      }

      .cls-9 {
        fill: url(#linear-gradient);
      }
    </style>
    <linearGradient id="linear-gradient" x1="230.72" y1="7.78" x2="471.98" y2="347.71" gradientUnits="userSpaceOnUse">
      <stop offset="0" stop-color="#fff200"/>
      <stop offset=".52" stop-color="#f15a29"/>
      <stop offset="1" stop-color="#f9ed32"/>
    </linearGradient>
    <linearGradient id="linear-gradient-2" x1="241.39" y1="2.6" x2="481.41" y2="340.78" xlink:href="#linear-gradient"/>
    <linearGradient id="linear-gradient-3" x1="252.06" y1="-7.66" x2="494.33" y2="333.7" xlink:href="#linear-gradient"/>
    <linearGradient id="linear-gradient-4" x1="301.97" y1="-41.97" x2="542.39" y2="296.77" xlink:href="#linear-gradient"/>
    <linearGradient id="linear-gradient-5" x1="319.35" y1="-54.59" x2="559.76" y2="284.15" xlink:href="#linear-gradient"/>
    <linearGradient id="linear-gradient-6" x1="276.62" y1="-23.22" x2="516.53" y2="314.8" xlink:href="#linear-gradient"/>
    <linearGradient id="linear-gradient-7" x1="322.12" y1="-56.76" x2="562.66" y2="282.16" xlink:href="#linear-gradient"/>
    <linearGradient id="linear-gradient-8" x1="259.11" y1="-9.98" x2="497.79" y2="326.33" xlink:href="#linear-gradient"/>
  </defs>
  <path class="cls-2" d="M181.19,224.38c4.72.06,8.92-3.99,8.9-8.58-.02-5.11-4.26-9.84-8.85-9.87-4.29-.02-8.43,4.53-8.41,9.25.02,5.81,3.04,9.13,8.36,9.2Z"/>
  <path class="cls-2" d="M44.65,217.09c1.63-1.43,2.89-3.14,3.79-5.14.9-1.99,1.35-4.19,1.35-6.59s-.38-4.34-1.13-6.11c-.75-1.77-1.85-3.38-3.29-4.81-1.44-1.43-3.19-2.73-5.25-3.91-2.06-1.17-4.4-2.31-7.01-3.41-1.15-.49-2.1-.95-2.84-1.38-.74-.43-1.33-.84-1.76-1.25s-.73-.8-.9-1.17c-.17-.38-.25-.78-.25-1.19,0-.49.13-.92.39-1.28.26-.37.62-.67,1.06-.9.44-.23.97-.4,1.58-.51.61-.11,1.28-.17,1.99-.17,1.37,0,2.63.26,3.79.77,1.16.51,2.1,1.28,2.82,2.31.45.64.89,1.01,1.31,1.12.42.11.93.03,1.53-.24l7.04-3.6c.65-.27.95-.7.9-1.29-.05-.59-.28-1.25-.68-1.98-1.03-1.84-2.22-3.36-3.58-4.59-1.35-1.22-2.8-2.2-4.33-2.94-1.53-.73-3.13-1.25-4.78-1.56-1.65-.31-3.29-.46-4.92-.46-2.56,0-4.91.37-7.04,1.1-2.13.73-3.96,1.76-5.5,3.08-1.53,1.32-2.72,2.9-3.57,4.74-.85,1.84-1.28,3.85-1.28,6.06,0,1.59.16,3.1.49,4.52.32,1.42.9,2.77,1.72,4.06.83,1.28,1.96,2.52,3.39,3.71,1.44,1.19,3.27,2.33,5.5,3.43,1.82.93,3.44,1.73,4.85,2.39,1.41.66,2.6,1.28,3.56,1.87s1.68,1.18,2.17,1.78c.49.6.74,1.29.74,2.07,0,1.17-.48,2.06-1.44,2.66-.96.6-2.2.9-3.74.9-.81,0-1.62-.14-2.41-.42-.79-.28-1.53-.65-2.23-1.1-.7-.45-1.31-.96-1.85-1.52-.54-.56-.96-1.14-1.28-1.73-.34-.64-.7-1.03-1.08-1.19-.38-.16-.78-.14-1.19.05l-8.05,4.48c-.7.32-1,.76-.92,1.32.08.56.32,1.21.7,1.95.79,1.54,1.8,2.96,3.02,4.26,1.22,1.3,2.62,2.42,4.2,3.36,1.58.94,3.31,1.68,5.19,2.2,1.88.53,3.86.79,5.95.79,2.68,0,5.15-.4,7.4-1.19,2.25-.8,4.19-1.91,5.82-3.34Z"/>
  <path class="cls-2" d="M58.3,180.95h10.56v37.88c0,1.03.43,1.54,1.29,1.54h10.49c.48,0,.85-.13,1.11-.39.26-.26.4-.64.4-1.16v-37.88h10.56c.96,0,1.44-.53,1.44-1.58v-9.76c0-1.05-.48-1.58-1.44-1.58h-34.42c-.93,0-1.4.53-1.4,1.58v9.76c0,1.05.47,1.58,1.4,1.58Z"/>
  <path class="cls-2" d="M135.28,218.83v-9.47c0-1.03-.48-1.54-1.44-1.54h-19.29v-7.16h14.12c1.05,0,1.58-.51,1.58-1.54v-9.73c0-.56-.14-.97-.43-1.23-.29-.26-.67-.39-1.15-.39h-14.12v-6.83h18.75c.93,0,1.4-.51,1.4-1.54v-9.8c0-1.05-.47-1.58-1.4-1.58h-30.54c-1.01,0-1.51.53-1.51,1.58v49.23c0,1.03.5,1.54,1.51,1.54h31.08c.96,0,1.44-.51,1.44-1.54Z"/>
  <path class="cls-2" d="M239.11,218.85l-.07-23.97-.32-4.81,1.87,4.85,6.43,17.95c.24.64.44,1.06.59,1.28.16.22.48.33.99.33h8.95c.24,0,.44-.02.61-.07.17-.05.31-.13.41-.26.11-.12.2-.29.29-.5.08-.21.19-.47.31-.79l6.47-17.66,1.8-4.74-.29,4.37-.11,24.01c0,1.03.48,1.54,1.44,1.54h10.1c.91,0,1.37-.51,1.37-1.54v-49.23c0-1.05-.47-1.58-1.4-1.58h-13.08c-.5,0-.81.13-.92.4-.11.27-.27.66-.48,1.17l-9.7,23.31-1.26,5.95-1.22-5.87-9.74-23.38c-.22-.51-.38-.91-.5-1.17-.12-.27-.43-.4-.93-.4h-13.04c-.93,0-1.4.53-1.4,1.58v49.23c0,1.03.46,1.54,1.37,1.54h10.1c.93,0,1.4-.51,1.4-1.54Z"/>
  <path class="cls-2" d="M202.54,220.39c-.1,0-14.77-27.32-19.2-35.58-.57-1.06-2.03-1.1-2.67-.09-5.1,8.16-22.33,35.67-22.37,35.67h-16.3c-1.25,0-1.98-1.42-1.29-2.48l40.88-61.87c.62-.94,1.96-.93,2.58,0,7.84,11.91,23.41,41.42,36.09,61.91.65,1.06-.09,2.43-1.32,2.43h-16.41Z"/>
  <g>
    <path class="cls-2" d="M67.9,256.29c-4.52-2.5-8.99-3.76-13.41-3.76-5.1,0-9.73,1.3-13.91,3.9-4.18,2.6-7.47,6.19-9.88,10.75-2.4,4.57-3.6,9.65-3.6,15.25s1.2,10.68,3.6,15.25c2.4,4.57,5.69,8.15,9.88,10.75,4.18,2.6,8.82,3.9,13.91,3.9,4.13,0,8.46-1.08,12.97-3.24,2.65-1.27,5.13-2.8,7.45-4.61,2.84-2.21,6.87-1.8,9.31.87l6.01,6.6c2.76,3.03,2.43,7.81-.7,10.43-4.2,3.52-8.89,6.48-14.07,8.87-7.55,3.48-15.02,5.23-22.42,5.23-10,0-19.03-2.36-27.1-7.07-8.07-4.71-14.42-11.15-19.03-19.3-4.61-8.15-6.92-17.28-6.92-27.4s2.35-19.05,7.06-27.11c4.71-8.05,11.17-14.39,19.39-19,8.22-4.62,17.42-6.92,27.61-6.92,7.5,0,14.9,1.6,22.2,4.79,4.96,2.17,9.41,4.87,13.35,8.1,3.05,2.5,3.5,7.08,1.01,10.16l-6.04,7.45c-2.52,3.11-7.04,3.45-10.03.8-2.04-1.81-4.26-3.38-6.66-4.71Z"/>
    <path class="cls-2" d="M136.52,307.63c3.75,3.93,8.51,5.89,14.27,5.89s10.26-1.94,13.77-5.82c3.51-3.88,5.26-9.11,5.26-15.69v-53.53c0-3.96,3.14-7.16,7.01-7.16h12.36c3.87,0,7.01,3.21,7.01,7.16v53.53c0,8.94-1.85,16.77-5.55,23.5-3.7,6.73-8.99,11.91-15.86,15.54-6.87,3.63-14.92,5.45-24.15,5.45s-17.32-1.82-24.29-5.45c-6.97-3.63-12.35-8.81-16.15-15.54-3.8-6.73-5.69-14.56-5.69-23.5v-53.53c0-3.96,3.14-7.16,7.01-7.16h12.36c3.87,0,7.01,3.21,7.01,7.16v53.53c0,6.48,1.87,11.69,5.62,15.62Z"/>
    <path class="cls-2" d="M288.62,240.82c7.11,6.33,10.67,15.25,10.67,26.74,0,12.18-3.56,21.63-10.67,28.36-7.11,6.73-17.11,10.09-29.99,10.09h-11.01c-3.87,0-7.01,3.21-7.01,7.16v14.25c0,3.96-3.14,7.16-7.01,7.16h-12.36c-3.87,0-7.01-3.21-7.01-7.16v-88.94c0-3.96,3.14-7.16,7.01-7.16h37.39c12.88,0,22.87,3.17,29.99,9.5ZM269.81,280.37c2.93-2.75,4.4-6.73,4.4-11.93s-1.47-8.86-4.4-11.56c-2.93-2.7-7.09-4.05-12.47-4.05h-9.71c-3.87,0-7.01,3.21-7.01,7.16v17.35c0,3.96,3.14,7.16,7.01,7.16h9.71c5.38,0,9.54-1.37,12.47-4.13Z"/>
  </g>
  <g>
    <path class="cls-9" d="M392.44,68.74c6.29,0,12.4-.13,18.51.11,1.25.05,3.1,1.3,3.48,2.41.35,1.02-.88,2.63-1.51,3.94-.36.75-1.27,1.39-1.32,2.12-.45,6.55-.77,13.11-1.15,20.03,4.65-2.52,6.96-6.39,8.26-10.96,1.21-4.26,3.21-6.01,7.54-6.05,2.84-.03,5.69-.02,8.53,0,5.67.05,8.64,3.12,8.16,8.99-.38,4.63-1.21,9.23-2,13.82-3.36,19.56-9.45,38.12-19.76,55.07-7.31,12.01-16.27,22.47-27.98,30.25-.48.32-.99.61-2.03,1.24,2.31-5.6,4.67-10.55,6.4-15.73,2.09-6.26,6.28-11.01,9.95-16.19,11.72-16.56,18.14-35.37,22.09-55.18.73-3.67,1.18-7.41,1.2-11.34-.63,1-1.37,1.94-1.87,3-3.39,7.28-9.28,11.71-16.36,14.5-2.88,1.13-3.78,2.84-4.14,5.71-2.48,19.74-6.48,39.14-13.47,57.78-4.23,11.28-9.13,22.25-16.88,31.54-2.77,3.32-6.23,6.03-9.27,9.14-.91.93-2.01,2.26-2.02,3.41-.03,4.91-.12,54.98.63,59.8,1.32,8.49,6.35,14.72,13.24,19.29,1.99,1.32,2.64,2.66,2.43,4.86-.12,1.28-.02,2.59-.02,4.17,3.79,0,7.31-.16,10.81.08,1.38.09,2.83.85,4.04,1.64,3.72,2.44,4.54,6.04,4.31,10.43-.34,6.4-.09,12.83-.09,19.49h-95.8c-.06-.47-.21-1.05-.21-1.63-.02-7.31-.09-14.62.05-21.92.02-1.23.78-2.57,1.5-3.65,2.5-3.74,5.98-5.15,10.42-4.49,2.18.32,4.45.06,6.53.06.24-.34.45-.49.43-.6-.96-5.09,1.69-7.88,5.49-10.76,7.6-5.76,11.36-59.06,10.9-68.69-.3-6.3,1.51-11.3,4.77-16.55,14.27-22.93,23.97-47.97,31.63-73.89,6.12-20.71,10.72-41.77,14.09-63.13.09-.6.28-1.19.5-2.1Z"/>
    <path class="cls-1" d="M322.32,193.02c-3.52-8.26-7.38-16.39-10.48-24.81-6.58-17.86-9.94-36.51-11.93-55.43-.17-1.62-.65-2.56-2.19-3.07-1.3-.43-2.51-1.15-3.76-1.72-6.23-2.85-11.33-6.95-14.39-13.37-.55-1.16-1.34-2.19-2.02-3.29-.23.06-.45.13-.68.19.76,4.5,1.38,9.03,2.31,13.49,3.53,16.96,9.05,33.15,18.29,47.83,1.58,2.51,3.1,5.14,5.08,7.3,6.63,7.24,8.87,16.74,12.83,25.35.54,1.18.97,2.41,1.11,4.04-2.64-1.96-5.38-3.81-7.91-5.91-14.65-12.21-24.37-28-31.56-45.61-6.23-15.28-9.54-31.31-11.67-47.64-.78-5.96,2.12-10.54,8.66-10.06,2.66.19,5.34,0,8.01.04,4.34.05,6.31,1.77,7.52,6.05,1.35,4.78,3.86,8.73,8.83,11.29-.23-3.26-.41-6.11-.64-8.95-.24-2.98-.57-5.95-.79-8.93-.15-2.06-.53-3.74-2.32-5.24-2.25-1.89-.85-5.08,2.31-5.77.33-.07.69-.04,1.03-.04,18.09,0,36.19.01,54.28.02.33,0,.67.06,1.34.13-4.46,42.78-12.64,84.48-30.17,123.81-.37.1-.74.2-1.11.31Z"/>
    <path class="cls-4" d="M338.84,212.24c-4.92-3.68-8.59-7.97-11.72-12.72-.44-.67.07-2.32.58-3.27,10.17-18.95,17.96-38.91,24.25-59.51,6.59-21.58,11.44-43.58,15.04-65.87.27-1.67.75-2.25,2.41-2.16,2.67.14,5.34.04,8.01.06.25,0,.49.1,1.1.22-5.34,49.92-15.06,98.51-39.67,143.25Z"/>
    <path class="cls-3" d="M382.4,21.93c-5.05,3.76-10.03,7.62-15.17,11.23-1.72,1.21-1.86,2.29-1.23,4.14,2.03,6.03,3.88,12.11,6.03,18.88-5.72-4.23-10.9-7.93-15.93-11.85-1.54-1.2-2.45-1.11-3.94.04-5,3.87-10.13,7.56-15.82,11.77,1.15-3.73,2.1-6.82,3.07-9.91.97-3.09,1.84-6.22,2.98-9.25.66-1.73.29-2.66-1.16-3.7-5.18-3.72-10.28-7.57-16.07-11.88,5.74,0,10.7,0,15.66,0q6.49,0,8.48-6.23c1.53-4.8,3.07-9.61,4.85-15.18,2.04,6.36,4.02,11.92,5.56,17.61.8,2.94,2,4.06,5.11,3.89,5.8-.31,11.63-.09,17.44-.09.05.17.1.34.15.52Z"/>
    <path class="cls-5" d="M397.67,36.45c-2.58,1.95-4.54,3.43-6.71,5.07.76,2.5,1.53,5.05,2.49,8.23-1.95-1.43-3.52-2.43-4.9-3.64-1.32-1.15-2.37-1.36-3.77-.07-1.36,1.26-2.98,2.23-5.06,3.74.71-2.22,1.11-3.81,1.73-5.3.85-2.06.73-3.59-1.46-4.73-1.36-.7-2.51-1.83-4.46-3.29,2.72,0,4.71.14,6.67-.07.78-.09,1.81-.81,2.13-1.53.85-1.9,1.37-3.95,2.23-6.61.82,2.43,1.59,4.3,2.07,6.24.39,1.59,1.19,2.1,2.73,1.99,1.84-.12,3.7-.03,6.3-.03Z"/>
    <path class="cls-8" d="M321.52,28.62c.32.3.41.34.42.4.94,5.76,3.36,9.48,10.34,6.96-.06.31-.12.61-.18.92-1.52,1.14-3.03,2.31-4.58,3.4-1.12.79-1.62,1.58-1.01,3.06.76,1.83,1.21,3.79,2.01,6.37-1.99-1.44-3.59-2.38-4.92-3.62-1.47-1.37-2.59-1.12-3.96.08-1.35,1.18-2.88,2.16-4.83,3.6.44-1.39.69-2.19.94-2.99q1.67-5.3-2.85-8.62c-.55-.4-1.07-.83-2.24-1.73,2.56,0,4.47-.09,6.37.03,1.43.09,2.19-.36,2.57-1.85.48-1.93,1.21-3.81,1.93-6.01Z"/>
    <path class="cls-7" d="M397.51,54.05c1.1-.05,2.2-.11,3.37-.16.38-1.11.74-2.16,1.43-4.16.59,3.33,1.66,5.38,5.08,4.22-2.27,1.74-3.68,3.41-2.26,6.26-.94-.6-1.88-1.2-2.93-1.87-.9.61-1.81,1.22-3.44,2.32,1.3-2.95,1.55-5.23-2.11-6.09.28-.17.57-.35.85-.52Z"/>
    <path class="cls-6" d="M308.78,60.21c-.91-.63-1.81-1.25-2.74-1.9-.99.68-1.9,1.3-3.57,2.44,1.54-3.05,1.4-5.14-1.58-6.39,2.6-.22,5.1-.26,5.31-3.75.38,1.01.76,2.01,1.22,3.24,1.04.07,2.21.15,4.01.26-2.21,1.65-4.43,3.14-1.49,6.23l-1.16-.13Z"/>
  </g>
</svg>