<?xml version="1.0" encoding="UTF-8"?>
<svg id="Layer_1" data-name="Layer 1" xmlns="http://www.w3.org/2000/svg" xmlns:xlink="http://www.w3.org/1999/xlink" viewBox="0 0 416.11 575.19">
  <defs>
    <style>
      .cls-1 {
        clip-path: url(#clippath-34);
      }

      .cls-2 {
        fill: url(#linear-gradient-15);
      }

      .cls-3 {
        fill: url(#linear-gradient-13);
      }

      .cls-4 {
        fill: url(#linear-gradient-28);
      }

      .cls-5 {
        clip-path: url(#clippath-38);
      }

      .cls-6 {
        clip-path: url(#clippath-21);
      }

      .cls-7 {
        clip-path: url(#clippath-6);
      }

      .cls-8 {
        clip-path: url(#clippath-7);
      }

      .cls-9 {
        clip-path: url(#clippath-17);
      }

      .cls-10 {
        fill: url(#linear-gradient-42);
      }

      .cls-11 {
        clip-path: url(#clippath-31);
      }

      .cls-12 {
        clip-path: url(#clippath-15);
      }

      .cls-13 {
        clip-path: url(#clippath-33);
      }

      .cls-14 {
        clip-path: url(#clippath-18);
      }

      .cls-15 {
        clip-path: url(#clippath-4);
      }

      .cls-16 {
        fill: url(#linear-gradient-2);
      }

      .cls-17 {
        clip-path: url(#clippath-22);
      }

      .cls-18 {
        clip-path: url(#clippath-23);
      }

      .cls-19 {
        fill: url(#linear-gradient-43);
      }

      .cls-20 {
        fill: url(#linear-gradient-25);
      }

      .cls-21 {
        fill: url(#linear-gradient-10);
      }

      .cls-22 {
        fill: url(#linear-gradient-12);
      }

      .cls-23 {
        fill: url(#linear-gradient-40);
      }

      .cls-24 {
        fill: url(#linear-gradient-27);
      }

      .cls-25 {
        fill: #231f20;
      }

      .cls-26 {
        fill: url(#linear-gradient-37);
      }

      .cls-27 {
        clip-path: url(#clippath-9);
      }

      .cls-28 {
        clip-path: url(#clippath-10);
      }

      .cls-29 {
        clip-path: url(#clippath-42);
      }

      .cls-30, .cls-31 {
        fill: #fff;
      }

      .cls-32 {
        fill: url(#linear-gradient-39);
      }

      .cls-33 {
        clip-path: url(#clippath-43);
      }

      .cls-34 {
        clip-path: url(#clippath-25);
      }

      .cls-35 {
        clip-path: url(#clippath-27);
      }

      .cls-36 {
        fill: #ef3752;
      }

      .cls-31, .cls-37 {
        fill-rule: evenodd;
      }

      .cls-38 {
        fill: url(#linear-gradient-26);
      }

      .cls-39 {
        clip-path: url(#clippath-11);
      }

      .cls-40, .cls-41 {
        fill: none;
      }

      .cls-42 {
        fill: url(#linear-gradient-4);
      }

      .cls-43 {
        fill: url(#linear-gradient-35);
      }

      .cls-44 {
        fill: url(#linear-gradient-30);
      }

      .cls-45 {
        clip-path: url(#clippath-36);
      }

      .cls-46 {
        clip-path: url(#clippath-35);
      }

      .cls-47 {
        clip-path: url(#clippath-28);
      }

      .cls-48 {
        fill: url(#linear-gradient-44);
      }

      .cls-49 {
        fill: url(#linear-gradient-3);
      }

      .cls-50 {
        fill: url(#linear-gradient-34);
      }

      .cls-51 {
        fill: url(#linear-gradient-5);
      }

      .cls-52 {
        fill: url(#linear-gradient-38);
      }

      .cls-53 {
        fill: url(#linear-gradient-22);
      }

      .cls-54 {
        fill: #f37048;
      }

      .cls-55 {
        fill: url(#linear-gradient-24);
      }

      .cls-56 {
        clip-path: url(#clippath-45);
      }

      .cls-57 {
        clip-path: url(#clippath-46);
      }

      .cls-58 {
        clip-path: url(#clippath-40);
      }

      .cls-59 {
        clip-path: url(#clippath-5);
      }

      .cls-60 {
        clip-path: url(#clippath-20);
      }

      .cls-61 {
        fill: url(#linear-gradient-33);
      }

      .cls-62 {
        clip-path: url(#clippath-8);
      }

      .cls-63 {
        fill: url(#linear-gradient-8);
      }

      .cls-64 {
        fill: #16216a;
      }

      .cls-65 {
        clip-path: url(#clippath-41);
      }

      .cls-66 {
        clip-path: url(#clippath-3);
      }

      .cls-67 {
        clip-path: url(#clippath-26);
      }

      .cls-68 {
        clip-path: url(#clippath-12);
      }

      .cls-69 {
        fill: url(#linear-gradient-14);
      }

      .cls-70 {
        clip-path: url(#clippath-14);
      }

      .cls-71 {
        fill: url(#linear-gradient-29);
      }

      .cls-41 {
        clip-rule: evenodd;
      }

      .cls-72 {
        fill: url(#linear-gradient-20);
      }

      .cls-73 {
        fill: url(#linear-gradient-17);
      }

      .cls-74 {
        fill: url(#linear-gradient-7);
      }

      .cls-75 {
        clip-path: url(#clippath-30);
      }

      .cls-76 {
        clip-path: url(#clippath-19);
      }

      .cls-77 {
        fill: url(#linear-gradient-9);
      }

      .cls-78 {
        fill: url(#linear-gradient-11);
      }

      .cls-79 {
        clip-path: url(#clippath-32);
      }

      .cls-80 {
        fill: url(#linear-gradient-19);
      }

      .cls-81 {
        fill: url(#linear-gradient-6);
      }

      .cls-82 {
        fill: #4177bb;
      }

      .cls-83 {
        fill: #f58220;
      }

      .cls-84 {
        clip-path: url(#clippath-39);
      }

      .cls-85 {
        fill: url(#linear-gradient-36);
      }

      .cls-86 {
        fill: url(#linear-gradient-21);
      }

      .cls-87 {
        clip-path: url(#clippath-16);
      }

      .cls-37 {
        fill: #732e91;
      }

      .cls-88 {
        clip-path: url(#clippath-29);
      }

      .cls-89 {
        fill: url(#linear-gradient-32);
      }

      .cls-90 {
        clip-path: url(#clippath-37);
      }

      .cls-91 {
        fill: url(#linear-gradient-41);
      }

      .cls-92 {
        clip-path: url(#clippath-13);
      }

      .cls-93 {
        fill: url(#linear-gradient-16);
      }

      .cls-94 {
        fill: url(#linear-gradient);
      }

      .cls-95 {
        clip-path: url(#clippath-24);
      }

      .cls-96 {
        fill: url(#linear-gradient-23);
      }

      .cls-97 {
        fill: url(#linear-gradient-31);
      }

      .cls-98 {
        clip-path: url(#clippath);
      }

      .cls-99 {
        clip-path: url(#clippath-44);
      }

      .cls-100 {
        fill: url(#linear-gradient-18);
      }
    </style>
    <clipPath id="clippath">
      <polygon class="cls-41" points="340.49 291.52 313.13 442.76 102.98 442.76 75.62 291.52 340.49 291.52"/>
    </clipPath>
    <linearGradient id="linear-gradient" x1="84.48" y1="445.78" x2="85.24" y2="445.78" gradientTransform="translate(-15695.15 -83162.18) scale(187.04 187.38)" gradientUnits="userSpaceOnUse">
      <stop offset="0" stop-color="#f58220"/>
      <stop offset="1" stop-color="#ec008c"/>
    </linearGradient>
    <clipPath id="clippath-3">
      <path class="cls-41" d="M208.05,14.38c9.14,0,16.54,7.41,16.54,16.54s-7.41,16.54-16.54,16.54-16.54-7.4-16.54-16.54,7.4-16.54,16.54-16.54"/>
    </clipPath>
    <linearGradient id="linear-gradient-2" x1="84.15" y1="444.26" x2="85.97" y2="444.26" gradientTransform="translate(-12736.5 -45483.77) scale(151.38 102.45)" gradientUnits="userSpaceOnUse">
      <stop offset="0" stop-color="#7e3a96"/>
      <stop offset=".14" stop-color="#0f979a"/>
      <stop offset=".26" stop-color="#fbb040"/>
      <stop offset=".43" stop-color="#ef3859"/>
      <stop offset=".61" stop-color="#7e3a96"/>
      <stop offset=".82" stop-color="#f04a39"/>
      <stop offset="1" stop-color="#f89a34"/>
    </linearGradient>
    <clipPath id="clippath-4">
      <polygon class="cls-40" points="140.47 159.89 198.18 70.05 208.05 54.67 217.93 70.05 275.64 159.89 246.32 159.89 208.05 100.32 169.79 159.89 140.47 159.89"/>
    </clipPath>
    <linearGradient id="linear-gradient-3" x1="84.28" y1="444.9" x2="85.76" y2="444.9" gradientTransform="translate(-12764.12 -70730.2) scale(151.81 159.22)" xlink:href="#linear-gradient-2"/>
    <clipPath id="clippath-5">
      <path class="cls-41" d="M200.46,126.76h15.18c2.45,0,4.45,2,4.45,4.45v57.37c0,2.45-2,4.45-4.45,4.45h-15.18c-2.45,0-4.45-2-4.45-4.45v-57.37c0-2.45,2-4.45,4.45-4.45"/>
    </clipPath>
    <clipPath id="clippath-6">
      <rect class="cls-40" x="196.01" y="126.76" width="24.08" height="66.27"/>
    </clipPath>
    <linearGradient id="linear-gradient-4" x1="84.13" y1="444.97" x2="85.95" y2="444.97" gradientTransform="translate(-10273.4 -33876.53) scale(122.75 76.49)" xlink:href="#linear-gradient-2"/>
    <clipPath id="clippath-7">
      <path class="cls-41" d="M258.68,249.1c-.9-.52-1.45-2.22-1.15-3.47.35-1.42,1.1-2.51,2.56-3.02,1.99-.7,3.97-1.44,5.95-2.16.12-.04.28.01.55.03-.11,2.38.23,4.82-1.39,6.86-1.18,1.49-2.89,2.27-4.47,2.27-.73,0-1.44-.17-2.05-.52ZM252.28,228.54c-.66,1.62-.91,3.18-.79,4.84.09,1.22.75,1.65,1.96,1.67,1.25.02,1.89-.88,2.63-1.61,1.89-1.85,4.08-2.88,6.78-2.67,1.74.13,3.27,1.21,3.62,2.9.35,1.71.25,2.27-1.52,2.76-2.93.8-5.87,1.57-8.74,2.56-2.2.76-4.06,2.17-5.02,4.35-1.07,2.42-1.24,4.92-.2,7.47.68,1.66,1.85,2.75,3.4,3.39,1.13.46,2.38.78,3.59.84,2.56.13,4.92-.54,6.83-2.37.48-.46.92-.96,1.43-1.51.14.47.25.77.31,1.08.29,1.51,1.23,2.33,2.71,2.48,1.71.18,3.43.22,5.07-.48.96-.41,1.19-1.09.45-1.86-1.05-1.1-1.28-2.41-1.29-3.83-.05-5.1-.02-10.2-.21-15.3-.1-2.74-1.35-5.13-3.86-6.39-2.32-1.17-4.7-1.61-6.93-1.61-4.89,0-9.05,2.13-10.24,3.28Z"/>
    </clipPath>
    <linearGradient id="linear-gradient-5" x1="84.35" y1="445.41" x2="85.99" y2="445.41" gradientTransform="translate(-8502.28 -31137.5) scale(102.29 70.45)" xlink:href="#linear-gradient-2"/>
    <clipPath id="clippath-8">
      <path class="cls-41" d="M140.08,213.31c-.3,0-.6.01-.9.01-2.17-.01-4,.81-5.19,2.58-3.35,4.97-6.6,10.01-9.88,15.03-.16.25-.31.51-.47.77-.2-1-.21-1.93-.2-2.86.04-3.83.09-7.65.12-11.48.01-1.21-.48-2.03-1.39-2.04-2.22-.04-4.44-.07-6.65.08-1.4.09-1.77,1.06-1.02,2.27.74,1.18,1.1,2.44,1.08,3.85-.04,3.44.09,6.89-.02,10.33-.22,7.06.69,14.16-.73,21.18-.18.86.35,1.52,1.28,1.57,2.03.11,4.08.18,6.11.11,1.27-.04,1.88-1.07,1.66-2.31-.15-.87-.28-1.76-.29-2.64-.03-3.76-.01-7.52-.01-11.51.27.36.47.57.61.81,2.44,4.15,4.88,8.3,7.31,12.46,1.54,2.64,3.39,4.99,5.96,6.69,3.24,2.15,6.78,3.21,10.68,2.45.56-.11,1.13-.59,1.51-1.06.31-.38.21-.9-.48-1.03-.72-.14-1.44-.32-2.14-.54-2.7-.87-4.82-2.6-6.31-4.92-2.86-4.45-5.28-9.15-7.63-13.88-.76-1.53-1.59-3.03-2.31-4.58-.5-1.07-.37-2.14.33-3.11,1.76-2.44,3.5-4.89,5.29-7.31,1.26-1.71,2.49-3.46,3.9-5.04.89-1,2.09-1.72,3.16-2.56,1.15-.9,1.14-2.04-.1-2.79-.44-.26-.98-.44-1.48-.48-.32-.03-.64-.04-.97-.04-.27,0-.53,0-.8.01Z"/>
    </clipPath>
    <linearGradient id="linear-gradient-6" x1="84.35" y1="445.07" x2="85.95" y2="445.07" gradientTransform="translate(-8712.06 -33771.73) scale(104.61 76.41)" xlink:href="#linear-gradient-2"/>
    <clipPath id="clippath-9">
      <path class="cls-41" d="M195.65,228.4c-.19.2-.44.35-.78.62-.12-.41-.19-.69-.28-.95-.34-.91-.78-1.85-1.78-2.07-1.43-.31-2.89-.26-4.26.39-.94.45-1.18,1.1-1.01,2.11.26,1.57.56,3.15.58,4.72.07,6.47.07,12.94.04,19.4,0,1.04.42,1.69,1.36,1.85,1.15.2,2.33.3,3.5.29,1.94,0,2.36-.59,2.33-2.49-.09-5.69-.09-11.39-.22-17.08-.04-1.77.92-2.66,2.29-3.31.6-.29,1.3-.45,1.97-.49,2.54-.15,4.46.51,4.49,3.84.04,3.41.03,6.82.06,10.24.02,2.22,0,4.45.14,6.67.09,1.51.84,2.46,2.04,2.53,1.49.09,3.02.05,4.49-.19,1.45-.24,1.68-1,1.29-2.42-.36-1.36-.65-2.77-.73-4.17-.14-2.4-.08-4.8-.13-7.21-.06-2.84,0-5.7-.24-8.53-.23-2.59-1.61-4.64-3.98-5.81-1.18-.58-2.52-.85-3.89-.85-2.69,0-5.48,1.05-7.29,2.91Z"/>
    </clipPath>
    <linearGradient id="linear-gradient-7" x1="84.35" y1="445.25" x2="85.99" y2="445.25" gradientTransform="translate(-8499.73 -31101.22) scale(102.21 70.39)" xlink:href="#linear-gradient-2"/>
    <clipPath id="clippath-10">
      <path class="cls-41" d="M150.21,249.21c-1.01-.37-.98-1.43-1.12-2.24-.38-2.13.57-3.74,2.59-4.54,1.37-.54,2.77-1,4.15-1.51.75-.27,1.04,0,.98.77-.03.32,0,.65,0,.97.09.02.18.03.26.05-.28,1.37-.48,2.77-.88,4.1-.44,1.48-2.44,2.67-4.43,2.67-.53,0-1.06-.08-1.55-.27ZM146.32,227.38c-1.17.66-2.21,1.5-2.49,2.85-.2.99-.17,2.04-.11,3.06.07,1.21,1.2,1.69,2.19.97.33-.24.62-.55.88-.87,1.48-1.82,3.39-2.78,5.73-2.6,1.34.1,2.81.34,3.52,1.66.49.92.64,2.04.85,3.09.13.64-.19,1-.9,1.15-2.36.52-4.72,1.03-7.04,1.7-3.74,1.08-6.19,3.36-6.71,7.45-.65,5.1,2.47,8.62,7.37,8.93,2.12.14,4.02-.77,5.69-2.07.53-.41.99-.91,1.55-1.43.08.42.13.79.23,1.15.22.81.46,1.61,1.37,1.94,1.93.71,3.83.6,5.68-.24.74-.33.94-.85.46-1.5-1-1.36-1.09-2.92-1.11-4.48-.04-2.94.03-5.87-.03-8.81-.05-2.25-.02-4.52-.4-6.72-.5-2.92-2.14-5.27-5.01-6.28-1.61-.56-3.22-.85-4.81-.85-2.36,0-4.67.63-6.91,1.89Z"/>
    </clipPath>
    <linearGradient id="linear-gradient-8" x1="84.37" y1="445.13" x2="85.97" y2="445.13" gradientTransform="translate(-8502.98 -31092.95) scale(102.21 70.39)" xlink:href="#linear-gradient-2"/>
    <clipPath id="clippath-11">
      <path class="cls-41" d="M242.58,228.45c-1.24,4.35-2.41,8.73-3.6,13.09-.42,1.53-.81,3.06-1.22,4.6-.08-.01-.16-.02-.24-.03-.09-.21-.21-.41-.27-.64-1.16-4.45-2.32-8.89-3.46-13.35-.4-1.55-.73-3.11-1.1-4.66-.18-.74-.55-1.41-1.37-1.44-1.77-.06-3.55-.13-5.3.05-1.46.15-1.78,1.23-1.03,2.53.47.81.9,1.67,1.16,2.56.88,3.03,1.63,6.1,2.52,9.13,1.2,4.06,2.48,8.09,3.74,12.12.38,1.2,1.23,1.98,2.46,2.18,1.01.17,2.06.16,3.09.19,1.96.06,2.81-.52,3.49-2.35.45-1.22.87-2.44,1.27-3.68.84-2.61,1.66-5.23,2.5-7.85.39-1.21.83-2.39,1.22-3.6.66-2.08,1.31-4.16,1.95-6.24.32-1.04.67-2.08.9-3.15.18-.82.03-1.58-.88-2-.56-.26-1.17-.39-1.77-.39-1.81,0-3.57,1.12-4.08,2.91Z"/>
    </clipPath>
    <linearGradient id="linear-gradient-9" x1="84.35" y1="445.34" x2="85.99" y2="445.34" gradientTransform="translate(-8497.04 -31107.57) scale(102.21 70.39)" xlink:href="#linear-gradient-2"/>
    <clipPath id="clippath-12">
      <path class="cls-41" d="M282.22,254.68h.33c5.91,0,11.48-.14,17.49-.14,1.24,0,1.79-.35,1.88-1.63.12-1.63.08-3.3-.1-4.93-.14-1.33-.85-1.52-2.16-1.1-1.11.35-2.29.68-3.44.69-9.57.04-4.48.04-10.93.03-.04-8.75-.03-17.5-.03-26.25-.02,0-.03,0-.05,0,.02-1.41.03-2.81.04-4.22,0-1.07-.43-1.79-1.23-1.81-.83-.02-1.67-.03-2.51-.03-1.13,0-2.26.02-3.38.1-1.24.08-1.57.94-.9,2.01.66,1.05.97,2.16.96,3.41,0,.04.11,25.81.12,31.92,0,1.24.35,1.79,1.63,1.88.66.05,1.33.06,1.99.06.09,0,.18,0,.27,0"/>
    </clipPath>
    <linearGradient id="linear-gradient-10" x1="84.34" y1="445.51" x2="85.9" y2="445.51" gradientTransform="translate(-9939.43 -38131.35) scale(119.14 86.12)" xlink:href="#linear-gradient-2"/>
    <clipPath id="clippath-13">
      <path class="cls-41" d="M177.48,226.87c-.85.5-1.58,1.2-2.44,1.87-.18-.36-.29-.76-.53-1.02-.57-.61-1.14-1.53-1.82-1.65-1.27-.22-2.67-.15-3.92.15-1.48.36-1.75,1.56-1.05,2.92.37.71.66,1.54.7,2.33.14,2.81.2,5.63.2,8.45,0,4.27-.09,8.54-.13,12.81-.01,1.16.35,1.76,1.46,1.84,1.46.11,2.95.09,4.41-.09,1.2-.15,1.55-.81,1.37-2.04-.08-.58-.33-1.16-.33-1.74-.03-4.48,0-8.95-.03-13.43-.01-1.66.7-2.87,2.04-3.8,2.03-1.4,2.8-1.2,3.7,1.06.28.71.75.99,1.52.91,1.64-.16,2.96-1.32,2.99-2.96.03-1.35-.1-2.73-.4-4.05-.26-1.17-.91-2.3-2.24-2.5-.51-.08-1.02-.12-1.52-.12-1.39,0-2.74.31-3.98,1.05Z"/>
    </clipPath>
    <linearGradient id="linear-gradient-11" x1="84.39" y1="445.19" x2="85.95" y2="445.19" gradientTransform="translate(-8501.34 -31096.89) scale(102.21 70.39)" xlink:href="#linear-gradient-2"/>
    <clipPath id="clippath-14">
      <path class="cls-41" d="M217.21,225.69c-1.83.32-2.33.92-2.33,2.57-.01,4.53-.01,9.07-.02,13.6,0,2.68-.03,8.46-.01,11.14,0,.85.73,1.57,1.62,1.61,1.27.05,2.55.06,3.82-.01,1.07-.06,1.56-.64,1.56-1.57,0-3.71,0-10.53,0-14.24h-.03c0-3.69,0-7.37,0-11.06,0-1.39-.59-2.01-2.14-2.14-.27-.02-.54-.04-.81-.04-.56,0-1.12.05-1.66.14Z"/>
    </clipPath>
    <linearGradient id="linear-gradient-12" x1="84.53" y1="445.26" x2="85.83" y2="445.26" gradientTransform="translate(-7764.89 -28457.69) scale(93.58 64.45)" xlink:href="#linear-gradient-2"/>
    <clipPath id="clippath-15">
      <path class="cls-41" d="M218.24,215.28c-1.72,0-3.38,1.79-3.38,3.65,0,2.29,1.22,3.6,3.37,3.63,1.9.02,3.6-1.57,3.59-3.38,0-2.02-1.72-3.88-3.57-3.89h-.01Z"/>
    </clipPath>
    <linearGradient id="linear-gradient-13" x1="84.47" y1="444.96" x2="86.14" y2="444.96" gradientTransform="translate(26091.77 -6787.45) rotate(90) scale(82.87 58.15)" xlink:href="#linear-gradient-2"/>
    <clipPath id="clippath-16">
      <path class="cls-41" d="M165.13,222.56h.03c.95,0,1.82-.14,2.62-.41.8-.27,1.48-.66,2.06-1.16.58-.5,1.02-1.09,1.34-1.78.32-.69.48-1.45.48-2.28s-.13-1.5-.4-2.12c-.27-.62-.66-1.17-1.16-1.67-.51-.5-1.13-.95-1.86-1.36-.73-.41-1.56-.8-2.48-1.18-.41-.17-.74-.33-1.01-.48-.26-.15-.47-.29-.62-.43-.15-.14-.26-.28-.32-.41-.06-.13-.09-.27-.09-.41,0-.17.05-.32.14-.45.09-.13.22-.23.38-.31.16-.08.34-.14.56-.18.22-.04.45-.06.71-.06.48,0,.93.09,1.34.27.41.18.74.45,1,.8.16.22.32.35.46.39.15.04.33.01.54-.08l2.49-1.25c.23-.09.34-.24.32-.45-.02-.2-.1-.43-.24-.69-.37-.64-.79-1.17-1.27-1.59-.48-.42-.99-.76-1.53-1.02-.54-.25-1.11-.44-1.69-.54-.59-.11-1.17-.16-1.74-.16-.91,0-1.74.13-2.49.38-.75.25-1.4.61-1.95,1.07-.54.46-.97,1.01-1.27,1.64-.3.64-.45,1.34-.45,2.1,0,.55.06,1.07.17,1.56.11.49.32.96.61,1.41.29.45.69.87,1.2,1.29.51.41,1.16.81,1.95,1.19.64.32,1.22.6,1.72.83.5.23.92.45,1.26.65.34.2.6.41.77.62.17.21.26.45.26.72,0,.41-.17.71-.51.92-.34.21-.78.31-1.32.31-.29,0-.57-.05-.85-.15-.28-.1-.54-.22-.79-.38-.25-.16-.47-.33-.66-.53-.19-.19-.34-.39-.45-.6-.12-.22-.25-.36-.38-.41-.14-.05-.28-.05-.42.02l-2.85,1.55c-.25.11-.35.26-.32.46.03.2.11.42.25.68.28.53.64,1.03,1.07,1.48.43.45.93.84,1.49,1.16.56.33,1.17.58,1.84.76.66.18,1.35.27,2.07.27"/>
    </clipPath>
    <linearGradient id="linear-gradient-14" x1="84.39" y1="445.06" x2="85.95" y2="445.06" gradientTransform="translate(-9517.73 -34744.78) scale(114.05 78.55)" xlink:href="#linear-gradient-2"/>
    <clipPath id="clippath-17">
      <path class="cls-41" d="M178.89,222.13h3.72c.17,0,.3-.05.39-.13.09-.09.14-.22.14-.4v-13.13h3.74c.34,0,.51-.18.51-.55v-3.38c0-.37-.17-.55-.51-.55h-12.19c-.33,0-.5.18-.5.55v3.38c0,.37.16.55.5.55h3.74v13.13c0,.36.15.54.46.54"/>
    </clipPath>
    <linearGradient id="linear-gradient-15" x1="84.37" y1="445.1" x2="85.97" y2="445.1" gradientTransform="translate(-9515.94 -34747.69) scale(114.05 78.55)" xlink:href="#linear-gradient-2"/>
    <clipPath id="clippath-18">
      <path class="cls-41" d="M190.44,222.13h11.01c.34,0,.51-.18.51-.54v-3.28c0-.36-.17-.53-.51-.53h-6.83v-2.48h5c.37,0,.56-.18.56-.54v-3.37c0-.19-.05-.34-.15-.43-.1-.09-.24-.13-.41-.13h-5v-2.37h6.64c.33,0,.5-.18.5-.53v-3.4c0-.37-.17-.55-.5-.55h-10.82c-.36,0-.53.18-.53.55v17.07c0,.36.18.54.53.54"/>
    </clipPath>
    <linearGradient id="linear-gradient-16" x1="84.39" y1="445.13" x2="85.95" y2="445.13" gradientTransform="translate(-9514.68 -34750.35) scale(114.05 78.55)" xlink:href="#linear-gradient-2"/>
    <clipPath id="clippath-19">
      <path class="cls-41" d="M234.67,222.14h3.58c.33,0,.5-.18.5-.54l-.03-8.31-.11-1.67.66,1.68,2.28,6.22c.09.22.15.37.21.45.06.08.17.11.35.11h3.17c.08,0,.16,0,.22-.03.06-.02.11-.05.15-.09.04-.04.07-.1.1-.17.03-.07.06-.16.11-.27l2.29-6.12.64-1.64-.1,1.51-.04,8.32c0,.36.17.54.51.54h3.58c.32,0,.48-.18.48-.54v-17.07c0-.36-.17-.55-.5-.55h-4.63c-.18,0-.29.05-.32.14-.04.09-.09.23-.17.41l-3.44,8.08-.45,2.06-.43-2.04-3.45-8.11c-.08-.18-.14-.32-.18-.41-.04-.09-.15-.14-.33-.14h-4.62c-.33,0-.5.18-.5.55v17.07c0,.36.16.54.48.54"/>
    </clipPath>
    <linearGradient id="linear-gradient-17" x1="84.35" y1="445.24" x2="86.02" y2="445.24" gradientTransform="translate(-9510.28 -34760.37) scale(114.05 78.55)" xlink:href="#linear-gradient-2"/>
    <clipPath id="clippath-20">
      <path class="cls-41" d="M204.34,222.14h5.77s6.12-9.54,7.93-12.37c.23-.35.74-.33.94.03,1.57,2.87,6.77,12.34,6.8,12.34h5.81c.43,0,.7-.48.47-.84-4.49-7.1-10.01-17.34-12.79-21.46-.11-.16-.28-.24-.46-.24s-.35.08-.46.24l-14.48,21.45c-.25.37.02.86.46.86"/>
    </clipPath>
    <linearGradient id="linear-gradient-18" x1="84.25" y1="445.35" x2="86" y2="445.35" gradientTransform="translate(-15302.11 -55646.06) scale(182.11 125.42)" xlink:href="#linear-gradient-2"/>
    <clipPath id="clippath-21">
      <path class="cls-41" d="M164.81,264.38h.05c.14,0,.27-.02.4-.05.14-.03.26-.08.38-.15.12-.07.23-.15.33-.26.1-.1.19-.23.27-.38.05-.1.04-.18-.04-.22l-.6-.3s-.07-.02-.1-.01c-.02,0-.05.03-.06.05-.06.12-.13.2-.23.25-.1.05-.2.08-.32.08-.1,0-.19-.02-.28-.05-.08-.03-.16-.08-.22-.14-.06-.06-.11-.13-.14-.22-.04-.09-.05-.18-.05-.28v-.96c0-.1.02-.19.05-.28.03-.08.08-.16.14-.22.06-.06.13-.11.22-.14.08-.04.18-.05.28-.05.12,0,.22.03.31.08.09.06.17.14.24.24.02.03.05.05.07.05.03,0,.06,0,.09-.02l.62-.31s.04-.03.05-.07c0-.03,0-.08-.03-.13-.08-.15-.17-.27-.27-.38-.1-.11-.21-.19-.33-.26-.12-.07-.25-.12-.38-.15-.14-.03-.28-.05-.43-.05-.24,0-.47.04-.67.12-.21.08-.39.19-.54.34-.15.14-.27.32-.36.52-.08.2-.13.41-.13.65h0v1.09h0c0,.24.05.46.13.65.09.2.2.36.36.51.15.14.33.25.54.33.2.08.42.11.66.12"/>
    </clipPath>
    <linearGradient id="linear-gradient-19" x1="84.28" y1="438.48" x2="86.18" y2="438.48" gradientTransform="translate(1358.07 -7726.22) rotate(90) scale(94.6 2.72)" xlink:href="#linear-gradient-2"/>
    <clipPath id="clippath-22">
      <path class="cls-41" d="M168.43,264.38h.06c.2,0,.4-.04.59-.1.2-.06.37-.16.52-.29.15-.13.27-.3.36-.5.09-.2.14-.44.14-.71v-2.49s-.01-.06-.04-.09c-.03-.02-.06-.04-.1-.04h-.8s-.07.01-.09.04c-.02.03-.03.05-.03.09v2.49c0,.09-.01.18-.04.25-.03.08-.06.14-.11.2-.05.06-.11.1-.18.13-.07.03-.15.05-.24.05s-.17-.01-.24-.04c-.07-.03-.14-.07-.19-.12-.05-.05-.09-.12-.12-.2-.03-.08-.04-.17-.04-.27v-2.49s0-.06-.02-.09c-.02-.02-.05-.04-.09-.04h-.84s-.06.01-.08.04c-.02.02-.03.05-.04.08h0v2.5h0c0,.28.05.51.14.7.09.2.22.37.37.5.15.13.33.23.53.3.19.06.39.1.59.1"/>
    </clipPath>
    <linearGradient id="linear-gradient-20" x1="84.28" y1="438.42" x2="86.18" y2="438.42" gradientTransform="translate(1349.59 -7729.94) rotate(90) scale(94.6 2.69)" xlink:href="#linear-gradient-2"/>
    <clipPath id="clippath-23">
      <path class="cls-41" d="M171.03,264.28h2.18c.07,0,.11-.04.11-.12v-.77c0-.08-.04-.12-.11-.12h-1.22v-2.98c0-.08-.04-.12-.12-.12h-.83c-.08,0-.12.04-.12.12h0v3.88h0c0,.08.04.12.12.12"/>
    </clipPath>
    <linearGradient id="linear-gradient-21" x1="84.28" y1="438.29" x2="86.18" y2="438.29" gradientTransform="translate(1334.75 -7733.61) rotate(90) scale(94.6 2.65)" xlink:href="#linear-gradient-2"/>
    <clipPath id="clippath-24">
      <path class="cls-41" d="M174.28,264.28h.85s.06-.01.08-.03c.02-.02.03-.05.03-.09v-2.98h.85c.08,0,.11-.04.11-.12v-.77c0-.08-.04-.12-.11-.12h-2.77c-.07,0-.11.04-.11.12h0v.77h0c0,.08.04.12.11.12h.85v2.98c0,.08.03.12.1.12"/>
    </clipPath>
    <linearGradient id="linear-gradient-22" x1="84.28" y1="438.32" x2="86.18" y2="438.32" gradientTransform="translate(1342.49 -7736.27) rotate(90) scale(94.6 2.66)" xlink:href="#linear-gradient-2"/>
    <clipPath id="clippath-25">
      <path class="cls-41" d="M178.3,264.38h.06c.2,0,.4-.04.59-.1.2-.06.37-.16.52-.29.15-.13.27-.3.36-.5.09-.2.14-.44.14-.71v-2.49s-.01-.06-.04-.09c-.03-.02-.06-.04-.1-.04h-.8s-.07.01-.09.04c-.02.03-.03.05-.03.09v2.49c0,.09-.01.18-.04.25-.03.08-.06.14-.11.2-.05.06-.11.1-.18.13-.07.03-.15.05-.24.05s-.17-.01-.24-.04c-.07-.03-.14-.07-.19-.12-.05-.05-.09-.12-.12-.2-.03-.08-.04-.17-.04-.27v-2.49s0-.06-.02-.09c-.01-.02-.04-.04-.09-.04h-.84s-.06.01-.08.04c-.02.02-.04.05-.04.08h0v2.5h0c0,.28.05.51.14.7.09.2.22.37.37.5.15.13.33.23.53.3.19.06.39.1.59.1"/>
    </clipPath>
    <linearGradient id="linear-gradient-23" x1="84.28" y1="438.45" x2="86.18" y2="438.45" gradientTransform="translate(1366.82 -7739.79) rotate(90) scale(94.6 2.71)" xlink:href="#linear-gradient-2"/>
    <clipPath id="clippath-26">
      <path class="cls-41" d="M181.82,261.18h.51c.05,0,.1,0,.14.03.04.02.08.04.11.07.03.03.05.07.07.11.02.04.02.08.02.13v.11s0,.09-.02.13c-.02.04-.04.08-.07.11-.03.03-.07.06-.11.07-.04.02-.09.03-.14.03h-.51v-.8ZM180.89,264.28h.82s.06-.01.08-.03c.02-.02.02-.05.02-.09v-1.2h.3l.47,1.2s.04.07.05.09c.02.02.04.02.08.02h1.01s.06-.01.07-.04c0-.03,0-.05,0-.08l-.53-1.18-.15-.23c.09-.06.17-.13.25-.21.08-.08.14-.17.2-.26.06-.09.1-.19.13-.29.03-.1.05-.2.05-.31v-.29c0-.16-.03-.32-.1-.47-.07-.15-.16-.28-.27-.39-.12-.11-.25-.2-.41-.27-.16-.07-.33-.1-.51-.1h-1.54c-.08,0-.12.04-.12.12h0v3.88h0c0,.08.04.12.12.12Z"/>
    </clipPath>
    <linearGradient id="linear-gradient-24" x1="84.28" y1="438.25" x2="86.18" y2="438.25" gradientTransform="translate(1342.48 -7743.77) rotate(90) scale(94.6 2.65)" xlink:href="#linear-gradient-2"/>
    <clipPath id="clippath-27">
      <path class="cls-41" d="M184.55,264.28h2.51c.07,0,.11-.04.11-.12v-.74c0-.08-.04-.12-.12-.12h-1.55v-.56h1.14c.09,0,.13-.04.13-.12v-.77s-.01-.08-.03-.1c-.02-.02-.05-.03-.09-.03h-1.14v-.54h1.51c.07,0,.11-.04.11-.12v-.77c0-.08-.04-.12-.11-.12h-2.45c-.08,0-.12.04-.12.12v3.89c0,.07.04.11.12.11"/>
    </clipPath>
    <linearGradient id="linear-gradient-25" x1="84.28" y1="438.2" x2="86.18" y2="438.2" gradientTransform="translate(1339.38 -7747.23) rotate(90) scale(94.6 2.63)" xlink:href="#linear-gradient-2"/>
    <clipPath id="clippath-28">
      <path class="cls-41" d="M195.55,264.38h.05c.14,0,.27-.02.4-.05.13-.03.26-.08.38-.15.12-.07.23-.15.33-.26.1-.1.19-.23.27-.38.05-.1.04-.18-.04-.22l-.6-.3s-.07-.02-.1-.01c-.02,0-.04.03-.06.05-.06.12-.13.2-.23.25-.1.05-.2.08-.32.08-.1,0-.19-.02-.28-.05-.08-.03-.16-.08-.22-.14-.06-.06-.11-.13-.14-.22-.03-.09-.05-.18-.05-.28v-.96c0-.1.02-.19.05-.28.03-.08.08-.16.14-.22.06-.06.13-.11.22-.14.08-.04.18-.05.28-.05.12,0,.22.03.31.08.09.06.17.14.24.24.02.03.05.05.07.05.03,0,.06,0,.09-.02l.62-.31s.04-.03.05-.07c0-.03,0-.08-.03-.13-.08-.15-.17-.27-.27-.38-.1-.11-.21-.19-.33-.26-.12-.07-.25-.12-.38-.15-.14-.03-.28-.05-.43-.05-.24,0-.47.04-.68.12-.21.08-.39.19-.54.34-.15.14-.27.32-.35.52-.08.2-.13.41-.13.65h0v1.09h0c0,.24.04.46.13.65.09.2.2.36.35.51.15.14.33.25.54.33.2.08.42.11.66.12"/>
    </clipPath>
    <linearGradient id="linear-gradient-26" x1="84.28" y1="438.43" x2="86.18" y2="438.43" gradientTransform="translate(1388.6 -7756.94) rotate(90) scale(94.6 2.72)" xlink:href="#linear-gradient-2"/>
    <clipPath id="clippath-29">
      <path class="cls-41" d="M198.64,261.18h.51c.05,0,.1,0,.14.03.04.02.08.04.11.07.03.03.05.07.07.11.02.04.02.08.02.13v.11s0,.09-.02.13c-.02.04-.04.08-.07.11-.03.03-.06.06-.11.07-.04.02-.09.03-.14.03h-.51v-.8ZM197.71,264.28h.82s.07-.01.08-.03c.01-.02.02-.05.02-.09v-1.2h.3l.47,1.2s.03.07.05.09c.02.02.04.02.08.02h1.01s.06-.01.07-.04c0-.03,0-.05,0-.08l-.53-1.18-.15-.23c.09-.06.17-.13.25-.21.08-.08.14-.17.2-.26.06-.09.1-.19.13-.29.03-.1.05-.2.05-.31v-.29c0-.16-.03-.32-.1-.47-.07-.15-.16-.28-.27-.39-.12-.11-.25-.2-.41-.27-.16-.07-.33-.1-.51-.1h-1.55c-.08,0-.12.04-.12.12h0v3.88h0c0,.08.04.12.12.12Z"/>
    </clipPath>
    <linearGradient id="linear-gradient-27" x1="84.28" y1="438.22" x2="86.18" y2="438.22" gradientTransform="translate(1359.23 -7760.59) rotate(90) scale(94.6 2.65)" xlink:href="#linear-gradient-2"/>
    <clipPath id="clippath-30">
      <path class="cls-41" d="M201.37,264.28h2.51c.07,0,.11-.04.11-.12v-.74c0-.08-.04-.12-.12-.12h-1.55v-.56h1.13c.08,0,.13-.04.13-.12v-.77s-.01-.08-.04-.1c-.02-.02-.05-.03-.09-.03h-1.13v-.54h1.51c.07,0,.11-.04.11-.12v-.77c0-.08-.04-.12-.11-.12h-2.46c-.08,0-.12.04-.12.12v3.89c0,.07.04.11.12.11"/>
    </clipPath>
    <linearGradient id="linear-gradient-28" x1="84.28" y1="438.17" x2="86.18" y2="438.17" gradientTransform="translate(1355.98 -7764.07) rotate(90) scale(94.6 2.63)" xlink:href="#linear-gradient-2"/>
    <clipPath id="clippath-31">
      <path class="cls-41" d="M206.06,261.68l.09-.5.09.5.27,1.07h-.71l.26-1.07ZM204.38,264.28h.91s.07-.01.1-.03c.03-.02.05-.05.06-.09l.1-.42h1.2l.11.42s.03.07.06.09c.03.02.06.03.1.03h.9c.07,0,.1-.04.07-.12l-1.22-3.87c-.03-.08-.08-.12-.16-.12h-.91c-.08,0-.13.04-.16.12l-1.22,3.87c-.03.08,0,.12.07.12Z"/>
    </clipPath>
    <linearGradient id="linear-gradient-29" x1="84.28" y1="438.2" x2="86.18" y2="438.2" gradientTransform="translate(1364.19 -7767.65) rotate(90) scale(94.6 2.64)" xlink:href="#linear-gradient-2"/>
    <clipPath id="clippath-32">
      <path class="cls-41" d="M208.82,264.28h.85s.06-.01.08-.03c.02-.02.03-.05.03-.09v-2.98h.85c.08,0,.11-.04.11-.12v-.77c0-.08-.04-.12-.11-.12h-2.77c-.07,0-.11.04-.11.12h0v.77h0c0,.08.04.12.11.12h.85v2.98c0,.08.03.12.1.12"/>
    </clipPath>
    <linearGradient id="linear-gradient-30" x1="84.28" y1="438.25" x2="86.18" y2="438.25" gradientTransform="translate(1376.65 -7770.74) rotate(90) scale(94.6 2.66)" xlink:href="#linear-gradient-2"/>
    <clipPath id="clippath-33">
      <path class="cls-41" d="M211.37,264.28h.85s.06-.01.08-.03c.01-.02.02-.05.02-.08h0v-3.88h0s0-.07-.02-.09c-.01-.02-.04-.03-.08-.03h-.85c-.08,0-.12.04-.12.12v3.87c0,.08.04.12.12.12"/>
    </clipPath>
    <linearGradient id="linear-gradient-31" x1="84.28" y1="438.22" x2="86.18" y2="438.22" gradientTransform="translate(1375.94 -7773.31) rotate(90) scale(94.6 2.66)" xlink:href="#linear-gradient-2"/>
    <clipPath id="clippath-34">
      <path class="cls-41" d="M214.15,264.28h.92c.08,0,.13-.04.16-.12l1.16-3.87c.03-.08,0-.12-.07-.12h-.9s-.07.01-.1.03c-.03.02-.05.05-.06.09l-.59,2.48-.06.34-.06-.34-.58-2.48s-.03-.07-.06-.09c-.03-.02-.06-.03-.1-.03h-.9c-.08,0-.1.04-.07.12l1.16,3.87c.03.08.08.12.16.12"/>
    </clipPath>
    <linearGradient id="linear-gradient-32" x1="84.28" y1="438.18" x2="86.18" y2="438.18" gradientTransform="translate(1372.45 -7776.09) rotate(90) scale(94.6 2.64)" xlink:href="#linear-gradient-2"/>
    <clipPath id="clippath-35">
      <path class="cls-41" d="M217.02,264.28h.85s.06-.01.08-.03c.01-.02.02-.05.02-.09h0v-3.88h0s0-.07-.02-.09c-.01-.02-.04-.03-.08-.03h-.85c-.08,0-.12.04-.12.12v3.87c0,.08.04.12.12.12"/>
    </clipPath>
    <linearGradient id="linear-gradient-33" x1="84.28" y1="438.21" x2="86.18" y2="438.21" gradientTransform="translate(1381.96 -7778.92) rotate(90) scale(94.6 2.66)" xlink:href="#linear-gradient-2"/>
    <clipPath id="clippath-36">
      <path class="cls-41" d="M219.54,264.28h.85s.06-.01.08-.03c.02-.02.03-.05.03-.09v-2.98h.85c.08,0,.12-.04.12-.12v-.77c0-.08-.04-.12-.12-.12h-2.77c-.07,0-.11.04-.11.12h0v.77h0c0,.08.04.12.11.12h.85v2.98c0,.08.03.12.1.12"/>
    </clipPath>
    <linearGradient id="linear-gradient-34" x1="84.28" y1="438.23" x2="86.18" y2="438.23" gradientTransform="translate(1387.45 -7781.47) rotate(90) scale(94.6 2.66)" xlink:href="#linear-gradient-2"/>
    <clipPath id="clippath-37">
      <path class="cls-41" d="M222.84,264.28h.85c.07,0,.11-.04.11-.12v-1.38l1.17-2.49s.02-.07.01-.09c-.01-.02-.04-.03-.08-.03h-.98s-.07.01-.1.03c-.02.02-.05.05-.06.09l-.42,1.18-.08.36-.08-.36-.43-1.18s-.04-.07-.06-.09c-.02-.02-.06-.03-.1-.03h-.96s-.06.01-.08.03c-.02.02-.01.05,0,.09l1.17,2.48v1.4c0,.08.04.12.11.12"/>
    </clipPath>
    <linearGradient id="linear-gradient-35" x1="84.28" y1="438.16" x2="86.18" y2="438.16" gradientTransform="translate(1381.22 -7784.76) rotate(90) scale(94.6 2.64)" xlink:href="#linear-gradient-2"/>
    <clipPath id="clippath-38">
      <path class="cls-41" d="M233.09,264.38h.05c.14,0,.27-.02.4-.05.14-.03.26-.08.38-.15.12-.07.23-.15.33-.26.1-.1.19-.23.27-.38.05-.1.04-.18-.04-.22l-.6-.3s-.07-.02-.1-.01c-.03,0-.05.03-.06.05-.06.12-.13.2-.23.25-.1.05-.2.08-.32.08-.1,0-.19-.02-.28-.05-.08-.03-.16-.08-.22-.14-.06-.06-.11-.13-.14-.22-.04-.09-.05-.18-.05-.28v-.96c0-.1.02-.19.05-.28.03-.08.08-.16.14-.22.06-.06.13-.11.22-.14.08-.04.18-.05.28-.05.12,0,.22.03.31.08.09.06.17.14.24.24.02.03.05.05.08.05.03,0,.06,0,.09-.02l.62-.31s.04-.03.05-.07c0-.03,0-.08-.03-.13-.08-.15-.17-.27-.27-.38-.1-.11-.21-.19-.33-.26-.12-.07-.25-.12-.38-.15-.14-.03-.28-.05-.43-.05-.24,0-.47.04-.68.12-.21.08-.39.19-.54.34-.15.14-.27.32-.35.52-.09.2-.13.42-.13.66v1.08c0,.24.04.45.13.65.09.2.2.36.35.51s.33.25.54.33c.2.08.42.11.66.12"/>
    </clipPath>
    <linearGradient id="linear-gradient-36" x1="84.28" y1="438.36" x2="86.18" y2="438.36" gradientTransform="translate(1426.02 -7794.5) rotate(90) scale(94.6 2.72)" xlink:href="#linear-gradient-2"/>
    <clipPath id="clippath-39">
      <path class="cls-41" d="M236.72,264.38h.06c.2,0,.4-.04.59-.1.2-.06.37-.16.52-.29.15-.13.27-.3.36-.5.09-.2.14-.44.14-.71v-2.49s-.01-.06-.04-.09c-.03-.02-.06-.04-.1-.04h-.8s-.07.01-.09.04c-.02.03-.03.05-.03.09v2.49c0,.09-.01.18-.04.25-.03.08-.06.14-.11.2-.05.06-.11.1-.18.13-.07.03-.15.05-.25.05s-.17-.01-.24-.04c-.07-.03-.13-.07-.19-.12-.05-.05-.09-.12-.12-.2-.03-.08-.04-.17-.04-.27v-2.49s0-.06-.02-.09c-.02-.02-.05-.04-.09-.04h-.84s-.06.01-.08.04c-.02.02-.04.05-.04.08h0v2.5h0c0,.28.05.51.14.7.09.2.22.37.37.5.15.13.33.23.53.3.19.06.39.1.59.1"/>
    </clipPath>
    <linearGradient id="linear-gradient-37" x1="84.28" y1="438.29" x2="86.18" y2="438.29" gradientTransform="translate(1417.46 -7798.21) rotate(90) scale(94.6 2.69)" xlink:href="#linear-gradient-2"/>
    <clipPath id="clippath-40">
      <path class="cls-41" d="M240.23,261.18h.51c.05,0,.1,0,.14.03.04.02.08.04.11.07.03.03.05.07.07.11.02.04.03.08.03.13v.11s0,.09-.03.13c-.02.04-.04.08-.07.11-.03.03-.07.06-.11.07-.04.02-.09.03-.14.03h-.51v-.8ZM239.31,264.28h.82s.07-.01.08-.03c.01-.02.02-.05.02-.09v-1.2h.3l.47,1.2s.04.07.05.09c.02.02.04.02.08.02h1.01s.06-.01.07-.04c0-.03,0-.05,0-.08l-.53-1.18-.15-.23c.09-.06.17-.13.25-.21.08-.08.14-.17.2-.26.06-.09.1-.19.13-.29.03-.1.05-.2.05-.31v-.29c0-.16-.03-.32-.1-.47-.07-.15-.16-.28-.27-.39-.12-.11-.25-.2-.41-.27-.16-.07-.33-.1-.51-.1h-1.54c-.08,0-.12.04-.12.12h0v3.88h0c0,.08.04.12.12.12Z"/>
    </clipPath>
    <linearGradient id="linear-gradient-38" x1="84.28" y1="438.14" x2="86.18" y2="438.14" gradientTransform="translate(1400.61 -7802.18) rotate(90) scale(94.6 2.65)" xlink:href="#linear-gradient-2"/>
    <clipPath id="clippath-41">
      <path class="cls-41" d="M242.97,264.28h.85s.06-.01.08-.03c.01-.02.02-.05.02-.08h0v-3.88h0s0-.07-.02-.09c-.01-.02-.04-.03-.08-.03h-.85c-.08,0-.12.04-.12.12v3.87c0,.08.04.12.12.12"/>
    </clipPath>
    <linearGradient id="linear-gradient-39" x1="84.28" y1="438.16" x2="86.18" y2="438.16" gradientTransform="translate(1407.55 -7804.9) rotate(90) scale(94.6 2.66)" xlink:href="#linear-gradient-2"/>
    <clipPath id="clippath-42">
      <path class="cls-41" d="M246.01,263.35c-.08-.03-.15-.08-.21-.14-.06-.06-.1-.13-.13-.22-.03-.09-.05-.18-.05-.28v-.96c0-.1.02-.19.05-.28.03-.08.08-.16.13-.22.06-.06.13-.11.21-.14.08-.04.17-.05.27-.05s.19.02.27.05c.08.03.15.08.21.14.06.06.1.13.13.22.03.09.05.18.05.28v.96c0,.1-.02.19-.05.28-.03.08-.08.16-.13.22-.06.06-.13.11-.21.14-.08.04-.17.05-.27.05s-.19-.02-.27-.05ZM246.26,264.38h.05c.23,0,.45-.04.66-.12.21-.08.39-.19.55-.33.16-.14.28-.31.37-.51.09-.2.13-.41.13-.65v-1.11c0-.24-.04-.45-.13-.65-.09-.2-.21-.37-.37-.51-.16-.14-.34-.25-.55-.33-.21-.08-.44-.12-.68-.12s-.47.04-.68.12c-.21.08-.39.19-.55.33-.16.14-.28.31-.37.51-.09.19-.13.41-.13.64h0v1.12h0c0,.24.05.46.13.65.09.2.21.36.37.51.15.14.34.25.55.33.2.08.42.11.66.12Z"/>
    </clipPath>
    <linearGradient id="linear-gradient-40" x1="84.28" y1="438.35" x2="86.18" y2="438.35" gradientTransform="translate(1441.52 -7807.75) rotate(90) scale(94.6 2.73)" xlink:href="#linear-gradient-2"/>
    <clipPath id="clippath-43">
      <path class="cls-41" d="M249.88,264.38h.06c.2,0,.39-.03.56-.09.18-.06.34-.15.47-.26.13-.11.23-.25.3-.41.07-.16.11-.33.11-.52s-.03-.34-.09-.48c-.06-.14-.15-.27-.26-.38-.11-.11-.26-.21-.42-.31-.17-.09-.35-.18-.56-.27-.09-.04-.17-.07-.23-.11-.06-.03-.11-.07-.14-.1-.03-.03-.06-.06-.07-.09-.01-.03-.02-.06-.02-.09,0-.04.01-.07.03-.1.02-.03.05-.05.08-.07.04-.02.08-.03.13-.04.05,0,.1-.01.16-.01.11,0,.21.02.3.06.09.04.17.1.23.18.04.05.07.08.11.09.03,0,.07,0,.12-.02l.57-.28c.05-.02.08-.06.07-.1,0-.05-.02-.1-.05-.16-.08-.14-.18-.26-.29-.36-.11-.1-.22-.17-.35-.23-.12-.06-.25-.1-.38-.12-.13-.02-.27-.04-.4-.04-.21,0-.4.03-.57.09-.17.06-.32.14-.44.24-.12.1-.22.23-.29.37-.07.14-.1.3-.1.48,0,.13.01.24.04.36.03.11.07.22.14.32.07.1.16.2.27.29.12.09.26.18.44.27.15.07.28.14.39.19.11.05.21.1.29.15.08.05.14.09.18.14.04.05.06.1.06.16,0,.09-.04.16-.12.21-.08.05-.18.07-.3.07-.07,0-.13-.01-.19-.03-.06-.02-.12-.05-.18-.09-.06-.04-.11-.08-.15-.12-.04-.04-.08-.09-.1-.14-.03-.05-.06-.08-.09-.09-.03-.01-.06-.01-.09,0l-.65.35c-.05.03-.08.06-.07.1,0,.04.03.1.06.15.06.12.15.23.24.33.1.1.21.19.34.26.13.07.27.13.42.17.14.04.29.06.45.06"/>
    </clipPath>
    <linearGradient id="linear-gradient-41" x1="84.28" y1="438.39" x2="86.18" y2="438.39" gradientTransform="translate(1452.79 -7811.4) rotate(90) scale(94.6 2.74)" xlink:href="#linear-gradient-2"/>
    <clipPath id="clippath-44">
      <path class="cls-41" d="M252.1,264.28h.85s.06-.01.08-.03c.01-.02.02-.05.02-.08h0v-3.88h0s0-.07-.02-.09c-.01-.02-.04-.03-.08-.03h-.85c-.08,0-.12.04-.12.12v3.87c0,.08.04.12.12.12"/>
    </clipPath>
    <linearGradient id="linear-gradient-42" x1="84.28" y1="438.14" x2="86.18" y2="438.14" gradientTransform="translate(1416.46 -7814.04) rotate(90) scale(94.6 2.66)" xlink:href="#linear-gradient-2"/>
    <clipPath id="clippath-45">
      <path class="cls-41" d="M254.63,264.28h.85s.06-.01.08-.03c.02-.02.03-.05.03-.09v-2.98h.85c.07,0,.11-.04.11-.12h0v-.77h0c0-.08-.04-.12-.11-.12h-2.77c-.07,0-.11.04-.11.12v.77c0,.08.04.12.11.12h.85v2.98c0,.08.03.12.1.12"/>
    </clipPath>
    <linearGradient id="linear-gradient-43" x1="84.28" y1="438.16" x2="86.18" y2="438.16" gradientTransform="translate(1422.47 -7816.55) rotate(90) scale(94.6 2.66)" xlink:href="#linear-gradient-2"/>
    <clipPath id="clippath-46">
      <path class="cls-41" d="M257.92,264.28h.85c.07,0,.11-.04.11-.12v-1.38l1.17-2.49s.02-.07.01-.09c-.01-.02-.04-.03-.08-.03h-.98s-.07.01-.1.03c-.02.02-.05.05-.06.09l-.42,1.18-.08.36-.08-.36-.43-1.18s-.04-.07-.06-.09c-.02-.02-.06-.03-.1-.03h-.96s-.06.01-.08.03c-.02.02-.01.05,0,.09l1.17,2.48v1.4c0,.08.04.12.11.12"/>
    </clipPath>
    <linearGradient id="linear-gradient-44" x1="84.28" y1="438.1" x2="86.18" y2="438.1" gradientTransform="translate(1416.12 -7819.82) rotate(90) scale(94.6 2.64)" xlink:href="#linear-gradient-2"/>
  </defs>
  <path class="cls-31" d="M184.24,54.72c-5.42-5.81-8.73-13.61-8.73-22.18,0-17.97,14.57-32.54,32.54-32.54s32.54,14.57,32.54,32.54c0,8.57-3.31,16.37-8.73,22.18l81.43,126.79h57.19l-61.93,342.41H107.55L45.62,181.51h57.19l81.43-126.79Z"/>
  <g class="cls-98">
    <rect class="cls-94" x="61.1" y="219.87" width="293.92" height="294.55" transform="translate(-199.11 256.25) rotate(-45.23)"/>
  </g>
  <polygon class="cls-37" points="340.49 291.52 336.4 314.14 79.71 314.14 75.62 291.52 340.49 291.52"/>
  <g class="cls-66">
    <rect class="cls-16" x="187.92" y="10.78" width="40.28" height="40.28" transform="translate(-1.14 52.79) rotate(-14.42)"/>
  </g>
  <g class="cls-15">
    <rect class="cls-49" x="128.83" y="38.45" width="158.46" height="137.66" transform="translate(-21.17 59.81) rotate(-15.58)"/>
  </g>
  <g class="cls-59">
    <g class="cls-7">
      <rect class="cls-42" x="188.14" y="124.8" width="39.83" height="70.18" transform="translate(-33.27 56.85) rotate(-14.42)"/>
    </g>
  </g>
  <g class="cls-8">
    <rect class="cls-51" x="245.32" y="221.58" width="34.85" height="37.27" transform="translate(-70.34 114.55) rotate(-21.76)"/>
  </g>
  <g class="cls-62">
    <rect class="cls-81" x="106.12" y="208.3" width="51.47" height="58.1" transform="translate(-78.61 65.81) rotate(-21.76)"/>
  </g>
  <g class="cls-27">
    <rect class="cls-74" x="182.83" y="221.91" width="34" height="36.43" transform="translate(-74.79 91.21) rotate(-21.76)"/>
  </g>
  <g class="cls-28">
    <rect class="cls-63" x="136.94" y="222.19" width="32.78" height="36.19" transform="translate(-78.16 73.98) rotate(-21.76)"/>
  </g>
  <g class="cls-39">
    <rect class="cls-77" x="219.72" y="221.91" width="34.3" height="36.58" transform="translate(-72.18 104.95) rotate(-21.76)"/>
  </g>
  <g class="cls-68">
    <rect class="cls-21" x="270.18" y="211.97" width="38.25" height="46.02" transform="translate(-66.51 124.02) rotate(-21.76)"/>
  </g>
  <g class="cls-92">
    <rect class="cls-78" x="162.33" y="223.4" width="28.02" height="33.72" transform="translate(-76.51 82.51) rotate(-21.76)"/>
  </g>
  <g class="cls-70">
    <rect class="cls-22" x="209.68" y="225.28" width="17.32" height="29.65" transform="translate(-73.46 98.07) rotate(-21.76)"/>
  </g>
  <g class="cls-12">
    <rect class="cls-3" x="213.64" y="214.32" width="9.4" height="9.22" transform="translate(-67.03 337.97) rotate(-67.72)"/>
  </g>
  <g class="cls-87">
    <rect class="cls-69" x="155.34" y="201.77" width="19.4" height="22.58" transform="translate(-67.24 76.38) rotate(-21.76)"/>
  </g>
  <g class="cls-9">
    <rect class="cls-2" x="171.3" y="202.18" width="18.99" height="21.75" transform="translate(-66.11 82.22) rotate(-21.76)"/>
  </g>
  <g class="cls-14">
    <rect class="cls-93" x="186.97" y="202.39" width="17.92" height="21.32" transform="translate(-65.03 87.84) rotate(-21.76)"/>
  </g>
  <g class="cls-76">
    <rect class="cls-73" x="231.5" y="201.11" width="24.39" height="23.91" transform="translate(-61.63 105.55) rotate(-21.76)"/>
  </g>
  <g class="cls-60">
    <rect class="cls-100" x="200.48" y="195.07" width="34.98" height="31.57" transform="translate(-62.65 95.85) rotate(-21.76)"/>
  </g>
  <g class="cls-6">
    <rect class="cls-80" x="162.55" y="260.63" width="4.33" height="3.19" transform="translate(-98.3 425.67) rotate(-89.72)"/>
  </g>
  <g class="cls-17">
    <rect class="cls-72" x="166.33" y="260.61" width="4.23" height="3.33" transform="translate(-94.67 429.4) rotate(-89.71)"/>
  </g>
  <g class="cls-18">
    <rect class="cls-86" x="170.05" y="261.01" width="4.13" height="2.43" transform="translate(-91 432.98) rotate(-89.7)"/>
  </g>
  <g class="cls-95">
    <rect class="cls-53" x="172.65" y="260.72" width="4.13" height="3.02" transform="translate(-88.42 435.55) rotate(-89.7)"/>
  </g>
  <g class="cls-34">
    <rect class="cls-96" x="176.2" y="260.61" width="4.23" height="3.33" transform="translate(-84.89 439.21) rotate(-89.7)"/>
  </g>
  <g class="cls-67">
    <rect class="cls-55" x="180.23" y="260.7" width="4.13" height="3.05" transform="translate(-80.86 443.18) rotate(-89.71)"/>
  </g>
  <g class="cls-35">
    <rect class="cls-20" x="183.73" y="260.85" width="4.13" height="2.75" transform="translate(-77.34 446.73) rotate(-89.72)"/>
  </g>
  <g class="cls-47">
    <rect class="cls-38" x="193.29" y="260.63" width="4.33" height="3.18" transform="translate(-67.71 456.41) rotate(-89.72)"/>
  </g>
  <g class="cls-88">
    <rect class="cls-24" x="197.05" y="260.7" width="4.13" height="3.05" transform="translate(-64.12 460) rotate(-89.71)"/>
  </g>
  <g class="cls-75">
    <rect class="cls-4" x="200.56" y="260.85" width="4.13" height="2.75" transform="translate(-60.6 463.55) rotate(-89.72)"/>
  </g>
  <g class="cls-11">
    <rect class="cls-71" x="204.09" y="260.35" width="4.14" height="3.75" transform="translate(-57.11 467.05) rotate(-89.71)"/>
  </g>
  <g class="cls-79">
    <rect class="cls-44" x="207.18" y="260.72" width="4.13" height="3.02" transform="translate(-54.07 470.09) rotate(-89.7)"/>
  </g>
  <g class="cls-13">
    <rect class="cls-97" x="209.73" y="261.68" width="4.12" height="1.09" transform="translate(-51.54 472.64) rotate(-89.7)"/>
  </g>
  <g class="cls-1">
    <rect class="cls-89" x="212.54" y="260.41" width="4.14" height="3.64" transform="translate(-48.69 475.51) rotate(-89.71)"/>
  </g>
  <g class="cls-46">
    <rect class="cls-61" x="215.37" y="261.68" width="4.12" height="1.09" transform="translate(-45.91 478.29) rotate(-89.7)"/>
  </g>
  <g class="cls-45">
    <rect class="cls-50" x="217.91" y="260.72" width="4.13" height="3.02" transform="translate(-43.4 480.82) rotate(-89.7)"/>
  </g>
  <g class="cls-90">
    <rect class="cls-43" x="221.19" y="260.48" width="4.14" height="3.48" transform="translate(-40.09 484.16) rotate(-89.71)"/>
  </g>
  <g class="cls-5">
    <rect class="cls-85" x="230.83" y="260.63" width="4.33" height="3.18" transform="translate(-30.35 493.96) rotate(-89.72)"/>
  </g>
  <g class="cls-84">
    <rect class="cls-26" x="234.62" y="260.61" width="4.23" height="3.32" transform="translate(-26.73 497.68) rotate(-89.71)"/>
  </g>
  <g class="cls-58">
    <rect class="cls-52" x="238.64" y="260.7" width="4.13" height="3.05" transform="translate(-22.74 501.6) rotate(-89.71)"/>
  </g>
  <g class="cls-65">
    <rect class="cls-32" x="241.32" y="261.68" width="4.12" height="1.09" transform="translate(-20.11 504.23) rotate(-89.7)"/>
  </g>
  <g class="cls-29">
    <rect class="cls-23" x="244.12" y="260.49" width="4.33" height="3.48" transform="translate(-17.14 507.23) rotate(-89.72)"/>
  </g>
  <g class="cls-33">
    <rect class="cls-91" x="247.72" y="260.7" width="4.33" height="3.04" transform="translate(-13.6 510.78) rotate(-89.71)"/>
  </g>
  <g class="cls-99">
    <rect class="cls-10" x="250.46" y="261.68" width="4.12" height="1.09" transform="translate(-11.02 513.37) rotate(-89.7)"/>
  </g>
  <g class="cls-56">
    <rect class="cls-19" x="252.99" y="260.72" width="4.13" height="3.02" transform="translate(-8.5 515.9) rotate(-89.7)"/>
  </g>
  <g class="cls-57">
    <rect class="cls-48" x="256.28" y="260.48" width="4.14" height="3.48" transform="translate(-5.18 519.24) rotate(-89.71)"/>
  </g>
  <path class="cls-54" d="M192.61,262.11c0,.93-.75,1.68-1.68,1.68s-1.68-.75-1.68-1.68.75-1.68,1.68-1.68,1.68.75,1.68,1.68"/>
  <path class="cls-82" d="M229.95,262.11c0,.93-.75,1.68-1.68,1.68s-1.68-.75-1.68-1.68.75-1.68,1.68-1.68,1.68.75,1.68,1.68"/>
  <path class="cls-36" d="M207.76,274.03c-34.83,0-65.67-6.41-84.63-16.27,14.68,13.53,47.05,22.93,84.63,22.93s69.95-9.4,84.63-22.93c-18.96,9.85-49.8,16.27-84.63,16.27"/>
  <path class="cls-64" d="M227.03,477.65c-.77,0-1.47-.14-2.12-.39-.65-.26-1.21-.64-1.7-1.13-.48-.5-.85-1.09-1.12-1.78-.26-.69-.4-1.48-.41-2.34,0-.86.14-1.65.41-2.34.27-.69.64-1.29,1.12-1.78.48-.49,1.05-.87,1.7-1.13.65-.26,1.35-.39,2.12-.39s1.49.14,2.14.39c.65.27,1.22.64,1.71,1.13.49.5.86,1.09,1.13,1.78.26.69.4,1.48.41,2.34,0,.86-.14,1.65-.41,2.34-.27.69-.64,1.29-1.13,1.78-.48.49-1.05.87-1.71,1.13-.65.26-1.36.39-2.14.39M227.03,481.27c1.41,0,2.7-.24,3.87-.69,1.18-.45,2.19-1.09,3.06-1.92.86-.83,1.52-1.8,2-2.93.47-1.13.71-2.37.72-3.73,0-1.36-.24-2.6-.72-3.73-.47-1.13-1.14-2.1-2-2.92-.86-.82-1.88-1.46-3.06-1.91-1.17-.45-2.46-.68-3.87-.68-1.39,0-2.67.23-3.84.68-1.17.45-2.18,1.08-3.05,1.91-.86.82-1.53,1.79-2,2.92-.47,1.13-.72,2.37-.72,3.73,0,1.36.25,2.61.72,3.73.47,1.13,1.14,2.1,2,2.93.86.83,1.88,1.47,3.05,1.92,1.17.45,2.45.68,3.84.69ZM212.93,481.04l-.03-23.68h-3.62l-9.24,15.7-9.41-15.7h-3.62v23.68h4.19v-15.5l7.78,12.79h1.96l7.78-12.99.03,15.7h4.16ZM172.4,478.19c-1.09-.01-1.93-.24-2.54-.68-.6-.44-.91-1.05-.91-1.82,0-.45.1-.85.31-1.21.21-.36.59-.65,1.12-.86.54-.21,1.27-.32,2.23-.33h4.36v2.1c-.24.62-.59,1.14-1.04,1.56-.45.42-.98.73-1.58.94-.6.21-1.25.32-1.94.32ZM172.97,462.77c-.98,0-1.92.08-2.85.25-.92.16-1.79.41-2.6.74-.81.33-1.55.74-2.19,1.24l1.66,3.08c.46-.37.98-.69,1.57-.96.59-.26,1.22-.47,1.88-.61.67-.14,1.34-.21,2.02-.21,1.51,0,2.63.36,3.38,1.04.75.68,1.12,1.64,1.12,2.89v.27h-4.67c-1.36,0-2.53.14-3.48.42-.96.27-1.73.65-2.32,1.14-.6.48-1.03,1.05-1.3,1.71-.28.65-.41,1.35-.41,2.11,0,1.06.28,1.99.83,2.8.55.81,1.32,1.44,2.32,1.91,1,.46,2.2.69,3.58.7,1.36,0,2.51-.21,3.48-.64.96-.42,1.69-1.01,2.2-1.8v2.2h3.99v-10.59c0-1.74-.33-3.17-.98-4.31-.64-1.13-1.57-1.98-2.8-2.54-1.22-.56-2.71-.83-4.45-.83ZM155.75,457.35v16.04l-13.06-16.04h-3.62v23.68h4.36v-16.04l13.06,16.04h3.62v-23.68h-4.36Z"/>
  <path class="cls-83" d="M275.82,481.04h4.4v-23.68h-4.4v23.68ZM255.49,472.1l4.43-10.35,4.47,10.35h-8.9ZM268.21,481.04h4.6l-10.69-23.68h-4.33l-10.66,23.68h4.53l2.33-5.48h11.84l2.37,5.48Z"/>
  <path class="cls-25" d="M250.07,510.6v-9.47h-1.12l-3.9,6.66-3.95-6.66h-1.11v9.47h1.3v-6.86l3.42,5.71h.62l3.42-5.75v6.9h1.31ZM232.15,510.6h1.35v-9.47h-1.35v9.47ZM223.72,507.15l2.04-4.64,2.04,4.64h-4.09ZM229.32,510.6h1.42l-4.3-9.47h-1.34l-4.29,9.47h1.39l1.04-2.37h5.03l1.04,2.37ZM212.26,509.55c-.35,0-.67-.06-.96-.18-.29-.12-.55-.29-.77-.51-.22-.22-.39-.49-.51-.8-.12-.31-.18-.66-.18-1.04,0-.38.06-.73.18-1.04.12-.31.29-.57.51-.79.22-.22.48-.39.77-.51.29-.12.61-.18.96-.18s.66.06.95.18c.29.12.55.29.76.51.22.22.39.48.51.79.12.31.18.66.18,1.04,0,.38-.06.73-.18,1.04-.12.31-.29.58-.51.8-.22.22-.47.39-.76.51-.29.12-.61.18-.95.18ZM214.66,500.56v3.95c-.3-.39-.67-.67-1.09-.86-.43-.19-.9-.29-1.41-.29-.53,0-1.01.09-1.45.26-.44.17-.82.42-1.15.74-.32.32-.58.71-.75,1.15-.18.45-.27.94-.27,1.49,0,.55.09,1.05.27,1.5.18.45.43.83.75,1.16.32.32.71.57,1.15.75.44.17.92.26,1.45.26.35,0,.69-.04,1-.14.32-.09.6-.23.87-.41.26-.18.49-.41.69-.68v1.14h1.25v-10.04h-1.3ZM203.81,503.36c-.57,0-1.08.1-1.52.3-.44.2-.8.48-1.06.85v-1.08h-1.24v7.17h1.3v-3.69c0-.52.1-.96.28-1.31.19-.35.45-.62.79-.8.34-.18.74-.27,1.2-.27.62,0,1.1.17,1.43.52.33.35.5.87.51,1.58v3.98h1.3v-4.13c0-.53-.07-.99-.22-1.38-.14-.39-.35-.71-.62-.97-.26-.26-.58-.45-.94-.57-.36-.13-.76-.19-1.2-.19ZM194.2,509.68c-.33,0-.61-.05-.85-.14-.23-.09-.41-.23-.54-.4-.13-.17-.19-.38-.19-.62,0-.2.04-.39.14-.56.1-.17.27-.3.51-.4.24-.1.57-.15,1-.15h2v1c-.11.28-.26.51-.46.7-.2.19-.44.33-.71.43-.27.1-.57.15-.9.15ZM194.5,503.36c-.39,0-.76.04-1.11.11-.36.07-.69.17-1.01.31-.31.14-.59.3-.84.5l.54.97c.19-.16.4-.3.65-.41.24-.12.5-.2.78-.27.28-.06.56-.09.85-.09.64,0,1.12.16,1.44.46.32.3.48.72.48,1.28v.26h-2.06c-.53,0-.98.06-1.35.17-.37.11-.66.26-.89.45-.23.19-.39.41-.49.66-.1.25-.15.53-.15.81,0,.42.11.78.33,1.1.21.32.52.56.92.74.4.18.87.27,1.41.27.56,0,1.04-.09,1.44-.27.39-.18.7-.43.92-.76v.95h1.23v-4.33c0-.65-.12-1.2-.36-1.63-.24-.43-.59-.75-1.04-.97-.46-.21-1.01-.32-1.67-.32ZM183.52,510.68c.64,0,1.19-.09,1.65-.26.46-.17.82-.42,1.07-.73.25-.32.38-.69.38-1.13,0-.34-.07-.63-.2-.86-.13-.23-.3-.42-.51-.56-.22-.14-.46-.26-.73-.34-.27-.08-.55-.15-.83-.2-.29-.05-.57-.1-.83-.15-.27-.05-.51-.11-.73-.18-.22-.07-.39-.17-.51-.3-.13-.13-.19-.3-.2-.51,0-.19.06-.36.18-.51.12-.15.31-.26.56-.35.25-.08.56-.13.94-.13.35,0,.71.04,1.05.13.35.09.69.23,1.02.44l.55-1.03c-.21-.14-.46-.25-.75-.35-.29-.1-.59-.17-.91-.22-.32-.05-.64-.08-.95-.08-.62,0-1.15.09-1.59.27-.45.18-.79.43-1.03.75-.24.32-.36.7-.37,1.13,0,.35.07.65.19.89.13.23.3.43.51.57.22.15.46.26.73.35.27.08.55.15.83.2.29.05.56.1.83.14.27.05.51.1.73.17.22.07.39.16.51.28.13.12.19.28.19.48,0,.2-.06.38-.17.52-.12.14-.3.26-.55.33-.25.08-.57.12-.98.12-.31,0-.63-.03-.93-.1-.31-.06-.6-.15-.87-.26-.27-.11-.51-.24-.72-.39l-.54,1.03c.2.16.46.3.77.43.31.13.65.23,1.03.3.38.07.76.11,1.17.11ZM176.87,510.68c.43,0,.83-.06,1.2-.18.37-.12.7-.29,1-.52.29-.23.53-.51.72-.85l-.99-.62c-.23.35-.52.61-.85.78-.34.17-.7.25-1.1.25-.35,0-.68-.06-.98-.18-.3-.12-.56-.29-.78-.51-.22-.22-.39-.49-.52-.8-.12-.31-.18-.66-.19-1.05,0-.38.06-.73.19-1.04.12-.31.3-.57.52-.79.22-.22.48-.39.78-.51.3-.12.62-.18.98-.18.39,0,.76.08,1.1.25.33.17.62.43.85.78l.99-.64c-.19-.33-.43-.62-.72-.84-.29-.23-.62-.4-1-.51-.37-.12-.77-.17-1.2-.17-.55,0-1.06.09-1.52.27-.46.18-.86.43-1.2.75-.34.33-.6.71-.78,1.16-.19.44-.28.94-.28,1.47,0,.54.1,1.03.28,1.48.18.45.45.83.78,1.16.34.33.74.58,1.2.76.46.18.97.27,1.52.27ZM169.97,510.6h1.3v-7.17h-1.3v7.17ZM170.61,502.05c.17,0,.32-.04.46-.12.13-.07.24-.18.31-.31.07-.13.11-.28.11-.44,0-.16-.04-.3-.12-.42-.08-.12-.18-.22-.31-.3-.13-.07-.28-.11-.45-.11-.17,0-.32.04-.45.11-.13.08-.23.18-.31.31-.08.13-.11.27-.12.43,0,.16.04.3.12.43.08.12.18.23.31.3.13.07.28.11.45.11ZM167.99,509.25c-.14.11-.29.19-.47.25s-.36.09-.55.09c-.36,0-.64-.11-.83-.31-.19-.21-.29-.5-.29-.89v-3.88h2.06v-1.07h-2.06v-1.57h-1.3v1.57h-1.22v1.07h1.22v3.94c0,.48.09.89.27,1.23.18.33.43.59.77.76.34.17.75.26,1.23.26.2,0,.39-.02.58-.05.19-.04.37-.09.54-.17.17-.07.32-.17.45-.28l-.41-.93ZM158.84,509.55c-.35,0-.67-.06-.96-.18-.29-.12-.55-.29-.77-.51-.22-.22-.39-.49-.51-.8-.12-.31-.18-.66-.18-1.04,0-.38.06-.73.18-1.04.12-.31.29-.57.51-.79.22-.22.48-.39.77-.51.29-.12.61-.18.96-.18s.67.06.96.18c.29.12.55.29.76.51.22.22.38.48.5.79.12.31.18.66.18,1.04,0,.38-.06.73-.18,1.04-.12.31-.29.58-.5.8-.22.22-.47.39-.76.51-.29.12-.61.18-.96.18ZM158.84,510.68c.54,0,1.04-.09,1.49-.27.45-.18.85-.43,1.18-.76.33-.33.59-.71.77-1.16.18-.45.28-.94.28-1.48,0-.54-.09-1.03-.28-1.47-.18-.44-.44-.83-.77-1.16-.33-.32-.73-.57-1.18-.75-.45-.18-.95-.27-1.49-.27-.54,0-1.04.09-1.49.27-.45.18-.85.43-1.18.75-.33.33-.59.71-.78,1.16-.19.44-.28.94-.28,1.47,0,.54.1,1.03.28,1.48.18.45.44.83.78,1.16.34.33.73.58,1.18.76.45.18.95.27,1.49.27ZM150.24,509.55c-.34,0-.66-.06-.95-.18-.29-.12-.55-.29-.76-.51-.22-.22-.39-.49-.51-.8-.12-.31-.18-.66-.18-1.04,0-.38.06-.73.18-1.04.12-.31.29-.57.51-.79.22-.22.47-.39.76-.51.29-.12.61-.18.95-.18s.67.06.96.18c.29.12.55.29.77.51.22.22.39.48.51.79.12.31.18.66.18,1.04,0,.38-.06.73-.18,1.04-.12.31-.29.58-.51.8-.22.22-.48.39-.77.51-.29.12-.61.18-.96.18ZM150.35,503.36c-.51,0-.98.09-1.41.29-.43.19-.79.48-1.09.86v-3.95h-1.3v10.04h1.24v-1.14c.2.27.42.5.69.68.26.18.55.32.87.41.32.09.65.14,1,.14.53,0,1.01-.09,1.45-.26.44-.18.82-.42,1.15-.75.32-.32.57-.71.76-1.16.18-.45.27-.95.27-1.5,0-.55-.09-1.05-.27-1.49-.18-.45-.43-.83-.76-1.15-.32-.32-.71-.57-1.15-.74-.44-.17-.92-.26-1.45-.26ZM141.02,509.55c-.35,0-.67-.06-.96-.18-.29-.12-.55-.29-.77-.51-.22-.22-.39-.49-.51-.8-.12-.31-.18-.66-.18-1.04,0-.38.06-.73.18-1.04.12-.31.29-.57.51-.79.22-.22.48-.39.77-.51.29-.12.61-.18.96-.18s.67.06.96.18c.29.12.55.29.76.51.22.22.38.48.5.79.12.31.18.66.18,1.04,0,.38-.06.73-.18,1.04-.12.31-.29.58-.5.8-.22.22-.47.39-.76.51-.29.12-.61.18-.96.18ZM141.02,510.68c.54,0,1.04-.09,1.49-.27.45-.18.85-.43,1.18-.76.33-.33.59-.71.77-1.16.18-.45.28-.94.28-1.48,0-.54-.09-1.03-.28-1.47-.18-.44-.44-.83-.77-1.16-.33-.32-.73-.57-1.18-.75-.45-.18-.95-.27-1.49-.27-.54,0-1.04.09-1.49.27-.45.18-.85.43-1.18.75-.33.33-.59.71-.78,1.16-.18.44-.28.94-.28,1.47,0,.54.1,1.03.28,1.48.18.45.44.83.78,1.16.34.33.73.58,1.18.76.45.18.95.27,1.49.27ZM131.96,506.57h-2.3v-4.26h2.3c.58,0,1.06.08,1.45.25.39.16.69.41.88.72.2.32.3.7.3,1.15s-.1.84-.3,1.15c-.2.32-.49.56-.88.73-.39.17-.88.25-1.45.25ZM136.11,510.6l-2.25-3.18c.44-.16.82-.38,1.13-.66.31-.28.55-.62.71-1.01.16-.39.25-.83.25-1.32,0-.69-.16-1.28-.48-1.77-.32-.49-.77-.87-1.36-1.13-.59-.26-1.29-.4-2.12-.4h-3.69v9.47h1.35v-2.88h2.34c.1,0,.2,0,.3,0,.1,0,.2-.01.29-.02l2.04,2.91h1.47ZM265.11,491.91v-1.2h-1.24v7.17h1.3v-3.57c0-.52.09-.97.27-1.33.18-.36.44-.63.78-.82.34-.19.74-.28,1.2-.28.05,0,.09,0,.14,0,.05,0,.1,0,.15.01v-1.26c-.63,0-1.17.11-1.61.32-.44.21-.77.53-1.01.95ZM258.09,496.96c-.33,0-.61-.05-.85-.14-.23-.09-.41-.23-.54-.4-.13-.17-.19-.38-.19-.62,0-.21.04-.39.14-.56.1-.17.27-.3.51-.4.24-.1.57-.15,1-.15h2v1c-.11.27-.26.51-.46.7-.2.19-.44.33-.71.43-.27.1-.57.15-.9.15ZM258.39,490.64c-.39,0-.76.04-1.11.11-.36.07-.69.17-1.01.31-.31.14-.59.3-.84.5l.54.97c.19-.16.4-.29.65-.41.24-.11.5-.2.78-.27.28-.06.56-.09.85-.09.64,0,1.12.16,1.44.46s.48.72.48,1.28v.26h-2.06c-.53,0-.98.06-1.35.17-.37.11-.66.26-.89.45-.23.19-.39.41-.49.67-.1.25-.15.53-.15.81,0,.42.11.78.33,1.1.21.32.52.56.92.74.4.18.87.27,1.41.27.56,0,1.04-.09,1.44-.27.39-.18.7-.43.92-.76v.95h1.23v-4.33c0-.65-.12-1.2-.36-1.63-.24-.43-.59-.75-1.04-.96-.46-.21-1.01-.32-1.67-.32ZM252,497.88h1.3v-10.04h-1.3v10.04ZM248.23,490.71v3.71c0,.51-.09.95-.28,1.3-.18.35-.44.62-.77.8-.33.18-.72.28-1.18.28-.62,0-1.1-.18-1.43-.53-.33-.35-.5-.88-.51-1.58v-3.98h-1.3v4.13c0,.7.13,1.29.39,1.75.25.46.61.81,1.07,1.04.46.23,1,.34,1.62.34.34,0,.66-.05.97-.14.3-.09.58-.22.83-.4.25-.17.46-.38.64-.63v1.08h1.23v-7.17h-1.3ZM236.69,496.83c-.35,0-.67-.06-.96-.18-.29-.12-.55-.29-.77-.51-.22-.22-.39-.49-.51-.8-.12-.31-.18-.66-.18-1.04,0-.38.06-.73.18-1.04.12-.31.29-.57.51-.79.22-.22.48-.39.77-.51.29-.12.61-.18.96-.18s.66.06.95.18c.29.12.55.29.76.51.22.22.39.48.51.79.12.31.18.66.19,1.04,0,.38-.06.73-.19,1.04-.12.31-.29.58-.51.8-.22.22-.47.39-.76.51-.29.12-.61.18-.95.18ZM239.08,487.84v3.95c-.3-.39-.67-.67-1.09-.86-.43-.19-.9-.29-1.41-.29-.53,0-1.01.09-1.45.26-.44.17-.82.42-1.15.74-.32.32-.58.71-.75,1.15-.18.45-.27.95-.27,1.5,0,.55.09,1.05.27,1.5.18.45.43.83.75,1.16.32.33.71.57,1.15.75.44.17.92.26,1.45.26.35,0,.69-.05,1-.14.32-.09.6-.23.87-.41.26-.18.49-.41.69-.68v1.14h1.25v-10.04h-1.3ZM228.09,496.83c-.35,0-.67-.06-.96-.18-.29-.12-.55-.29-.77-.51-.22-.22-.39-.49-.51-.8-.12-.31-.18-.66-.18-1.04,0-.38.06-.73.18-1.04.12-.31.29-.57.51-.79.22-.22.48-.39.77-.51.29-.12.61-.18.96-.18s.67.06.96.18c.29.12.55.29.76.51.22.22.38.48.5.79.12.31.18.66.18,1.04,0,.38-.06.73-.18,1.04-.12.31-.29.58-.5.8-.22.22-.47.39-.76.51-.29.12-.61.18-.96.18ZM228.09,497.96c.54,0,1.04-.09,1.49-.27.45-.18.85-.43,1.18-.76.33-.33.59-.71.77-1.16.19-.45.28-.94.28-1.47,0-.54-.09-1.03-.28-1.47-.18-.44-.44-.83-.77-1.16-.33-.32-.73-.57-1.18-.75-.45-.18-.95-.27-1.49-.27-.54,0-1.04.09-1.49.27-.45.18-.85.43-1.18.75-.33.33-.59.71-.78,1.16-.18.44-.28.94-.28,1.47,0,.54.1,1.03.28,1.47s.44.83.78,1.16c.34.33.73.58,1.18.76.45.18.95.27,1.49.27ZM222.37,497.88v-9.47h-1.12l-3.9,6.66-3.95-6.66h-1.11v9.47h1.3v-6.86l3.42,5.71h.62l3.42-5.75v6.9h1.31ZM204.69,497.88h1.3v-10.04h-1.3v10.04ZM198.91,496.96c-.33,0-.61-.05-.85-.14-.23-.09-.42-.23-.54-.4-.13-.17-.19-.38-.19-.62,0-.21.04-.39.14-.56.1-.17.27-.3.51-.4.24-.1.58-.15,1-.15h2v1c-.11.27-.26.51-.46.7-.2.19-.44.33-.71.43-.27.1-.57.15-.9.15ZM199.21,490.64c-.39,0-.76.04-1.11.11-.36.07-.69.17-1.01.31-.31.14-.59.3-.84.5l.54.97c.19-.16.4-.29.65-.41.24-.11.5-.2.78-.27.28-.06.56-.09.85-.09.64,0,1.12.16,1.44.46.32.3.48.72.48,1.28v.26h-2.06c-.53,0-.98.06-1.35.17-.37.11-.66.26-.89.45-.23.19-.39.41-.49.67-.1.25-.15.53-.15.81,0,.42.11.78.33,1.1.21.32.52.56.92.74.4.18.87.27,1.41.27.56,0,1.04-.09,1.44-.27.39-.18.7-.43.92-.76v.95h1.23v-4.33c0-.65-.12-1.2-.36-1.63-.24-.43-.59-.75-1.04-.96-.46-.21-1.01-.32-1.67-.32ZM191.21,490.64c-.57,0-1.08.1-1.52.3-.44.2-.8.48-1.06.85v-1.08h-1.24v7.17h1.3v-3.69c0-.52.1-.96.28-1.31.19-.35.45-.62.79-.8.34-.18.74-.27,1.2-.27.62,0,1.1.17,1.43.52.33.35.5.87.5,1.58v3.98h1.3v-4.13c0-.53-.07-.99-.22-1.38-.14-.39-.35-.71-.62-.97-.26-.26-.58-.45-.94-.57-.36-.13-.76-.19-1.2-.19ZM181.86,496.83c-.35,0-.67-.06-.96-.18-.29-.12-.55-.29-.77-.51-.22-.22-.39-.49-.51-.8-.12-.31-.18-.66-.19-1.04,0-.38.06-.73.19-1.04.12-.31.29-.57.51-.79.22-.22.48-.39.77-.51.29-.12.61-.18.96-.18s.67.06.96.18c.29.12.55.29.76.51.22.22.38.48.5.79.12.31.18.66.18,1.04,0,.38-.06.73-.18,1.04-.12.31-.29.58-.5.8-.22.22-.47.39-.76.51-.29.12-.61.18-.96.18ZM181.86,497.96c.54,0,1.04-.09,1.49-.27.45-.18.85-.43,1.18-.76.33-.33.59-.71.77-1.16.18-.45.28-.94.28-1.47,0-.54-.09-1.03-.28-1.47-.18-.44-.44-.83-.77-1.16-.33-.32-.73-.57-1.18-.75-.45-.18-.95-.27-1.49-.27-.54,0-1.04.09-1.49.27-.45.18-.85.43-1.18.75-.33.33-.59.71-.78,1.16-.18.44-.28.94-.28,1.47,0,.54.1,1.03.28,1.47.19.45.44.83.78,1.16.34.33.73.58,1.18.76.45.18.95.27,1.49.27ZM175.01,497.88h1.3v-7.17h-1.3v7.17ZM175.66,489.33c.17,0,.32-.04.46-.12.13-.07.24-.18.31-.31.07-.13.11-.28.11-.44,0-.16-.04-.3-.12-.42-.08-.12-.18-.22-.31-.3-.13-.07-.28-.11-.45-.11-.17,0-.32.04-.45.12-.13.08-.23.18-.31.31-.08.13-.11.27-.12.43,0,.16.04.3.12.43.08.12.18.23.31.3.13.07.28.11.45.11ZM173.04,496.53c-.14.11-.29.19-.47.25-.17.06-.36.09-.55.09-.36,0-.64-.11-.83-.31-.19-.21-.29-.5-.29-.89v-3.88h2.06v-1.07h-2.06v-1.57h-1.3v1.57h-1.22v1.07h1.22v3.94c0,.48.09.89.27,1.23.18.33.43.59.77.76.34.17.75.26,1.23.26.2,0,.39-.02.58-.05.19-.04.37-.09.54-.17.17-.07.32-.17.45-.28l-.41-.93ZM163.63,496.96c-.33,0-.61-.05-.85-.14-.23-.09-.41-.23-.54-.4-.13-.17-.19-.38-.19-.62,0-.21.04-.39.14-.56.1-.17.27-.3.51-.4.24-.1.58-.15,1-.15h2v1c-.11.27-.26.51-.46.7-.2.19-.44.33-.71.43-.27.1-.57.15-.9.15ZM163.93,490.64c-.39,0-.76.04-1.11.11-.36.07-.69.17-1.01.31-.31.14-.59.3-.84.5l.54.97c.19-.16.4-.29.65-.41.24-.11.5-.2.78-.27.28-.06.56-.09.85-.09.64,0,1.12.16,1.44.46.32.3.48.72.48,1.28v.26h-2.06c-.53,0-.98.06-1.35.17-.37.11-.66.26-.89.45-.23.19-.39.41-.49.67-.1.25-.15.53-.15.81,0,.42.11.78.33,1.1.21.32.52.56.92.74.4.18.87.27,1.41.27.56,0,1.04-.09,1.44-.27.39-.18.7-.43.92-.76v.95h1.23v-4.33c0-.65-.12-1.2-.36-1.63-.24-.43-.59-.75-1.04-.96-.46-.21-1.01-.32-1.67-.32ZM157.31,488.41v7.06l-5.68-7.06h-1.11v9.47h1.35v-7.06l5.68,7.06h1.11v-9.47h-1.35Z"/>
  <path class="cls-25" d="M286.25,503.36c-.57,0-1.08.1-1.52.3-.44.2-.8.48-1.06.85v-1.08h-1.24v7.17h1.3v-3.69c0-.52.1-.96.28-1.31.19-.35.45-.62.79-.8.34-.18.74-.27,1.2-.27.62,0,1.1.17,1.43.52.33.35.5.87.51,1.58v3.98h1.3v-4.13c0-.53-.07-.99-.22-1.38-.14-.39-.35-.71-.62-.97-.26-.26-.58-.45-.94-.57-.36-.13-.76-.19-1.2-.19M276.9,509.55c-.35,0-.67-.06-.96-.18-.29-.12-.55-.29-.77-.51-.22-.22-.39-.49-.51-.8-.12-.31-.18-.66-.18-1.04,0-.38.06-.73.18-1.04.12-.31.29-.57.51-.79.22-.22.48-.39.77-.51.29-.12.61-.18.96-.18s.67.06.96.18c.29.12.55.29.76.51.22.22.38.48.5.79.12.31.18.66.18,1.04,0,.38-.06.73-.18,1.04-.12.31-.29.58-.5.8-.22.22-.47.39-.76.51-.29.12-.61.18-.96.18ZM276.9,510.68c.54,0,1.04-.09,1.49-.27.45-.18.85-.43,1.18-.76.33-.33.59-.71.77-1.16.18-.45.28-.94.28-1.48,0-.54-.09-1.03-.28-1.47-.18-.44-.44-.83-.77-1.16-.33-.32-.73-.57-1.18-.75-.45-.18-.95-.27-1.49-.27-.54,0-1.04.09-1.49.27-.45.18-.85.43-1.18.75-.33.33-.59.71-.78,1.16-.19.44-.28.94-.28,1.47,0,.54.1,1.03.28,1.48.18.45.44.83.78,1.16.34.33.73.58,1.18.76.45.18.95.27,1.49.27ZM270.05,510.6h1.3v-7.17h-1.3v7.17ZM270.7,502.05c.17,0,.32-.04.46-.12.13-.07.24-.18.31-.31.07-.13.11-.28.11-.44,0-.16-.04-.3-.12-.42-.08-.12-.18-.22-.31-.3-.13-.07-.28-.11-.45-.11-.17,0-.32.04-.45.11-.13.08-.23.18-.31.31-.08.13-.11.27-.12.43,0,.16.04.3.12.43.08.12.18.23.31.3.13.07.28.11.45.11ZM265.33,510.68c.64,0,1.19-.09,1.65-.26.46-.17.82-.42,1.07-.73.25-.32.38-.69.38-1.13,0-.34-.07-.63-.2-.86-.13-.23-.3-.42-.51-.56-.22-.14-.46-.26-.73-.34-.27-.08-.55-.15-.83-.2s-.57-.1-.83-.15c-.27-.05-.51-.11-.73-.18-.22-.07-.39-.17-.51-.3-.13-.13-.19-.3-.2-.51,0-.19.06-.36.18-.51.12-.15.31-.26.56-.35.25-.08.56-.13.94-.13.35,0,.71.04,1.06.13.35.09.69.23,1.02.44l.55-1.03c-.21-.14-.46-.25-.75-.35-.29-.1-.59-.17-.91-.22-.32-.05-.64-.08-.95-.08-.62,0-1.15.09-1.59.27-.45.18-.79.43-1.03.75-.24.32-.36.7-.37,1.13,0,.35.07.65.19.89.13.23.3.43.51.57.22.15.46.26.73.35.27.08.55.15.83.2s.56.1.83.14c.27.05.51.1.73.17.22.07.39.16.51.28.13.12.19.28.19.48,0,.2-.06.38-.17.52-.12.14-.3.26-.55.33-.25.08-.58.12-.98.12-.31,0-.62-.03-.93-.1-.31-.06-.6-.15-.87-.26-.27-.11-.51-.24-.71-.39l-.54,1.03c.2.16.46.3.77.43.31.13.65.23,1.03.3.38.07.76.11,1.17.11ZM258.55,510.68c.64,0,1.19-.09,1.65-.26.46-.17.82-.42,1.07-.73.25-.32.38-.69.38-1.13,0-.34-.07-.63-.2-.86-.13-.23-.3-.42-.51-.56-.22-.14-.46-.26-.73-.34-.27-.08-.55-.15-.83-.2s-.57-.1-.83-.15c-.27-.05-.51-.11-.73-.18-.22-.07-.39-.17-.51-.3-.13-.13-.19-.3-.2-.51,0-.19.06-.36.19-.51.12-.15.31-.26.56-.35.25-.08.56-.13.94-.13.35,0,.71.04,1.06.13.35.09.69.23,1.01.44l.55-1.03c-.21-.14-.46-.25-.75-.35-.29-.1-.59-.17-.91-.22-.32-.05-.64-.08-.95-.08-.62,0-1.15.09-1.59.27-.45.18-.79.43-1.03.75-.24.32-.36.7-.37,1.13,0,.35.07.65.19.89.13.23.3.43.51.57.22.15.46.26.73.35.27.08.55.15.83.2.29.05.56.1.83.14.27.05.51.1.73.17.22.07.39.16.51.28.13.12.19.28.19.48,0,.2-.06.38-.17.52-.12.14-.3.26-.55.33-.25.08-.58.12-.98.12-.31,0-.62-.03-.93-.1-.31-.06-.6-.15-.87-.26-.27-.11-.51-.24-.72-.39l-.54,1.03c.2.16.46.3.77.43.31.13.65.23,1.03.3.38.07.76.11,1.17.11ZM252.72,510.6h1.3v-7.17h-1.3v7.17ZM253.37,502.05c.17,0,.32-.04.46-.12.13-.07.24-.18.31-.31.07-.13.11-.28.11-.44,0-.16-.04-.3-.12-.42-.08-.12-.18-.22-.31-.3-.13-.07-.28-.11-.45-.11-.17,0-.32.04-.45.11-.13.08-.23.18-.31.31-.08.13-.11.27-.12.43,0,.16.04.3.12.43.08.12.18.23.31.3.13.07.28.11.45.11Z"/>
  <path class="cls-30" d="M251.1,386.71h-5.86v-10.93h5.86c2.19,0,3.83.49,4.92,1.45,1.09.95,1.63,2.3,1.63,4.04s-.54,3.05-1.63,4c-1.09.94-2.74,1.43-4.92,1.44M251.74,367.46h-17.06v37.32h10.55v-9.76h6.5c2.55,0,4.85-.33,6.89-.96,2.04-.63,3.78-1.55,5.22-2.74,1.44-1.2,2.54-2.64,3.31-4.34.76-1.69,1.15-3.6,1.16-5.72,0-2.14-.39-4.06-1.16-5.76-.77-1.7-1.87-3.14-3.31-4.34-1.45-1.2-3.18-2.11-5.22-2.75-2.03-.64-4.34-.95-6.89-.96ZM209.95,405.52c3.69,0,6.84-.68,9.45-2.03,2.61-1.35,4.6-3.31,5.99-5.9,1.39-2.58,2.09-5.73,2.1-9.45v-20.68h-10.39v20.36c0,2.12-.29,3.85-.85,5.16-.56,1.32-1.37,2.28-2.42,2.9-1.05.6-2.3.91-3.77.9-1.48,0-2.75-.29-3.8-.9-1.06-.61-1.87-1.57-2.43-2.9-.56-1.31-.84-3.04-.85-5.16v-20.36h-10.56v20.68c0,3.72.71,6.88,2.1,9.45,1.39,2.59,3.38,4.55,5.99,5.9,2.61,1.34,5.77,2.02,9.45,2.03ZM171.94,405.52c3.45,0,6.53-.61,9.24-1.82,2.71-1.2,4.98-2.94,6.81-5.22l-6.72-6.08c-1.17,1.42-2.48,2.5-3.94,3.24-1.46.75-3.07,1.12-4.86,1.13-2.06,0-3.86-.46-5.42-1.34-1.55-.88-2.77-2.12-3.64-3.71-.87-1.59-1.31-3.46-1.33-5.61.02-2.15.46-4.02,1.33-5.61.87-1.59,2.09-2.83,3.64-3.71,1.55-.88,3.36-1.33,5.42-1.34,1.79,0,3.4.38,4.86,1.13,1.46.74,2.76,1.82,3.94,3.24l6.72-6.08c-1.82-2.27-4.1-4.02-6.81-5.22-2.71-1.21-5.79-1.81-9.24-1.82-2.98,0-5.7.49-8.2,1.43-2.49.95-4.66,2.28-6.49,4.02-1.85,1.72-3.27,3.77-4.28,6.13-1.01,2.37-1.53,4.98-1.55,7.83.02,2.85.53,5.46,1.55,7.82,1.01,2.36,2.43,4.42,4.28,6.14,1.84,1.73,4.01,3.06,6.49,4.01,2.5.95,5.22,1.43,8.2,1.44ZM304.76,358.14l-.11-37.31h-8.69l-12.79,21.54-13.11-21.54h-8.69v37.31h9.76v-19.24l9.54,15.57h4.69l9.6-16.1.11,19.78h9.7ZM231.72,343.11l4.8-11.94,4.8,11.94h-9.6ZM247.34,358.14h10.98l-16.53-37.31h-10.39l-16.47,37.31h10.77l2.93-7.25h15.78l2.93,7.25ZM193.98,349.98v-6.82h16.58v-7.89h-16.58v-6.29h18.82v-8.16h-29.27v37.31h29.96v-8.16h-19.51ZM157.57,358.14h10.55v-28.95h11.41v-8.37h-33.42v8.37h11.46v28.95ZM128.2,358.89c2.77,0,5.19-.34,7.26-.97,2.07-.63,3.79-1.5,5.16-2.62,1.38-1.11,2.4-2.39,3.08-3.83.68-1.45,1.02-2.99,1.02-4.63,0-1.71-.32-3.17-.91-4.37-.59-1.2-1.39-2.2-2.4-3-1-.81-2.14-1.47-3.39-1.97-1.25-.52-2.55-.94-3.88-1.27-1.33-.33-2.63-.63-3.88-.89-1.25-.27-2.39-.54-3.39-.84-1-.3-1.8-.68-2.4-1.12-.59-.44-.89-1.02-.91-1.72,0-.63.19-1.2.58-1.71.39-.5,1.03-.9,1.92-1.2.89-.29,2.06-.44,3.53-.45,1.63,0,3.31.24,5.06.72,1.73.48,3.5,1.2,5.29,2.16l3.25-7.84c-1.23-.71-2.59-1.31-4.07-1.79-1.47-.48-3.01-.84-4.62-1.09-1.61-.24-3.23-.36-4.85-.36-2.77,0-5.19.33-7.26.95-2.07.63-3.79,1.49-5.16,2.6-1.37,1.1-2.4,2.39-3.08,3.85-.68,1.46-1.02,3.02-1.02,4.7.02,1.72.32,3.19.92,4.4.6,1.21,1.39,2.22,2.4,3.03,1.01.81,2.14,1.47,3.4,1.99,1.25.52,2.55.95,3.89,1.29,1.34.34,2.64.64,3.9.91,1.25.27,2.39.56,3.39.87,1.01.31,1.81.7,2.41,1.17.59.46.9,1.07.91,1.79,0,.6-.2,1.14-.6,1.59-.41.45-1.06.81-1.95,1.07-.9.25-2.07.38-3.52.38-1.45,0-2.91-.16-4.38-.47-1.47-.3-2.88-.73-4.23-1.28-1.36-.55-2.59-1.2-3.7-1.93l-3.47,7.78c.89.61,1.91,1.17,3.08,1.68,1.16.5,2.43.93,3.8,1.29,1.37.36,2.8.65,4.29.84,1.49.2,3.01.29,4.55.29Z"/>
  <path class="cls-30" d="M292.11,304.22l2.12-4.96,2.14,4.96h-4.26ZM298.2,308.5h2.21l-5.12-11.35h-2.08l-5.11,11.35h2.17l1.12-2.63h5.67l1.13,2.63ZM282.4,308.66c.78,0,1.45-.09,2.03-.27.58-.18,1.05-.42,1.43-.73.38-.31.66-.67.85-1.08.19-.4.28-.83.28-1.29,0-.52-.1-.96-.29-1.31-.19-.36-.44-.65-.76-.89-.32-.24-.68-.43-1.08-.58-.4-.15-.81-.28-1.23-.38-.42-.11-.84-.21-1.24-.3-.4-.1-.76-.21-1.08-.33-.32-.13-.57-.29-.76-.48-.19-.19-.28-.44-.29-.74,0-.29.08-.55.25-.78.17-.23.43-.42.8-.55.36-.13.83-.2,1.42-.21.33,0,.67.03,1.02.1.35.06.7.17,1.06.3.36.13.71.3,1.05.5l.66-1.64c-.33-.22-.7-.4-1.12-.55-.41-.15-.84-.26-1.3-.34-.45-.08-.91-.12-1.36-.12-.78,0-1.45.09-2.03.27-.57.18-1.05.42-1.43.74-.38.31-.66.67-.84,1.08-.18.41-.28.84-.28,1.3,0,.52.1.96.29,1.33.19.36.44.66.76.9.32.24.68.43,1.08.58.4.15.81.28,1.24.38.43.11.84.21,1.24.3.4.09.76.21,1.08.33.32.13.57.29.76.48.19.2.29.45.29.75,0,.28-.08.54-.26.76-.17.22-.45.4-.82.52-.37.13-.85.19-1.44.19-.47,0-.93-.06-1.39-.16-.46-.11-.89-.25-1.29-.44-.4-.19-.76-.4-1.06-.65l-.73,1.64c.24.2.52.39.85.55.33.17.69.31,1.08.43.39.12.81.21,1.24.28.43.06.87.1,1.31.1ZM268.51,304.22l2.12-4.96,2.14,4.96h-4.26ZM274.61,308.5h2.21l-5.12-11.35h-2.08l-5.11,11.35h2.17l1.12-2.63h5.67l1.13,2.63ZM260.35,297.15v7.68l-6.26-7.68h-1.73v11.35h2.09v-7.68l6.26,7.68h1.73v-11.35h-2.09ZM238.9,306.81c-.57,0-1.1-.1-1.59-.3-.49-.19-.91-.47-1.26-.83-.36-.36-.64-.78-.83-1.26-.2-.49-.3-1.02-.3-1.6,0-.58.1-1.12.3-1.6.2-.48.48-.91.83-1.26.36-.36.78-.63,1.26-.83.48-.2,1.01-.29,1.59-.3.58,0,1.11.1,1.59.3.48.19.91.47,1.26.83.36.36.64.78.84,1.26.2.49.3,1.02.3,1.6,0,.58-.1,1.12-.3,1.6-.2.48-.48.91-.84,1.26-.36.36-.78.63-1.26.83-.48.19-1.01.29-1.59.3ZM238.9,308.66c.88,0,1.7-.15,2.44-.44.74-.29,1.39-.69,1.93-1.22.55-.52.98-1.14,1.28-1.85.3-.71.45-1.49.46-2.33,0-.85-.16-1.63-.46-2.33-.3-.71-.73-1.33-1.28-1.85-.55-.52-1.19-.93-1.93-1.22-.74-.29-1.56-.44-2.44-.44-.88,0-1.7.15-2.44.44-.74.29-1.39.69-1.93,1.22-.55.52-.98,1.14-1.28,1.85-.3.71-.45,1.49-.46,2.33,0,.84.16,1.62.46,2.33.3.71.73,1.33,1.28,1.85.55.52,1.19.93,1.93,1.22.74.29,1.56.44,2.44.44ZM225.52,308.5h2.11v-9.57h3.76v-1.78h-9.63v1.78h3.76v9.57ZM210.91,303.44h-2.46v-4.51h2.46c.62,0,1.13.09,1.55.27.42.18.73.43.94.77.21.34.32.74.32,1.22s-.11.88-.32,1.22c-.21.34-.52.59-.94.77-.42.18-.93.26-1.55.27ZM211.01,297.15h-4.67v11.35h2.11v-3.27h2.56c1,0,1.86-.17,2.58-.49.72-.32,1.28-.79,1.66-1.39.39-.6.58-1.32.59-2.16,0-.84-.2-1.56-.59-2.16-.39-.6-.94-1.06-1.66-1.38-.72-.32-1.58-.49-2.58-.49ZM200.54,308.5h2.11v-11.35h-2.11v11.35ZM195.44,301.19c0,.48-.11.88-.32,1.22-.21.34-.52.6-.94.78-.42.18-.93.27-1.55.27h-2.46v-4.52h2.46c.62,0,1.13.09,1.55.27.42.18.73.43.94.77.21.34.32.74.32,1.22ZM197.76,308.5l-2.61-3.73c.78-.31,1.37-.76,1.79-1.37.42-.61.62-1.35.63-2.21,0-.84-.2-1.56-.59-2.16-.39-.6-.94-1.06-1.66-1.38-.72-.32-1.58-.49-2.58-.49h-4.67v11.35h2.11v-3.31h2.56c.07,0,.15,0,.22,0,.07,0,.15,0,.22-.01l2.32,3.32h2.27ZM179.98,308.5h2.11v-9.57h3.76v-1.78h-9.63v1.78h3.76v9.57ZM162.83,304.22l2.12-4.96,2.14,4.96h-4.26ZM168.93,308.5h2.21l-5.12-11.35h-2.08l-5.11,11.35h2.17l1.12-2.63h5.67l1.13,2.63ZM150.19,297.15v7.68l-6.26-7.68h-1.73v11.35h2.09v-7.68l6.26,7.68h1.73v-11.35h-2.09ZM136.4,308.5h2.11v-11.35h-2.11v11.35ZM131.8,297.15l-2.9,8.67-2.87-8.67h-1.95l-2.93,8.62-2.82-8.62h-2.19l3.76,11.35h2.25l2.85-8.4,2.8,8.4h2.24l3.76-11.35h-2.01Z"/>
  <path class="cls-30" d="M238.69,434.25c-.5,0-.95-.09-1.37-.26-.42-.17-.78-.41-1.09-.71-.31-.31-.55-.67-.72-1.09-.17-.42-.26-.88-.26-1.38,0-.5.09-.96.26-1.38.17-.42.41-.78.72-1.09.31-.31.67-.55,1.09-.71.42-.17.87-.25,1.37-.26.5,0,.95.09,1.37.26.42.17.78.41,1.09.71.31.31.55.67.72,1.09.17.42.26.88.26,1.38,0,.5-.09.96-.26,1.38-.17.42-.41.78-.72,1.09-.31.31-.67.55-1.09.71-.42.17-.87.25-1.37.26M238.69,435.85c.76,0,1.46-.13,2.11-.38.64-.25,1.2-.6,1.67-1.05.47-.45.84-.98,1.1-1.6.26-.61.39-1.29.4-2.02,0-.73-.14-1.4-.4-2.02-.26-.61-.63-1.15-1.1-1.6-.47-.45-1.03-.8-1.67-1.05-.64-.25-1.34-.38-2.11-.38-.76,0-1.47.13-2.11.38-.64.25-1.2.6-1.67,1.05s-.84.98-1.1,1.6c-.26.61-.39,1.28-.4,2.01,0,.73.14,1.4.4,2.01.26.61.63,1.15,1.1,1.6.47.45,1.03.8,1.67,1.05.64.25,1.34.38,2.11.38ZM230.08,425.91v4.05h-5.07v-4.05h-1.82v9.8h1.82v-4.2h5.07v4.2h1.82v-9.8h-1.82ZM217.96,435.85c.54,0,1.05-.06,1.52-.19.48-.12.91-.31,1.32-.55.4-.24.75-.54,1.05-.9l-1.18-1.12c-.36.39-.76.68-1.19.87-.44.19-.91.29-1.42.29-.51,0-.98-.09-1.4-.25-.43-.17-.8-.41-1.11-.71-.31-.31-.55-.67-.73-1.09-.17-.42-.26-.88-.26-1.39,0-.51.09-.97.26-1.39.17-.42.42-.78.73-1.09.31-.31.68-.54,1.11-.71.42-.17.89-.25,1.4-.25.51,0,.99.09,1.42.28.44.19.84.48,1.19.86l1.18-1.11c-.31-.35-.66-.66-1.05-.9-.4-.24-.83-.43-1.31-.55-.47-.13-.98-.19-1.51-.19-.76,0-1.45.13-2.09.38-.64.25-1.19.6-1.66,1.05-.47.45-.84.98-1.1,1.59-.26.61-.39,1.29-.4,2.02,0,.74.14,1.41.4,2.02.26.61.63,1.14,1.1,1.59.47.45,1.02.8,1.66,1.05.63.25,1.33.37,2.08.38ZM208.07,435.85c.67,0,1.25-.08,1.75-.24.5-.15.91-.36,1.24-.63.33-.27.57-.58.73-.93.16-.35.24-.72.24-1.12,0-.45-.09-.83-.25-1.13-.16-.31-.38-.56-.66-.77-.28-.2-.59-.37-.93-.5-.34-.13-.7-.24-1.07-.33-.37-.09-.72-.18-1.07-.26-.35-.08-.66-.18-.93-.29-.28-.11-.5-.25-.66-.41-.16-.17-.24-.38-.25-.64,0-.25.07-.48.21-.67.15-.2.38-.36.69-.48.31-.12.72-.18,1.22-.18.29,0,.58.03.88.08.3.06.61.14.91.26.31.11.61.26.9.43l.57-1.41c-.29-.19-.61-.35-.96-.47-.35-.13-.73-.23-1.12-.29-.39-.07-.78-.1-1.18-.1-.67,0-1.25.08-1.75.24-.5.15-.91.36-1.23.63-.32.27-.57.58-.73.93-.16.35-.24.73-.24,1.12,0,.45.09.83.25,1.15.16.31.38.57.66.77.28.21.59.37.93.5.35.13.7.24,1.07.33.37.09.72.18,1.07.26.35.08.66.18.93.29.28.11.5.25.66.42.16.17.25.38.25.65,0,.24-.07.46-.22.65-.15.19-.39.34-.7.45-.32.11-.73.17-1.24.17-.4,0-.81-.05-1.2-.14-.39-.09-.77-.22-1.12-.38-.35-.16-.66-.35-.92-.56l-.63,1.41c.21.17.45.34.73.48.28.14.59.27.93.37.34.11.7.18,1.07.24.37.06.75.09,1.13.09ZM195.96,434.27c-.45,0-.84-.12-1.18-.37-.34-.25-.6-.63-.79-1.14-.19-.51-.29-1.16-.29-1.95,0-.79.1-1.44.29-1.95.19-.51.45-.89.79-1.14.34-.25.73-.37,1.18-.37.45,0,.85.12,1.19.37.34.25.6.63.79,1.14.19.51.29,1.16.29,1.95,0,.79-.1,1.44-.29,1.95-.19.51-.45.89-.79,1.14-.34.25-.74.37-1.19.37ZM195.96,435.85c.59,0,1.13-.11,1.63-.33.5-.22.93-.55,1.3-.98.37-.43.66-.96.86-1.58.2-.63.31-1.34.31-2.15,0-.81-.11-1.52-.31-2.15-.21-.62-.49-1.15-.86-1.58-.37-.43-.8-.75-1.3-.98-.5-.22-1.04-.33-1.63-.33s-1.12.11-1.62.33c-.49.22-.93.55-1.29.98-.37.43-.66.96-.86,1.58-.21.63-.31,1.34-.31,2.15,0,.81.11,1.52.31,2.15.2.62.49,1.15.86,1.58.37.43.8.76,1.29.98.49.22,1.04.33,1.62.33ZM186.96,434.27c-.45,0-.84-.12-1.18-.37-.34-.25-.6-.63-.79-1.14-.19-.51-.29-1.16-.29-1.95,0-.79.1-1.44.29-1.95.19-.51.45-.89.79-1.14.34-.25.73-.37,1.18-.37.45,0,.85.12,1.19.37.34.25.6.63.79,1.14.19.51.29,1.16.29,1.95,0,.79-.1,1.44-.29,1.95-.19.51-.46.89-.79,1.14-.34.25-.74.37-1.19.37ZM186.96,435.85c.59,0,1.13-.11,1.63-.33.5-.22.93-.55,1.3-.98.37-.43.66-.96.86-1.58.21-.63.31-1.34.31-2.15,0-.81-.11-1.52-.31-2.15-.21-.62-.49-1.15-.86-1.58-.37-.43-.8-.75-1.3-.98-.5-.22-1.04-.33-1.63-.33s-1.12.11-1.62.33c-.49.22-.93.55-1.29.98-.37.43-.66.96-.86,1.58-.21.63-.31,1.34-.31,2.15,0,.81.11,1.52.31,2.15.21.62.49,1.15.86,1.58.37.43.8.76,1.29.98.49.22,1.04.33,1.62.33ZM177.44,425.91v1.53h2.07v8.27h1.82v-9.8h-3.89ZM168.98,431.34h-2.13v-3.89h2.13c.53,0,.98.08,1.34.23.36.15.63.37.81.66.18.29.27.64.27,1.05s-.09.76-.27,1.05c-.18.29-.45.51-.81.66-.36.15-.8.23-1.34.23ZM169.07,425.91h-4.03v9.8h1.82v-2.83h2.21c.86,0,1.61-.14,2.23-.43.62-.28,1.1-.68,1.44-1.2.34-.52.5-1.14.51-1.86,0-.73-.17-1.35-.51-1.87-.34-.52-.81-.92-1.44-1.19-.62-.28-1.36-.42-2.23-.42ZM158.24,434.25c-.5,0-.95-.09-1.37-.26-.42-.17-.78-.41-1.09-.71-.31-.31-.55-.67-.72-1.09-.17-.42-.26-.88-.26-1.38,0-.5.09-.96.26-1.38.17-.42.41-.78.72-1.09.31-.31.67-.55,1.09-.71.42-.17.87-.25,1.37-.26.5,0,.95.09,1.37.26.42.17.78.41,1.09.71.31.31.55.67.72,1.09.17.42.26.88.26,1.38,0,.5-.09.96-.26,1.38-.17.42-.41.78-.72,1.09-.31.31-.67.55-1.09.71-.42.17-.87.25-1.37.26ZM158.24,435.85c.76,0,1.46-.13,2.11-.38.64-.25,1.2-.6,1.67-1.05.47-.45.84-.98,1.1-1.6.26-.61.39-1.29.4-2.02,0-.73-.14-1.4-.4-2.02-.26-.61-.63-1.15-1.1-1.6-.47-.45-1.03-.8-1.67-1.05-.64-.25-1.34-.38-2.11-.38-.76,0-1.47.13-2.11.38-.64.25-1.2.6-1.67,1.05s-.84.98-1.1,1.6c-.26.61-.39,1.28-.4,2.01,0,.73.14,1.4.4,2.01.26.61.63,1.15,1.1,1.6.47.45,1.03.8,1.67,1.05.64.25,1.34.38,2.11.38ZM147.64,435.71h1.82v-8.26h3.25v-1.54h-8.31v1.54h3.25v8.26ZM310.32,414.64c0,.41-.09.76-.27,1.05-.18.29-.45.52-.81.67-.36.15-.8.23-1.34.23h-2.13v-3.91h2.13c.53,0,.98.08,1.34.23.36.15.63.37.81.66.18.29.27.64.27,1.05ZM312.32,420.96l-2.25-3.22c.67-.26,1.18-.66,1.54-1.19.36-.53.54-1.16.54-1.91,0-.73-.17-1.35-.51-1.87-.34-.52-.81-.92-1.44-1.19-.62-.28-1.36-.42-2.23-.42h-4.03v9.8h1.82v-2.86h2.21c.06,0,.13,0,.19,0,.06,0,.13,0,.19-.01l2,2.87h1.96ZM297.16,419.5c-.5,0-.95-.09-1.37-.26-.42-.17-.78-.41-1.09-.71-.31-.31-.55-.67-.72-1.09-.17-.42-.26-.88-.26-1.38,0-.5.09-.96.26-1.38.17-.42.41-.78.72-1.09.31-.31.67-.55,1.09-.71.42-.17.87-.25,1.37-.26.5,0,.95.09,1.37.26.42.17.78.41,1.09.71.31.31.55.67.72,1.09.17.42.26.88.26,1.38,0,.5-.09.96-.26,1.38-.17.42-.41.78-.72,1.09-.31.31-.67.55-1.09.71-.42.17-.87.25-1.37.26ZM297.16,421.1c.76,0,1.46-.13,2.11-.38.64-.25,1.2-.6,1.67-1.05.47-.45.84-.98,1.1-1.6.26-.61.39-1.29.4-2.02,0-.73-.14-1.4-.4-2.02-.26-.61-.63-1.15-1.1-1.6-.47-.45-1.03-.8-1.67-1.05-.64-.25-1.34-.38-2.11-.38-.76,0-1.47.13-2.11.38-.64.25-1.2.6-1.67,1.05-.47.45-.84.98-1.1,1.6-.26.61-.39,1.28-.4,2.01,0,.73.14,1.4.4,2.01.26.61.63,1.15,1.1,1.6.47.45,1.03.8,1.67,1.05.64.25,1.34.38,2.11.38ZM291.23,412.68v-1.53h-7.15v9.8h1.82v-3.75h4.73v-1.54h-4.73v-2.98h5.33ZM274.86,421.1c.67,0,1.26-.08,1.75-.24.5-.15.91-.36,1.24-.63.33-.27.57-.58.73-.93.16-.35.24-.72.24-1.12,0-.45-.09-.83-.25-1.13-.16-.31-.38-.56-.66-.77-.28-.2-.59-.37-.93-.5-.34-.13-.7-.24-1.07-.33-.37-.09-.72-.18-1.07-.26-.35-.08-.66-.18-.93-.29-.28-.11-.49-.25-.66-.41-.16-.17-.24-.38-.25-.64,0-.25.07-.48.21-.67.15-.2.38-.36.69-.48.31-.12.72-.18,1.22-.18.29,0,.58.03.88.08.3.06.61.14.91.26.31.11.61.26.9.43l.57-1.41c-.29-.19-.61-.35-.96-.47-.36-.13-.73-.23-1.12-.29-.39-.07-.78-.1-1.18-.1-.67,0-1.25.08-1.75.24-.5.15-.91.36-1.23.63-.32.27-.57.58-.73.93-.16.35-.24.73-.24,1.12,0,.45.09.83.25,1.15.16.31.38.57.66.77.28.21.59.37.93.5.35.13.7.24,1.07.33.37.09.72.18,1.07.26.35.08.66.18.93.29.28.11.5.25.66.42.16.17.25.38.25.65,0,.24-.07.46-.22.65-.15.19-.39.34-.7.45-.32.11-.73.17-1.24.17-.4,0-.81-.05-1.2-.14-.39-.09-.77-.22-1.11-.38-.35-.16-.66-.35-.92-.56l-.63,1.41c.21.17.45.34.73.48.28.14.59.27.93.37.34.11.7.18,1.07.24.37.06.75.09,1.13.09ZM264.67,419.43v-2.7h4.73v-1.5h-4.73v-2.55h5.33v-1.53h-7.15v9.8h7.35v-1.53h-5.53ZM255.65,419.42l5.77-7.04v-1.22h-8.08v1.54h5.67l-5.77,7.04v1.22h8.36v-1.54h-5.95ZM249.93,420.96h1.82v-9.8h-1.82v9.8ZM246.48,414.64c0,.41-.09.76-.27,1.05-.18.29-.45.52-.81.67-.36.15-.8.23-1.34.23h-2.13v-3.91h2.13c.53,0,.98.08,1.34.23.36.15.63.37.81.66.18.29.27.64.27,1.05ZM248.49,420.96l-2.25-3.22c.67-.26,1.18-.66,1.54-1.19.36-.53.54-1.16.54-1.91,0-.73-.17-1.35-.51-1.87-.34-.52-.81-.92-1.44-1.19-.62-.28-1.36-.42-2.23-.42h-4.03v9.8h1.82v-2.86h2.21c.06,0,.13,0,.19,0,.06,0,.13,0,.19-.01l2,2.87h1.96ZM234.31,416.59h-2.13v-3.89h2.13c.53,0,.98.08,1.34.23.36.15.63.37.81.66.18.29.27.64.27,1.05s-.09.76-.27,1.05c-.18.29-.45.51-.81.66-.36.15-.81.23-1.34.23ZM234.4,411.16h-4.03v9.8h1.82v-2.83h2.21c.86,0,1.61-.15,2.23-.43.62-.28,1.1-.68,1.44-1.2.34-.52.5-1.14.51-1.86,0-.73-.17-1.35-.51-1.87-.34-.52-.81-.92-1.44-1.19-.62-.28-1.36-.42-2.23-.42ZM222.46,411.16v4.05h-5.07v-4.05h-1.82v9.8h1.82v-4.2h5.07v4.2h1.82v-9.8h-1.82ZM209.55,420.96h1.82v-8.26h3.25v-1.54h-8.31v1.54h3.25v8.26ZM204.11,414.64c0,.41-.09.76-.27,1.05-.18.29-.45.52-.81.67-.36.15-.8.23-1.34.23h-2.13v-3.91h2.13c.53,0,.98.08,1.34.23.36.15.63.37.81.66.18.29.27.64.27,1.05ZM206.11,420.96l-2.25-3.22c.67-.26,1.18-.66,1.54-1.19.36-.53.54-1.16.54-1.91,0-.73-.17-1.35-.51-1.87-.34-.52-.81-.92-1.44-1.19-.62-.28-1.36-.42-2.23-.42h-4.03v9.8h1.82v-2.86h2.21c.06,0,.13,0,.19,0,.06,0,.13,0,.19-.01l2,2.87h1.96ZM190.95,419.5c-.5,0-.95-.09-1.37-.26-.42-.17-.78-.41-1.09-.71-.31-.31-.55-.67-.72-1.09-.17-.42-.26-.88-.26-1.38,0-.5.09-.96.26-1.38.17-.42.41-.78.72-1.09.31-.31.67-.55,1.09-.71.42-.17.87-.25,1.37-.26.5,0,.95.09,1.37.26.42.17.78.41,1.09.71.31.31.55.67.72,1.09.17.42.26.88.26,1.38,0,.5-.09.96-.26,1.38-.17.42-.41.78-.72,1.09-.31.31-.67.55-1.09.71-.42.17-.88.25-1.37.26ZM190.95,421.1c.76,0,1.47-.13,2.11-.38.64-.25,1.2-.6,1.67-1.05.47-.45.84-.98,1.1-1.6.26-.61.39-1.29.4-2.02,0-.73-.14-1.4-.4-2.02-.26-.61-.63-1.15-1.1-1.6-.47-.45-1.03-.8-1.67-1.05-.64-.25-1.34-.38-2.11-.38-.76,0-1.46.13-2.11.38-.64.25-1.2.6-1.67,1.05-.47.45-.84.98-1.1,1.6-.26.61-.39,1.28-.4,2.01,0,.73.14,1.4.4,2.01.26.61.63,1.15,1.1,1.6.47.45,1.03.8,1.67,1.05.64.25,1.34.38,2.11.38ZM183.35,411.16l-2.51,7.49-2.48-7.49h-1.68l-2.53,7.45-2.44-7.45h-1.89l3.25,9.8h1.95l2.46-7.25,2.42,7.25h1.93l3.25-9.8h-1.74ZM160.02,419.14v-2.27h4.55v-1.76h-4.55v-2.13h5.15v-1.82h-7.4v9.8h7.59v-1.82h-5.33ZM154.11,414.71c0,.36-.08.66-.23.91-.15.25-.39.45-.7.59-.31.14-.7.2-1.16.21h-1.85v-3.42h1.85c.69,0,1.21.15,1.56.45.35.29.52.71.52,1.26ZM156.58,420.96l-2.2-3.15c.43-.18.79-.42,1.09-.72.3-.3.53-.64.69-1.04.16-.4.24-.84.24-1.33,0-.55-.1-1.05-.3-1.48-.2-.44-.48-.81-.85-1.12-.37-.31-.82-.55-1.34-.71-.52-.16-1.11-.24-1.77-.25h-4.24v9.8h2.27v-2.73h2.09l1.89,2.73h2.44ZM141.26,419.19c-.44,0-.85-.08-1.22-.23-.37-.15-.7-.36-.97-.64-.28-.28-.49-.61-.64-.99-.15-.38-.23-.81-.23-1.28,0-.47.08-.89.23-1.28.15-.38.37-.71.64-.99.28-.28.6-.49.97-.64.37-.15.78-.23,1.22-.23.44,0,.84.08,1.22.23.37.15.69.36.97.64.28.28.49.61.64.99.15.38.23.81.23,1.28,0,.47-.08.89-.23,1.28-.15.38-.37.71-.64.99-.28.28-.6.49-.97.64-.37.15-.78.23-1.22.23ZM141.26,421.12c.77,0,1.49-.13,2.14-.38.65-.25,1.22-.6,1.7-1.06.48-.45.86-.99,1.12-1.61.27-.62.4-1.29.4-2.03,0-.73-.14-1.41-.4-2.03-.27-.61-.64-1.15-1.12-1.6-.48-.45-1.05-.81-1.7-1.06-.65-.25-1.36-.38-2.14-.38-.78,0-1.49.13-2.14.38-.65.25-1.22.6-1.7,1.06-.48.45-.85.99-1.12,1.61-.27.62-.4,1.29-.4,2.02,0,.73.14,1.4.4,2.02.26.62.64,1.15,1.12,1.61.48.46,1.05.81,1.7,1.06.65.25,1.36.38,2.14.38ZM132.85,414.71c0,.36-.08.66-.23.91-.15.25-.39.45-.7.59-.31.14-.7.2-1.16.21h-1.85v-3.42h1.85c.69,0,1.21.15,1.56.45.35.29.52.71.52,1.26ZM135.33,420.96l-2.2-3.15c.43-.18.79-.42,1.09-.72.3-.3.53-.64.69-1.04.16-.4.24-.84.24-1.33,0-.55-.1-1.05-.3-1.48-.2-.44-.48-.81-.85-1.12-.37-.31-.82-.55-1.34-.71-.52-.16-1.11-.24-1.77-.25h-4.24v9.8h2.27v-2.73h2.09l1.89,2.73h2.44ZM121.5,421.12c.57,0,1.1-.07,1.6-.2.5-.14.95-.33,1.36-.59.41-.26.77-.58,1.08-.96l-1.46-1.34c-.33.39-.7.67-1.11.87-.41.19-.86.29-1.35.29-.46,0-.88-.08-1.26-.23-.38-.15-.71-.37-.99-.64-.28-.28-.49-.61-.65-.99-.15-.38-.23-.8-.23-1.27,0-.46.08-.89.23-1.27.15-.38.37-.71.65-.99.28-.28.61-.5.99-.65.38-.15.81-.23,1.26-.23.49,0,.94.1,1.35.29.41.19.78.48,1.11.86l1.46-1.34c-.31-.37-.67-.69-1.08-.95-.41-.26-.86-.45-1.36-.59-.5-.13-1.03-.2-1.59-.2-.77,0-1.47.13-2.12.38-.65.25-1.21.6-1.68,1.05-.48.45-.85.99-1.11,1.6-.26.62-.4,1.3-.4,2.04,0,.59.09,1.15.26,1.66.17.52.42.98.73,1.4.31.42.69.78,1.13,1.08.44.3.93.53,1.46.69.53.16,1.11.24,1.72.24ZM107.69,414.84h-.8l.15-1.86h4.09v-1.82h-5.98l-.5,5.52h2.51c.44,0,.81.03,1.11.09.3.06.53.14.7.26.17.11.29.24.37.4.07.16.11.33.11.52,0,.27-.07.49-.22.69-.15.19-.36.33-.63.43-.27.1-.6.15-.98.15-.34,0-.68-.04-1.01-.11-.33-.07-.65-.17-.95-.3-.3-.13-.58-.29-.83-.48l-.9,1.74c.32.22.68.42,1.09.57.41.16.84.27,1.29.35.45.08.91.12,1.36.12.7,0,1.31-.09,1.82-.26.51-.17.94-.41,1.27-.71.33-.3.58-.65.74-1.04.16-.39.24-.8.24-1.24,0-.44-.07-.84-.22-1.21-.15-.37-.39-.69-.71-.96-.32-.27-.74-.48-1.25-.64-.51-.15-1.13-.23-1.85-.23Z"/>
  <path class="cls-30" d="M267.87,435.85c.67,0,1.26-.08,1.75-.24.5-.15.91-.36,1.24-.63.33-.27.57-.58.73-.93.16-.35.24-.72.24-1.12,0-.45-.09-.83-.25-1.13-.16-.31-.38-.56-.66-.77-.28-.2-.59-.37-.93-.5-.34-.13-.7-.24-1.07-.33-.37-.09-.72-.18-1.07-.26-.35-.08-.66-.18-.93-.29-.28-.11-.49-.25-.66-.41-.16-.17-.24-.38-.25-.64,0-.25.07-.48.21-.67.15-.2.38-.36.69-.48.31-.12.72-.18,1.22-.18.29,0,.58.03.88.08.3.06.61.14.91.26.31.11.61.26.9.43l.57-1.41c-.29-.19-.61-.35-.96-.47-.35-.13-.73-.23-1.12-.29-.39-.07-.78-.1-1.18-.1-.67,0-1.26.08-1.75.24-.5.15-.91.36-1.23.63-.32.27-.57.58-.73.93-.16.35-.24.73-.24,1.12,0,.45.09.83.25,1.15.16.31.38.57.66.77.28.21.59.37.93.5.35.13.7.24,1.07.33.37.09.72.18,1.07.26.35.08.66.18.93.29.28.11.5.25.66.42.16.17.25.38.25.65,0,.24-.07.46-.22.65-.15.19-.39.34-.7.45-.32.11-.74.17-1.24.17-.4,0-.8-.05-1.2-.14-.39-.09-.77-.22-1.12-.38-.35-.16-.66-.35-.92-.56l-.63,1.41c.2.17.45.34.73.48.28.14.59.27.93.37.34.11.7.18,1.07.24.37.06.75.09,1.13.09M256.86,435.71h6.94v-1.54h-5.12v-8.26h-1.82v9.8ZM250.07,434.25c-.5,0-.95-.09-1.37-.26-.42-.17-.78-.41-1.09-.71-.31-.31-.55-.67-.72-1.09-.17-.42-.26-.88-.26-1.38,0-.5.09-.96.26-1.38.17-.42.41-.78.72-1.09.31-.31.67-.55,1.09-.71.42-.17.87-.25,1.37-.26.5,0,.95.09,1.37.26.42.17.78.41,1.09.71.31.31.55.67.72,1.09.17.42.26.88.26,1.38,0,.5-.09.96-.26,1.38-.17.42-.41.78-.72,1.09-.31.31-.67.55-1.09.71-.42.17-.87.25-1.37.26ZM250.07,435.85c.76,0,1.47-.13,2.11-.38.64-.25,1.2-.6,1.67-1.05.47-.45.84-.98,1.1-1.6.26-.61.39-1.29.4-2.02,0-.73-.14-1.4-.4-2.02-.26-.61-.63-1.15-1.1-1.6-.47-.45-1.03-.8-1.67-1.05-.64-.25-1.34-.38-2.11-.38-.76,0-1.46.13-2.11.38-.64.25-1.2.6-1.67,1.05-.47.45-.84.98-1.1,1.6-.26.61-.39,1.28-.4,2.01,0,.73.14,1.4.4,2.01.26.61.63,1.15,1.1,1.6.47.45,1.03.8,1.67,1.05.64.25,1.34.38,2.11.38Z"/>
</svg>