<?xml version="1.0" encoding="UTF-8"?>
<svg id="Layer_2" data-name="Layer 2" xmlns="http://www.w3.org/2000/svg" xmlns:xlink="http://www.w3.org/1999/xlink" viewBox="0 0 414.19 296.06">
  <defs>
    <style>
      .cls-1 {
        clip-path: url(#clippath-34);
      }

      .cls-2 {
        fill: url(#linear-gradient-15);
      }

      .cls-3 {
        fill: url(#linear-gradient-13);
      }

      .cls-4 {
        fill: url(#linear-gradient-28);
      }

      .cls-5 {
        clip-path: url(#clippath-38);
      }

      .cls-6 {
        clip-path: url(#clippath-21);
      }

      .cls-7 {
        clip-path: url(#clippath-6);
      }

      .cls-8 {
        clip-path: url(#clippath-7);
      }

      .cls-9 {
        clip-path: url(#clippath-17);
      }

      .cls-10 {
        clip-path: url(#clippath-31);
      }

      .cls-11 {
        clip-path: url(#clippath-15);
      }

      .cls-12 {
        clip-path: url(#clippath-33);
      }

      .cls-13 {
        clip-path: url(#clippath-18);
      }

      .cls-14 {
        clip-path: url(#clippath-4);
      }

      .cls-15 {
        fill: url(#linear-gradient-2);
      }

      .cls-16 {
        clip-path: url(#clippath-22);
      }

      .cls-17 {
        clip-path: url(#clippath-23);
      }

      .cls-18 {
        fill: url(#linear-gradient-25);
      }

      .cls-19 {
        fill: url(#linear-gradient-10);
      }

      .cls-20 {
        fill: url(#linear-gradient-12);
      }

      .cls-21 {
        fill: url(#linear-gradient-40);
      }

      .cls-22 {
        fill: url(#linear-gradient-27);
      }

      .cls-23 {
        fill: #231f20;
      }

      .cls-24 {
        fill: url(#linear-gradient-37);
      }

      .cls-25 {
        clip-path: url(#clippath-9);
      }

      .cls-26 {
        clip-path: url(#clippath-10);
      }

      .cls-27 {
        fill: url(#linear-gradient-39);
      }

      .cls-28 {
        clip-path: url(#clippath-25);
      }

      .cls-29 {
        clip-path: url(#clippath-27);
      }

      .cls-30 {
        fill: #ef3752;
      }

      .cls-31 {
        fill: url(#linear-gradient-26);
      }

      .cls-32 {
        clip-path: url(#clippath-11);
      }

      .cls-33 {
        fill: url(#linear-gradient-4);
      }

      .cls-34 {
        fill: url(#linear-gradient-35);
      }

      .cls-35 {
        fill: url(#linear-gradient-30);
      }

      .cls-36 {
        clip-path: url(#clippath-36);
      }

      .cls-37 {
        clip-path: url(#clippath-35);
      }

      .cls-38 {
        clip-path: url(#clippath-28);
      }

      .cls-39 {
        fill: url(#linear-gradient-3);
      }

      .cls-40 {
        fill: url(#linear-gradient-34);
      }

      .cls-41 {
        clip-path: url(#clippath-1);
      }

      .cls-42 {
        fill: url(#linear-gradient-5);
      }

      .cls-43 {
        fill: url(#linear-gradient-38);
      }

      .cls-44 {
        fill: url(#linear-gradient-22);
      }

      .cls-45 {
        fill: #f37048;
      }

      .cls-46 {
        fill: url(#linear-gradient-24);
      }

      .cls-47 {
        clip-path: url(#clippath-5);
      }

      .cls-48 {
        clip-path: url(#clippath-20);
      }

      .cls-49 {
        fill: url(#linear-gradient-33);
      }

      .cls-50 {
        clip-path: url(#clippath-8);
      }

      .cls-51 {
        fill: url(#linear-gradient-8);
      }

      .cls-52 {
        fill: #16216a;
      }

      .cls-53 {
        clip-path: url(#clippath-3);
      }

      .cls-54 {
        clip-path: url(#clippath-26);
      }

      .cls-55 {
        clip-path: url(#clippath-12);
      }

      .cls-56 {
        fill: url(#linear-gradient-14);
      }

      .cls-57 {
        clip-path: url(#clippath-14);
      }

      .cls-58 {
        fill: url(#linear-gradient-29);
      }

      .cls-59 {
        clip-rule: evenodd;
        fill: none;
      }

      .cls-60 {
        fill: url(#linear-gradient-20);
      }

      .cls-61 {
        fill: url(#linear-gradient-17);
      }

      .cls-62 {
        fill: url(#linear-gradient-7);
      }

      .cls-63 {
        clip-path: url(#clippath-30);
      }

      .cls-64 {
        clip-path: url(#clippath-19);
      }

      .cls-65 {
        fill: url(#linear-gradient-9);
      }

      .cls-66 {
        fill: url(#linear-gradient-11);
      }

      .cls-67 {
        clip-path: url(#clippath-32);
      }

      .cls-68 {
        fill: url(#linear-gradient-19);
      }

      .cls-69 {
        fill: url(#linear-gradient-6);
      }

      .cls-70 {
        fill: #4177bb;
      }

      .cls-71 {
        fill: #f58220;
      }

      .cls-72 {
        clip-path: url(#clippath-39);
      }

      .cls-73 {
        fill: url(#linear-gradient-36);
      }

      .cls-74 {
        fill: url(#linear-gradient-21);
      }

      .cls-75 {
        clip-path: url(#clippath-16);
      }

      .cls-76 {
        clip-path: url(#clippath-2);
      }

      .cls-77 {
        clip-path: url(#clippath-29);
      }

      .cls-78 {
        fill: url(#linear-gradient-32);
      }

      .cls-79 {
        clip-path: url(#clippath-37);
      }

      .cls-80 {
        clip-path: url(#clippath-13);
      }

      .cls-81 {
        fill: url(#linear-gradient-16);
      }

      .cls-82 {
        fill: url(#linear-gradient);
      }

      .cls-83 {
        clip-path: url(#clippath-24);
      }

      .cls-84 {
        fill: url(#linear-gradient-23);
      }

      .cls-85 {
        fill: url(#linear-gradient-31);
      }

      .cls-86 {
        clip-path: url(#clippath);
      }

      .cls-87 {
        fill: url(#linear-gradient-18);
      }
    </style>
    <clipPath id="clippath">
      <path class="cls-59" d="M263.12,253.42c-1.22-.7-1.96-2.99-1.55-4.69.47-1.92,1.48-3.38,3.45-4.07,2.69-.94,5.35-1.95,8.03-2.91.17-.06.38.02.74.04-.14,3.22.31,6.5-1.87,9.26-1.59,2.01-3.91,3.06-6.04,3.06-.99,0-1.94-.23-2.76-.7ZM254.48,225.69c-.89,2.19-1.23,4.29-1.06,6.53.12,1.65,1.02,2.23,2.65,2.26,1.68.03,2.55-1.19,3.55-2.17,2.55-2.5,5.5-3.89,9.15-3.61,2.35.18,4.42,1.63,4.88,3.91.47,2.31.33,3.07-2.06,3.73-3.95,1.09-7.92,2.12-11.79,3.46-2.96,1.02-5.47,2.92-6.77,5.87-1.44,3.26-1.68,6.64-.27,10.08.91,2.24,2.5,3.72,4.59,4.57,1.52.62,3.21,1.05,4.85,1.14,3.45.18,6.63-.73,9.21-3.19.65-.62,1.24-1.3,1.93-2.04.18.63.34,1.03.42,1.45.38,2.04,1.66,3.14,3.66,3.35,2.31.24,4.63.3,6.85-.65,1.29-.55,1.6-1.47.61-2.51-1.42-1.49-1.72-3.25-1.74-5.17-.07-6.88-.03-13.77-.29-20.64-.14-3.7-1.82-6.92-5.21-8.62-3.13-1.58-6.34-2.17-9.35-2.17-6.6,0-12.21,2.87-13.82,4.43Z"/>
    </clipPath>
    <linearGradient id="linear-gradient" x1="57.34" y1="322.75" x2="59.55" y2="322.75" gradientTransform="translate(-5781.41 -22495.65) scale(102.29 70.45)" gradientUnits="userSpaceOnUse">
      <stop offset="0" stop-color="#7e3a96"/>
      <stop offset=".14" stop-color="#0f979a"/>
      <stop offset=".26" stop-color="#fbb040"/>
      <stop offset=".43" stop-color="#ef3859"/>
      <stop offset=".61" stop-color="#7e3a96"/>
      <stop offset=".82" stop-color="#f04a39"/>
      <stop offset="1" stop-color="#f89a34"/>
    </linearGradient>
    <clipPath id="clippath-1">
      <path class="cls-59" d="M103.08,205.13c-.4,0-.81.02-1.21.01-2.92-.01-5.39,1.09-7.01,3.49-4.52,6.71-8.9,13.51-13.34,20.28-.22.34-.42.69-.63,1.04-.28-1.35-.29-2.6-.27-3.86.05-5.16.12-10.33.16-15.49.01-1.64-.65-2.73-1.87-2.76-2.99-.06-5.99-.09-8.98.1-1.89.12-2.39,1.43-1.38,3.06,1,1.6,1.48,3.29,1.46,5.2-.05,4.64.12,9.29-.03,13.93-.3,9.53.93,19.11-.99,28.58-.24,1.17.47,2.06,1.73,2.12,2.74.14,5.5.24,8.24.14,1.72-.06,2.53-1.44,2.24-3.12-.21-1.17-.38-2.37-.39-3.56-.04-5.07-.02-10.15-.02-15.54.37.48.63.77.82,1.09,3.3,5.6,6.59,11.2,9.86,16.81,2.08,3.56,4.58,6.74,8.04,9.03,4.38,2.9,9.15,4.33,14.42,3.31.75-.15,1.53-.8,2.04-1.43.41-.51.29-1.21-.64-1.4-.97-.19-1.95-.43-2.89-.73-3.64-1.17-6.5-3.51-8.52-6.64-3.86-6-7.12-12.34-10.3-18.73-1.03-2.07-2.14-4.09-3.12-6.18-.68-1.44-.5-2.89.45-4.2,2.37-3.29,4.72-6.6,7.13-9.87,1.7-2.31,3.36-4.66,5.26-6.8,1.2-1.35,2.82-2.33,4.26-3.46,1.56-1.22,1.54-2.75-.14-3.76-.59-.35-1.32-.59-2-.65-.43-.04-.87-.05-1.31-.05-.36,0-.72,0-1.08.02Z"/>
    </clipPath>
    <linearGradient id="linear-gradient-2" x1="57.34" y1="322.04" x2="59.5" y2="322.04" gradientTransform="translate(-5933.58 -24370.38) scale(104.61 76.41)" xlink:href="#linear-gradient"/>
    <clipPath id="clippath-2">
      <path class="cls-59" d="M178.06,225.49c-.26.27-.6.48-1.05.83-.16-.55-.25-.93-.38-1.28-.46-1.23-1.06-2.5-2.4-2.79-1.92-.42-3.9-.36-5.75.52-1.27.6-1.59,1.48-1.37,2.84.35,2.11.75,4.24.78,6.37.1,8.73.09,17.45.06,26.18,0,1.41.56,2.28,1.84,2.5,1.55.27,3.15.41,4.73.4,2.61-.01,3.19-.79,3.15-3.36-.13-7.68-.12-15.37-.3-23.05-.06-2.38,1.25-3.59,3.09-4.47.81-.38,1.76-.61,2.66-.66,3.43-.21,6.01.69,6.06,5.19.05,4.6.04,9.21.09,13.81.03,3,0,6.01.19,9,.12,2.04,1.13,3.32,2.76,3.42,2.01.12,4.07.06,6.06-.26,1.96-.32,2.26-1.35,1.75-3.27-.49-1.83-.87-3.73-.98-5.62-.19-3.23-.11-6.48-.17-9.72-.07-3.84,0-7.69-.33-11.51-.3-3.5-2.17-6.27-5.37-7.84-1.59-.78-3.4-1.15-5.25-1.15-3.63,0-7.4,1.42-9.84,3.93Z"/>
    </clipPath>
    <linearGradient id="linear-gradient-3" x1="57.34" y1="322.48" x2="59.55" y2="322.48" gradientTransform="translate(-5782.63 -22458.28) scale(102.21 70.39)" xlink:href="#linear-gradient"/>
    <clipPath id="clippath-3">
      <path class="cls-59" d="M116.75,253.57c-1.36-.51-1.32-1.93-1.51-3.03-.51-2.87.77-5.04,3.49-6.13,1.84-.74,3.73-1.35,5.6-2.03,1.02-.37,1.4,0,1.32,1.04-.04.44,0,.88,0,1.31.12.02.24.05.36.07-.38,1.85-.64,3.73-1.18,5.53-.6,2-3.3,3.6-5.97,3.6-.71,0-1.43-.11-2.1-.36ZM111.5,224.12c-1.57.89-2.98,2.02-3.35,3.85-.27,1.33-.23,2.76-.15,4.13.09,1.63,1.62,2.28,2.95,1.31.45-.32.83-.75,1.18-1.18,2-2.45,4.57-3.75,7.74-3.51,1.81.14,3.79.46,4.74,2.24.66,1.24.86,2.76,1.15,4.17.17.86-.26,1.35-1.21,1.56-3.18.7-6.37,1.39-9.5,2.29-5.05,1.46-8.35,4.54-9.06,10.05-.88,6.88,3.33,11.63,9.95,12.05,2.86.18,5.43-1.04,7.68-2.79.72-.56,1.34-1.23,2.08-1.93.11.57.18,1.07.32,1.56.3,1.09.63,2.17,1.84,2.62,2.6.96,5.16.81,7.67-.32,1-.45,1.27-1.15.63-2.02-1.35-1.83-1.48-3.94-1.5-6.05-.06-3.96.04-7.93-.05-11.89-.06-3.03-.03-6.1-.53-9.07-.67-3.95-2.89-7.11-6.77-8.47-2.18-.76-4.34-1.15-6.49-1.15-3.18,0-6.3.85-9.33,2.56Z"/>
    </clipPath>
    <linearGradient id="linear-gradient-4" x1="57.36" y1="322.28" x2="59.52" y2="322.28" gradientTransform="translate(-5787.02 -22443.98) scale(102.21 70.39)" xlink:href="#linear-gradient"/>
    <clipPath id="clippath-4">
      <path class="cls-59" d="M241.38,225.56c-1.67,5.87-3.25,11.77-4.85,17.67-.56,2.06-1.09,4.13-1.64,6.2-.11-.01-.21-.03-.32-.04-.12-.29-.28-.56-.36-.86-1.56-6-3.14-12-4.67-18.01-.53-2.08-.98-4.19-1.48-6.29-.24-.99-.74-1.9-1.84-1.94-2.38-.08-4.79-.17-7.15.07-1.97.2-2.41,1.66-1.4,3.42.63,1.09,1.22,2.25,1.57,3.46,1.19,4.09,2.19,8.23,3.4,12.32,1.61,5.47,3.34,10.91,5.05,16.36.51,1.62,1.66,2.67,3.32,2.94,1.37.22,2.78.22,4.17.26,2.64.08,3.8-.7,4.71-3.17.6-1.64,1.17-3.3,1.71-4.96,1.14-3.52,2.24-7.06,3.38-10.59.52-1.63,1.13-3.23,1.65-4.86.9-2.8,1.76-5.61,2.63-8.42.43-1.41.9-2.81,1.22-4.25.24-1.11.04-2.13-1.19-2.7-.76-.35-1.58-.52-2.38-.52-2.44,0-4.82,1.51-5.51,3.92Z"/>
    </clipPath>
    <linearGradient id="linear-gradient-5" x1="57.34" y1="322.64" x2="59.55" y2="322.64" gradientTransform="translate(-5779.01 -22469.46) scale(102.21 70.39)" xlink:href="#linear-gradient"/>
    <clipPath id="clippath-5">
      <path class="cls-59" d="M294.88,260.95h.45c7.98,0,15.48-.18,23.6-.2,1.68,0,2.41-.48,2.54-2.2.16-2.21.11-4.45-.14-6.65-.2-1.79-1.15-2.05-2.92-1.49-1.5.48-3.09.92-4.64.93-12.91.06-6.05.05-14.75.04-.05-11.81-.04-23.61-.04-35.42-.02,0-.04,0-.06,0,.02-1.9.04-3.8.06-5.69.01-1.45-.58-2.42-1.66-2.44-1.13-.02-2.26-.04-3.38-.04-1.52,0-3.05.03-4.57.13-1.67.11-2.12,1.27-1.22,2.71.88,1.41,1.31,2.91,1.3,4.6,0,.06.15,34.83.16,43.08,0,1.68.48,2.42,2.2,2.54.89.07,1.79.09,2.69.08.12,0,.24,0,.36.01"/>
    </clipPath>
    <linearGradient id="linear-gradient-6" x1="57.37" y1="322.55" x2="59.48" y2="322.55" gradientTransform="translate(-6773.92 -27542.45) scale(119.14 86.12)" xlink:href="#linear-gradient"/>
    <clipPath id="clippath-6">
      <path class="cls-59" d="M153.54,223.43c-1.14.67-2.13,1.61-3.29,2.52-.25-.49-.39-1.02-.72-1.38-.76-.82-1.53-2.07-2.46-2.23-1.71-.3-3.6-.2-5.29.21-1.99.48-2.36,2.11-1.41,3.94.5.96.89,2.08.94,3.15.18,3.79.27,7.6.27,11.4,0,5.76-.12,11.53-.17,17.29-.02,1.57.48,2.37,1.97,2.49,1.97.15,3.99.12,5.95-.12,1.62-.2,2.09-1.1,1.85-2.76-.11-.79-.44-1.56-.45-2.35-.04-6.04,0-12.08-.04-18.12-.01-2.24.94-3.87,2.75-5.12,2.73-1.89,3.78-1.63,5,1.43.38.96,1.02,1.33,2.05,1.23,2.22-.22,3.99-1.78,4.04-4,.04-1.82-.14-3.69-.54-5.46-.36-1.57-1.23-3.1-3.03-3.38-.69-.1-1.37-.16-2.05-.16-1.87,0-3.7.42-5.37,1.41Z"/>
    </clipPath>
    <linearGradient id="linear-gradient-7" x1="57.39" y1="322.38" x2="59.49" y2="322.38" gradientTransform="translate(-5784.81 -22450.94) scale(102.21 70.39)" xlink:href="#linear-gradient"/>
    <clipPath id="clippath-7">
      <path class="cls-59" d="M207.16,221.84c-2.46.44-3.14,1.25-3.15,3.47-.01,6.12-.02,12.23-.03,18.35,0,3.61-.04,11.42-.01,15.03.01,1.14.98,2.12,2.18,2.17,1.72.07,3.44.08,5.16-.02,1.44-.08,2.11-.86,2.11-2.12,0-5.01,0-14.21,0-19.22h-.03c0-4.97.01-9.94,0-14.92,0-1.87-.79-2.71-2.88-2.89-.36-.03-.73-.05-1.09-.05-.75,0-1.51.07-2.24.19Z"/>
    </clipPath>
    <linearGradient id="linear-gradient-8" x1="57.55" y1="322.69" x2="59.3" y2="322.69" gradientTransform="translate(-5274.82 -20556.46) scale(93.58 64.45)" xlink:href="#linear-gradient"/>
    <clipPath id="clippath-8">
      <path class="cls-59" d="M208.55,207.8c-2.33,0-4.57,2.42-4.56,4.92.01,3.09,1.65,4.86,4.55,4.9,2.56.03,4.85-2.12,4.84-4.57-.01-2.72-2.32-5.24-4.82-5.25h-.02Z"/>
    </clipPath>
    <linearGradient id="linear-gradient-9" x1="58.79" y1="322.25" x2="61.05" y2="322.25" gradientTransform="translate(18946.94 -4667.9) rotate(90) scale(82.87 58.15)" xlink:href="#linear-gradient"/>
    <clipPath id="clippath-9">
      <path class="cls-59" d="M136.89,217.62h.05c1.28,0,2.46-.19,3.54-.56,1.08-.37,2-.89,2.78-1.56.78-.67,1.38-1.47,1.81-2.4.43-.93.64-1.96.64-3.08s-.18-2.03-.54-2.86c-.36-.83-.88-1.58-1.57-2.25-.69-.67-1.52-1.28-2.51-1.83-.98-.55-2.1-1.08-3.35-1.6-.55-.23-1-.44-1.36-.64-.36-.2-.64-.39-.84-.58-.21-.19-.35-.37-.43-.55-.08-.18-.12-.36-.12-.56,0-.23.06-.43.19-.6.13-.17.3-.31.51-.42.21-.11.46-.19.76-.24.29-.05.61-.08.95-.08.65,0,1.26.12,1.81.36.55.24,1,.6,1.35,1.08.22.3.43.47.63.52.2.05.44.02.73-.11l3.37-1.68c.31-.13.45-.33.43-.6-.02-.27-.13-.58-.33-.93-.49-.86-1.06-1.57-1.71-2.15-.65-.57-1.34-1.03-2.07-1.37-.73-.34-1.5-.59-2.28-.73-.79-.14-1.58-.21-2.35-.21-1.23,0-2.35.17-3.37.52-1.02.34-1.89.82-2.63,1.44-.73.62-1.3,1.36-1.71,2.22-.41.86-.61,1.8-.61,2.83,0,.74.08,1.45.23,2.11.16.66.43,1.3.83,1.9.4.6.94,1.18,1.62,1.74.69.56,1.56,1.09,2.63,1.61.87.44,1.64.81,2.32,1.12.67.31,1.24.6,1.7.88.46.28.8.55,1.04.83.23.28.35.6.35.97,0,.55-.23.96-.69,1.25-.46.28-1.05.42-1.79.42-.39,0-.77-.07-1.15-.2-.38-.13-.73-.3-1.06-.51-.33-.21-.63-.45-.89-.71-.26-.26-.46-.53-.61-.81-.16-.3-.33-.48-.52-.56-.18-.07-.37-.07-.57.03l-3.85,2.1c-.33.15-.48.35-.44.62.04.26.15.57.33.91.38.72.86,1.38,1.44,1.99.58.61,1.25,1.13,2.01,1.57.76.44,1.58.79,2.48,1.03.88.24,1.82.37,2.8.37"/>
    </clipPath>
    <linearGradient id="linear-gradient-10" x1="57.43" y1="321.94" x2="59.54" y2="321.94" gradientTransform="translate(-6492.62 -25082.81) scale(114.05 78.55)" xlink:href="#linear-gradient"/>
    <clipPath id="clippath-10">
      <path class="cls-59" d="M155.44,217.03h5.02c.22,0,.4-.06.52-.18.13-.12.19-.3.19-.54v-17.72h5.05c.46,0,.69-.25.69-.74v-4.57c0-.49-.23-.74-.69-.74h-16.45c-.45,0-.67.25-.67.74v4.57c0,.49.22.74.67.74h5.05v17.72c0,.48.21.72.62.72"/>
    </clipPath>
    <linearGradient id="linear-gradient-11" x1="57.42" y1="322.01" x2="59.57" y2="322.01" gradientTransform="translate(-6490.42 -25087.71) scale(114.05 78.55)" xlink:href="#linear-gradient"/>
    <clipPath id="clippath-11">
      <path class="cls-59" d="M171.03,217.03h14.85c.46,0,.69-.24.69-.72v-4.43c0-.48-.23-.72-.69-.72h-9.22v-3.35h6.75c.5,0,.76-.24.76-.72v-4.55c0-.26-.07-.45-.21-.58-.14-.12-.32-.18-.55-.18h-6.75v-3.19h8.96c.45,0,.67-.24.67-.72v-4.58c0-.49-.22-.74-.67-.74h-14.6c-.48,0-.72.25-.72.74v23.03c0,.48.24.72.72.72"/>
    </clipPath>
    <linearGradient id="linear-gradient-12" x1="57.45" y1="322.07" x2="59.55" y2="322.07" gradientTransform="translate(-6488.8 -25092.34) scale(114.05 78.55)" xlink:href="#linear-gradient"/>
    <clipPath id="clippath-12">
      <path class="cls-59" d="M230.72,217.04h4.83c.45,0,.67-.24.67-.72l-.03-11.21-.15-2.25.89,2.27,3.07,8.4c.12.3.21.5.28.6.07.1.23.15.47.15h4.28c.11,0,.21-.01.29-.03.08-.02.15-.06.2-.12.05-.06.1-.13.14-.23.04-.1.09-.22.15-.37l3.09-8.26.86-2.22-.14,2.04-.05,11.23c0,.48.23.72.69.72h4.83c.44,0,.65-.24.65-.72v-23.03c0-.49-.22-.74-.67-.74h-6.25c-.24,0-.39.06-.44.19-.05.13-.13.31-.23.55l-4.64,10.91-.6,2.78-.58-2.75-4.65-10.94c-.1-.24-.18-.43-.24-.55-.06-.13-.21-.19-.45-.19h-6.23c-.45,0-.67.25-.67.74v23.03c0,.48.22.72.65.72"/>
    </clipPath>
    <linearGradient id="linear-gradient-13" x1="57.39" y1="322.25" x2="59.65" y2="322.25" gradientTransform="translate(-6483.05 -25108.09) scale(114.05 78.55)" xlink:href="#linear-gradient"/>
    <clipPath id="clippath-13">
      <path class="cls-59" d="M189.79,217.04h7.79s8.26-12.87,10.7-16.69c.3-.47,1-.45,1.27.04,2.12,3.87,9.13,16.65,9.18,16.65h7.84c.58,0,.94-.64.63-1.14-6.06-9.59-13.51-23.4-17.25-28.96-.15-.22-.38-.33-.62-.33s-.47.11-.62.33l-19.54,28.95c-.33.49.02,1.16.61,1.16"/>
    </clipPath>
    <linearGradient id="linear-gradient-14" x1="57.38" y1="321.77" x2="59.74" y2="321.77" gradientTransform="translate(-10480.46 -40155.75) scale(182.11 125.42)" xlink:href="#linear-gradient"/>
    <clipPath id="clippath-14">
      <path class="cls-59" d="M136.45,274.05h.07c.19,0,.37-.02.54-.07.18-.04.36-.11.52-.2.16-.09.31-.21.45-.35.14-.14.26-.31.36-.51.07-.14.05-.24-.06-.29l-.82-.4c-.05-.03-.1-.03-.13-.02-.03.01-.06.04-.08.07-.08.16-.18.28-.31.34-.13.07-.27.1-.43.1-.14,0-.26-.02-.37-.07-.11-.05-.21-.11-.29-.19-.08-.08-.15-.18-.2-.29-.05-.11-.07-.24-.07-.38v-1.3c0-.14.02-.26.07-.37.05-.11.11-.21.2-.3.08-.08.18-.15.29-.19.11-.05.24-.07.37-.07.16,0,.3.04.42.11.13.08.23.19.32.33.03.05.06.07.1.07.04,0,.08,0,.13-.03l.84-.41s.06-.05.07-.09c0-.05,0-.1-.05-.17-.11-.2-.23-.37-.36-.51-.14-.14-.29-.26-.45-.35-.16-.09-.33-.16-.52-.2-.18-.04-.38-.07-.58-.07-.33,0-.63.06-.91.16-.28.11-.52.26-.73.46-.2.19-.36.43-.48.7-.11.27-.17.56-.17.87v1.48c0,.31.06.6.17.86.12.26.28.49.48.68.2.19.45.34.73.44.27.1.57.15.88.16"/>
    </clipPath>
    <linearGradient id="linear-gradient-15" x1="57.82" y1="363.02" x2="60.39" y2="363.02" gradientTransform="translate(1124.29 -5220.43) rotate(90) scale(94.6 2.72)" xlink:href="#linear-gradient"/>
    <clipPath id="clippath-15">
      <path class="cls-59" d="M141.34,274.05h.08c.27,0,.54-.05.79-.13.27-.09.5-.22.7-.4.2-.18.37-.4.49-.67.12-.27.18-.59.18-.96v-3.37s-.02-.08-.06-.12c-.04-.03-.08-.05-.14-.05h-1.08c-.05,0-.09.02-.12.05-.03.03-.04.07-.04.12v3.35c0,.12-.02.24-.05.34-.03.1-.08.19-.15.27-.06.08-.15.13-.24.18-.1.04-.21.06-.33.06s-.23-.02-.33-.05c-.1-.04-.18-.09-.25-.16-.07-.07-.13-.16-.16-.26-.04-.1-.06-.22-.06-.36v-3.35s0-.09-.03-.12c-.02-.03-.06-.05-.12-.05h-1.13s-.08.02-.11.05c-.03.03-.05.07-.05.11h0v3.39c0,.36.06.67.19.93.13.27.29.49.5.67.21.18.45.31.72.4.26.08.53.13.8.13"/>
    </clipPath>
    <linearGradient id="linear-gradient-16" x1="57.82" y1="363.46" x2="60.39" y2="363.46" gradientTransform="translate(1120.55 -5225.46) rotate(90) scale(94.6 2.69)" xlink:href="#linear-gradient"/>
    <clipPath id="clippath-16">
      <path class="cls-59" d="M144.84,273.92h2.94c.1,0,.15-.06.15-.16v-1.04c0-.11-.05-.16-.15-.16h-1.65v-4.02c0-.11-.05-.17-.16-.17h-1.12c-.11,0-.16.05-.16.16h0v5.23h0c0,.11.05.16.16.16"/>
    </clipPath>
    <linearGradient id="linear-gradient-17" x1="57.82" y1="364.09" x2="60.39" y2="364.09" gradientTransform="translate(1112.12 -5230.45) rotate(90) scale(94.6 2.65)" xlink:href="#linear-gradient"/>
    <clipPath id="clippath-17">
      <path class="cls-59" d="M149.23,273.92h1.15s.09-.01.11-.04c.03-.03.04-.07.04-.12v-4.02h1.15c.1,0,.15-.06.15-.17v-1.04c0-.11-.05-.17-.15-.17h-3.73c-.1,0-.15.05-.15.16h0v1.04h0c0,.11.05.17.15.17h1.15v4.02c0,.11.04.16.13.16"/>
    </clipPath>
    <linearGradient id="linear-gradient-18" x1="57.82" y1="363.9" x2="60.39" y2="363.9" gradientTransform="translate(1119.33 -5234.02) rotate(90) scale(94.6 2.66)" xlink:href="#linear-gradient"/>
    <clipPath id="clippath-18">
      <path class="cls-59" d="M154.65,274.05h.08c.27,0,.54-.05.79-.13.27-.09.5-.22.71-.4.2-.18.37-.4.49-.67.12-.27.18-.59.18-.96v-3.37s-.02-.08-.06-.12c-.04-.03-.08-.05-.14-.05h-1.08c-.05,0-.09.02-.12.05-.03.03-.04.07-.04.12v3.35c0,.12-.02.24-.05.34-.03.1-.08.19-.15.27-.07.08-.15.13-.24.18-.1.04-.21.06-.33.06s-.23-.02-.33-.05c-.1-.04-.18-.09-.25-.16-.07-.07-.12-.16-.16-.26-.04-.1-.06-.22-.06-.36v-3.35s-.01-.09-.03-.12c-.02-.03-.06-.05-.12-.05h-1.13s-.08.02-.11.05c-.03.03-.05.07-.05.11h0v3.39c0,.36.07.67.19.93.13.27.29.49.5.67.21.18.45.31.72.4.26.08.53.13.8.13"/>
    </clipPath>
    <linearGradient id="linear-gradient-19" x1="57.82" y1="363.17" x2="60.39" y2="363.17" gradientTransform="translate(1139.14 -5238.79) rotate(90) scale(94.6 2.71)" xlink:href="#linear-gradient"/>
    <clipPath id="clippath-19">
      <path class="cls-59" d="M159.4,269.73h.69c.07,0,.13.01.19.04.06.02.11.06.15.1.04.04.07.09.09.15.02.06.03.11.03.18v.15c0,.06-.01.12-.03.18-.02.06-.05.1-.09.15-.04.04-.09.08-.15.1-.06.02-.12.04-.19.04h-.69v-1.07ZM158.15,273.92h1.1c.05,0,.09-.01.11-.04.02-.03.03-.07.03-.12v-1.61h.41l.64,1.62c.02.06.05.1.07.12.02.02.06.03.11.03h1.36s.08-.02.09-.05c.01-.04,0-.07,0-.11l-.71-1.6-.2-.31c.12-.08.23-.18.33-.29.1-.11.19-.23.27-.35.07-.12.13-.26.17-.4.04-.14.06-.28.06-.42v-.39c0-.22-.04-.43-.13-.63-.09-.2-.21-.38-.37-.53-.16-.15-.34-.27-.55-.36-.21-.09-.44-.13-.69-.13h-2.08c-.11,0-.16.05-.16.16h0v5.23h0c0,.11.05.16.16.16Z"/>
    </clipPath>
    <linearGradient id="linear-gradient-20" x1="57.82" y1="364.15" x2="60.39" y2="364.15" gradientTransform="translate(1124.06 -5244.17) rotate(90) scale(94.6 2.65)" xlink:href="#linear-gradient"/>
    <clipPath id="clippath-20">
      <path class="cls-59" d="M163.08,273.92h3.38c.1,0,.15-.06.15-.16v-1.01c0-.11-.05-.16-.16-.16h-2.09v-.76h1.53c.12,0,.17-.06.17-.16v-1.03c0-.06-.02-.1-.05-.13-.03-.03-.07-.04-.13-.04h-1.53v-.72h2.03c.1,0,.15-.05.15-.16v-1.04c0-.11-.05-.17-.15-.17h-3.31c-.11,0-.16.05-.16.16v5.25c0,.1.06.15.16.15"/>
    </clipPath>
    <linearGradient id="linear-gradient-21" x1="57.82" y1="364.38" x2="60.39" y2="364.38" gradientTransform="translate(1124.02 -5248.85) rotate(90) scale(94.6 2.63)" xlink:href="#linear-gradient"/>
    <clipPath id="clippath-21">
      <path class="cls-59" d="M177.93,274.05h.07c.19,0,.37-.02.54-.07.18-.04.36-.11.52-.2.16-.09.31-.21.45-.35.14-.14.26-.31.36-.51.07-.14.05-.24-.06-.29l-.81-.4c-.05-.03-.1-.03-.13-.02-.03.01-.06.04-.08.07-.07.16-.18.28-.31.34-.13.07-.28.1-.43.1-.13,0-.26-.02-.37-.07-.11-.05-.21-.11-.29-.19-.08-.08-.15-.18-.2-.29-.05-.11-.07-.24-.07-.38v-1.3c0-.14.02-.26.07-.37.05-.11.11-.21.2-.3.08-.08.18-.15.29-.19.11-.05.24-.07.37-.07.16,0,.3.04.42.11.13.08.23.19.32.33.03.05.06.07.1.07.04,0,.08,0,.13-.03l.84-.41s.06-.05.07-.09c0-.05,0-.1-.05-.17-.11-.2-.23-.37-.37-.51-.14-.14-.29-.26-.45-.35-.16-.09-.34-.16-.52-.2-.18-.04-.38-.07-.58-.07-.33,0-.63.06-.91.16-.28.11-.52.26-.73.46-.2.19-.36.43-.48.7-.11.27-.17.56-.17.87v1.48c0,.31.06.6.17.86.12.26.28.49.48.68.2.19.45.34.73.44.27.1.57.15.88.16"/>
    </clipPath>
    <linearGradient id="linear-gradient-22" x1="57.82" y1="362.95" x2="60.39" y2="362.95" gradientTransform="translate(1165.54 -5261.9) rotate(90) scale(94.6 2.72)" xlink:href="#linear-gradient"/>
    <clipPath id="clippath-22">
      <path class="cls-59" d="M182.09,269.73h.69c.07,0,.13.01.19.04.06.02.11.06.15.1.04.04.07.09.09.15.02.06.03.11.03.18v.15c0,.06-.01.12-.03.18-.02.06-.05.1-.09.15-.04.04-.09.08-.15.1-.06.02-.12.04-.19.04h-.69v-1.07ZM180.85,273.92h1.11c.05,0,.09-.01.11-.04.02-.03.03-.07.03-.12v-1.61h.41l.64,1.62c.02.06.05.1.07.12.02.02.06.03.11.03h1.36s.08-.02.09-.05c.01-.04,0-.07,0-.11l-.71-1.6-.2-.31c.12-.08.23-.18.33-.29.1-.11.19-.23.27-.35.08-.12.13-.26.17-.4.04-.14.06-.28.06-.42v-.39c0-.22-.04-.43-.13-.63-.09-.2-.21-.38-.37-.53-.16-.15-.34-.27-.55-.36-.21-.09-.44-.13-.69-.13h-2.09c-.11,0-.16.05-.16.16h0v5.23h0c0,.11.05.16.16.16Z"/>
    </clipPath>
    <linearGradient id="linear-gradient-23" x1="57.82" y1="364.11" x2="60.39" y2="364.11" gradientTransform="translate(1146.65 -5266.86) rotate(90) scale(94.6 2.65)" xlink:href="#linear-gradient"/>
    <clipPath id="clippath-23">
      <path class="cls-59" d="M185.78,273.92h3.38c.1,0,.15-.06.15-.16v-1.01c0-.11-.05-.16-.16-.16h-2.09v-.76h1.53c.11,0,.17-.06.17-.16v-1.03c0-.06-.02-.1-.05-.13-.03-.03-.07-.04-.12-.04h-1.53v-.72h2.03c.1,0,.15-.05.15-.16v-1.04c0-.11-.05-.17-.15-.17h-3.31c-.11,0-.16.05-.16.16v5.25c0,.1.05.15.16.15"/>
    </clipPath>
    <linearGradient id="linear-gradient-24" x1="57.82" y1="364.35" x2="60.39" y2="364.35" gradientTransform="translate(1146.51 -5271.56) rotate(90) scale(94.6 2.63)" xlink:href="#linear-gradient"/>
    <clipPath id="clippath-24">
      <path class="cls-59" d="M192.11,270.41l.13-.68.12.68.36,1.44h-.96l.35-1.44ZM189.85,273.92h1.22s.09-.01.13-.04c.04-.03.07-.07.08-.12l.14-.57h1.62l.14.57c.01.06.04.1.08.12.04.02.08.04.13.04h1.22c.1,0,.13-.06.09-.16l-1.65-5.23c-.04-.11-.11-.17-.22-.17h-1.23c-.11,0-.18.06-.22.17l-1.65,5.23c-.04.11,0,.16.09.16Z"/>
    </clipPath>
    <linearGradient id="linear-gradient-25" x1="57.82" y1="364.17" x2="60.39" y2="364.17" gradientTransform="translate(1154.63 -5276.38) rotate(90) scale(94.6 2.64)" xlink:href="#linear-gradient"/>
    <clipPath id="clippath-25">
      <path class="cls-59" d="M195.83,273.92h1.15s.08-.01.11-.04c.03-.03.04-.07.04-.12v-4.02h1.15c.1,0,.16-.06.16-.17v-1.04c0-.11-.05-.17-.16-.17h-3.73c-.1,0-.15.05-.15.16h0v1.04h0c0,.11.05.17.15.17h1.14v4.02c0,.11.05.16.14.16"/>
    </clipPath>
    <linearGradient id="linear-gradient-26" x1="57.82" y1="363.82" x2="60.39" y2="363.82" gradientTransform="translate(1165.55 -5280.58) rotate(90) scale(94.6 2.66)" xlink:href="#linear-gradient"/>
    <clipPath id="clippath-26">
      <path class="cls-59" d="M199.28,273.92h1.15c.05,0,.09-.01.1-.04.02-.02.03-.06.03-.11h0v-5.24h0c0-.06-.01-.1-.03-.13-.02-.03-.05-.04-.11-.04h-1.14c-.11,0-.16.06-.16.17v5.23c0,.11.05.16.16.16"/>
    </clipPath>
    <linearGradient id="linear-gradient-27" x1="57.82" y1="363.92" x2="60.39" y2="363.92" gradientTransform="translate(1166.63 -5284.02) rotate(90) scale(94.6 2.66)" xlink:href="#linear-gradient"/>
    <clipPath id="clippath-27">
      <path class="cls-59" d="M203.03,273.92h1.24c.11,0,.18-.06.21-.17l1.57-5.23c.03-.11,0-.16-.1-.16h-1.21c-.06,0-.1.01-.14.04-.04.03-.07.07-.08.12l-.8,3.34-.09.46-.08-.46-.79-3.34c-.02-.06-.04-.1-.08-.12-.04-.02-.08-.04-.14-.04h-1.21c-.1,0-.14.06-.1.16l1.57,5.23c.03.11.11.17.21.17"/>
    </clipPath>
    <linearGradient id="linear-gradient-28" x1="57.82" y1="364.15" x2="60.39" y2="364.15" gradientTransform="translate(1165.87 -5287.77) rotate(90) scale(94.6 2.64)" xlink:href="#linear-gradient"/>
    <clipPath id="clippath-28">
      <path class="cls-59" d="M206.9,273.92h1.15c.05,0,.09-.01.1-.04.02-.03.03-.06.03-.12h0v-5.23h0c0-.06-.01-.1-.03-.13-.02-.03-.05-.04-.11-.04h-1.14c-.11,0-.16.06-.16.17v5.23c0,.11.05.16.16.16"/>
    </clipPath>
    <linearGradient id="linear-gradient-29" x1="57.82" y1="363.9" x2="60.39" y2="363.9" gradientTransform="translate(1174.49 -5291.61) rotate(90) scale(94.6 2.66)" xlink:href="#linear-gradient"/>
    <clipPath id="clippath-29">
      <path class="cls-59" d="M210.3,273.92h1.15s.09-.01.11-.04c.03-.03.04-.07.04-.12v-4.02h1.15c.1,0,.16-.06.16-.17v-1.04c0-.11-.05-.17-.16-.17h-3.73c-.1,0-.15.05-.15.16h0v1.04h0c0,.11.05.17.15.17h1.15v4.02c0,.11.05.16.14.16"/>
    </clipPath>
    <linearGradient id="linear-gradient-30" x1="57.82" y1="363.79" x2="60.39" y2="363.79" gradientTransform="translate(1180.04 -5295.05) rotate(90) scale(94.6 2.66)" xlink:href="#linear-gradient"/>
    <clipPath id="clippath-30">
      <path class="cls-59" d="M214.75,273.92h1.15c.1,0,.15-.06.15-.16v-1.87l1.58-3.37c.03-.05.03-.09.01-.12-.02-.03-.05-.04-.1-.04h-1.32c-.05,0-.1.01-.13.04-.03.03-.06.07-.08.13l-.57,1.59-.1.48-.11-.48-.58-1.59c-.02-.06-.05-.1-.08-.13-.03-.03-.08-.04-.13-.04h-1.3c-.05,0-.09.01-.11.05-.02.03-.02.07,0,.12l1.58,3.34v1.89c0,.11.05.16.15.16"/>
    </clipPath>
    <linearGradient id="linear-gradient-31" x1="57.82" y1="364.12" x2="60.39" y2="364.12" gradientTransform="translate(1177.61 -5299.46) rotate(90) scale(94.6 2.64)" xlink:href="#linear-gradient"/>
    <clipPath id="clippath-31">
      <path class="cls-59" d="M228.59,274.05h.07c.19,0,.37-.02.54-.07.18-.04.36-.11.52-.2.16-.09.31-.21.45-.35.13-.14.26-.31.36-.51.07-.14.05-.24-.06-.29l-.82-.4c-.05-.03-.09-.03-.13-.02-.04.01-.06.04-.08.07-.08.16-.18.28-.31.34-.13.07-.28.1-.43.1-.13,0-.26-.02-.37-.07-.11-.05-.21-.11-.29-.19-.08-.08-.15-.18-.19-.29-.05-.11-.07-.24-.07-.38v-1.3c0-.14.02-.26.07-.37.05-.11.11-.21.19-.3.08-.08.18-.15.29-.19.11-.05.24-.07.37-.07.16,0,.3.04.42.11.13.08.23.19.32.33.03.05.06.07.1.07.04,0,.08,0,.12-.03l.84-.41s.06-.05.06-.09c0-.05,0-.1-.05-.17-.11-.2-.23-.37-.36-.51-.14-.14-.29-.26-.45-.35-.16-.09-.33-.16-.52-.2-.18-.04-.38-.07-.58-.07-.33,0-.63.06-.91.16-.28.11-.52.26-.73.46-.2.19-.36.43-.48.7-.12.27-.17.57-.17.89v1.45c0,.32.06.61.17.88.12.26.27.49.48.68s.45.34.73.44c.27.1.57.15.89.16"/>
    </clipPath>
    <linearGradient id="linear-gradient-32" x1="57.82" y1="362.86" x2="60.39" y2="362.86" gradientTransform="translate(1215.99 -5312.57) rotate(90) scale(94.6 2.72)" xlink:href="#linear-gradient"/>
    <clipPath id="clippath-32">
      <path class="cls-59" d="M233.48,274.05h.08c.27,0,.54-.05.79-.13.27-.09.5-.22.71-.4.2-.18.37-.4.49-.67.12-.27.18-.59.18-.96v-3.37s-.02-.08-.06-.12c-.04-.03-.08-.05-.14-.05h-1.08c-.05,0-.09.02-.12.05-.03.03-.04.07-.04.12v3.35c0,.12-.02.24-.05.34-.03.1-.08.19-.15.27-.06.08-.15.13-.24.18-.1.04-.21.06-.33.06s-.23-.02-.33-.05c-.1-.04-.18-.09-.25-.16-.07-.07-.12-.16-.16-.26-.04-.1-.06-.22-.06-.36v-3.35s0-.09-.03-.12c-.02-.03-.06-.05-.12-.05h-1.13s-.08.02-.11.05c-.03.03-.05.07-.05.11h0v3.39c0,.36.06.67.19.93.13.27.29.49.5.67.21.18.45.31.72.4.26.08.53.13.8.13"/>
    </clipPath>
    <linearGradient id="linear-gradient-33" x1="57.82" y1="363.28" x2="60.39" y2="363.28" gradientTransform="translate(1212.17 -5317.6) rotate(90) scale(94.6 2.69)" xlink:href="#linear-gradient"/>
    <clipPath id="clippath-33">
      <path class="cls-59" d="M238.22,269.73h.69c.07,0,.13.01.19.04.06.02.1.06.14.1.04.04.07.09.09.15.02.06.03.11.03.18v.15c0,.06-.01.12-.03.18-.02.06-.05.1-.09.15-.04.04-.09.08-.14.1-.06.02-.12.04-.19.04h-.69v-1.07ZM236.98,273.92h1.1c.05,0,.09-.01.11-.04.02-.03.03-.07.03-.12v-1.61h.41l.64,1.62c.02.06.05.1.07.12.02.02.06.03.11.03h1.36s.08-.02.09-.05c.01-.04,0-.07,0-.11l-.71-1.6-.2-.31c.12-.08.23-.18.33-.29.1-.11.19-.23.27-.35.07-.12.13-.26.18-.4.04-.14.06-.28.06-.42v-.39c0-.22-.04-.43-.13-.63-.09-.2-.21-.38-.37-.53-.16-.15-.34-.27-.55-.36-.21-.09-.44-.13-.69-.13h-2.08c-.11,0-.16.05-.16.16h0v5.23h0c0,.11.06.16.16.16Z"/>
    </clipPath>
    <linearGradient id="linear-gradient-34" x1="57.82" y1="364" x2="60.39" y2="364" gradientTransform="translate(1202.49 -5322.99) rotate(90) scale(94.6 2.65)" xlink:href="#linear-gradient"/>
    <clipPath id="clippath-34">
      <path class="cls-59" d="M241.91,273.92h1.15c.05,0,.09-.01.1-.04.02-.02.03-.06.03-.11h0v-5.24h0c0-.06-.01-.1-.03-.13-.02-.03-.05-.04-.11-.04h-1.14c-.11,0-.16.06-.16.17v5.23c0,.11.05.16.16.16"/>
    </clipPath>
    <linearGradient id="linear-gradient-35" x1="57.82" y1="363.83" x2="60.39" y2="363.83" gradientTransform="translate(1209.17 -5326.65) rotate(90) scale(94.6 2.66)" xlink:href="#linear-gradient"/>
    <clipPath id="clippath-35">
      <path class="cls-59" d="M246.02,272.65c-.11-.05-.21-.11-.28-.19-.08-.08-.14-.18-.18-.29-.04-.11-.06-.24-.06-.38v-1.3c0-.14.02-.26.06-.37.04-.11.1-.21.18-.3.08-.08.17-.15.28-.19.11-.05.23-.07.37-.07s.26.02.37.07c.11.05.2.11.28.19.08.08.14.18.18.3.04.12.06.24.06.37v1.3c0,.14-.02.26-.06.38-.04.11-.1.21-.18.29-.08.08-.17.15-.28.19-.11.05-.23.07-.37.07s-.26-.02-.37-.07ZM246.36,274.05h.06c.32,0,.61-.06.89-.16.28-.1.53-.25.74-.44.21-.19.38-.42.49-.68.12-.26.18-.56.18-.88v-1.49c0-.32-.06-.61-.18-.88-.12-.27-.28-.49-.49-.68-.21-.19-.46-.34-.74-.45-.28-.1-.59-.16-.92-.16s-.63.05-.92.16c-.28.11-.53.25-.74.45-.21.19-.37.42-.49.68-.12.26-.18.55-.18.87v1.52c0,.31.06.6.18.86.12.26.28.49.49.68.21.19.46.34.74.44.28.1.57.15.89.16Z"/>
    </clipPath>
    <linearGradient id="linear-gradient-36" x1="57.82" y1="362.75" x2="60.39" y2="362.75" gradientTransform="translate(1235.47 -5330.48) rotate(90) scale(94.6 2.73)" xlink:href="#linear-gradient"/>
    <clipPath id="clippath-36">
      <path class="cls-59" d="M251.24,274.05h.08c.28,0,.53-.05.76-.13.24-.08.45-.2.63-.35.18-.15.31-.33.41-.55.1-.21.14-.44.14-.7s-.04-.46-.12-.65c-.08-.19-.2-.36-.36-.51-.16-.15-.35-.29-.57-.41-.22-.13-.48-.25-.76-.36-.13-.05-.23-.1-.31-.15-.08-.05-.14-.09-.19-.13-.05-.04-.08-.08-.1-.13-.02-.04-.03-.08-.03-.13,0-.05.01-.1.04-.14.03-.04.07-.07.11-.1.05-.02.1-.04.17-.05.07-.01.14-.02.22-.02.15,0,.29.03.41.08.13.05.23.14.31.25.05.07.1.11.14.12.04.01.1,0,.17-.03l.76-.38c.07-.03.1-.07.1-.14,0-.06-.03-.13-.07-.21-.11-.19-.24-.36-.39-.49-.15-.13-.3-.24-.47-.31-.17-.08-.34-.13-.52-.17-.18-.03-.36-.05-.53-.05-.28,0-.53.04-.76.12-.23.08-.43.19-.6.33-.17.14-.3.31-.39.5-.09.19-.14.41-.14.64,0,.17.02.33.05.48.04.15.1.29.19.43.09.14.21.27.37.39.16.13.36.25.6.36.2.1.37.18.53.25.15.07.28.14.39.2.1.06.18.13.24.19.05.06.08.14.08.22,0,.12-.05.22-.16.28-.1.06-.24.09-.4.09-.09,0-.18-.02-.26-.04-.09-.03-.17-.07-.24-.12-.07-.05-.14-.1-.2-.16-.06-.06-.1-.12-.14-.18-.04-.07-.08-.11-.12-.13-.04-.02-.08-.02-.13,0l-.87.48c-.07.03-.11.08-.1.14,0,.06.03.13.07.21.09.16.2.31.33.45.13.14.28.26.46.36.17.1.36.18.56.23.19.05.39.08.6.08"/>
    </clipPath>
    <linearGradient id="linear-gradient-37" x1="57.82" y1="362.47" x2="60.39" y2="362.47" gradientTransform="translate(1245.84 -5335.4) rotate(90) scale(94.6 2.74)" xlink:href="#linear-gradient"/>
    <clipPath id="clippath-37">
      <path class="cls-59" d="M254.24,273.92h1.15c.05,0,.09-.01.11-.04.02-.02.02-.06.03-.11h0v-5.24h0c0-.06-.01-.1-.03-.13-.02-.03-.06-.04-.11-.04h-1.14c-.11,0-.16.06-.16.17v5.23c0,.11.05.16.16.16"/>
    </clipPath>
    <linearGradient id="linear-gradient-38" x1="57.82" y1="363.81" x2="60.39" y2="363.81" gradientTransform="translate(1221.3 -5338.97) rotate(90) scale(94.6 2.66)" xlink:href="#linear-gradient"/>
    <clipPath id="clippath-38">
      <path class="cls-59" d="M257.64,273.92h1.15s.08-.01.11-.04c.03-.03.04-.07.04-.12v-4.02h1.15c.1,0,.15-.05.15-.16h0v-1.04h0c0-.11-.05-.17-.15-.17h-3.73c-.1,0-.15.06-.15.17v1.04c0,.11.05.17.15.17h1.15v4.02c0,.11.05.16.14.16"/>
    </clipPath>
    <linearGradient id="linear-gradient-39" x1="57.82" y1="363.69" x2="60.39" y2="363.69" gradientTransform="translate(1227.22 -5342.39) rotate(90) scale(94.6 2.66)" xlink:href="#linear-gradient"/>
    <clipPath id="clippath-39">
      <path class="cls-59" d="M262.09,273.92h1.15c.1,0,.15-.06.15-.16v-1.87l1.58-3.37c.03-.05.03-.09.01-.12-.02-.03-.05-.04-.1-.04h-1.32c-.06,0-.1.01-.13.04-.03.03-.06.07-.08.13l-.57,1.59-.1.48-.11-.48-.58-1.59c-.02-.06-.05-.1-.08-.13-.03-.03-.08-.04-.13-.04h-1.3c-.05,0-.09.01-.11.05-.02.03-.02.07,0,.12l1.58,3.34v1.89c0,.11.05.16.15.16"/>
    </clipPath>
    <linearGradient id="linear-gradient-40" x1="57.82" y1="364.03" x2="60.39" y2="364.03" gradientTransform="translate(1224.71 -5346.78) rotate(90) scale(94.6 2.64)" xlink:href="#linear-gradient"/>
  </defs>
  <g id="Layer_1-2" data-name="Layer 1">
    <g class="cls-86">
      <rect class="cls-82" x="245.09" y="216.3" width="47.03" height="50.3" transform="translate(-70.38 116.81) rotate(-21.76)"/>
    </g>
    <g class="cls-41">
      <rect class="cls-15" x="57.25" y="198.37" width="69.45" height="78.4" transform="translate(-81.53 51.04) rotate(-21.76)"/>
    </g>
    <g class="cls-76">
      <rect class="cls-39" x="160.77" y="216.74" width="45.88" height="49.16" transform="translate(-76.38 85.32) rotate(-21.76)"/>
    </g>
    <g class="cls-53">
      <rect class="cls-33" x="98.84" y="217.11" width="44.24" height="48.84" transform="translate(-80.93 62.07) rotate(-21.76)"/>
    </g>
    <g class="cls-14">
      <rect class="cls-42" x="210.54" y="216.74" width="46.29" height="49.35" transform="translate(-72.86 103.86) rotate(-21.76)"/>
    </g>
    <g class="cls-47">
      <rect class="cls-69" x="278.64" y="203.32" width="51.62" height="62.1" transform="translate(-65.2 129.59) rotate(-21.76)"/>
    </g>
    <g class="cls-7">
      <rect class="cls-62" x="133.1" y="218.74" width="37.8" height="45.5" transform="translate(-78.71 73.58) rotate(-21.76)"/>
    </g>
    <g class="cls-8">
      <rect class="cls-51" x="196.99" y="221.29" width="23.37" height="40" transform="translate(-74.59 94.57) rotate(-21.76)"/>
    </g>
    <g class="cls-50">
      <rect class="cls-65" x="202.34" y="206.5" width="12.68" height="12.44" transform="translate(-67.28 325.17) rotate(-67.72)"/>
    </g>
    <g class="cls-25">
      <rect class="cls-19" x="123.67" y="189.56" width="26.18" height="30.47" transform="translate(-66.19 65.31) rotate(-21.76)"/>
    </g>
    <g class="cls-26">
      <rect class="cls-66" x="145.2" y="190.12" width="25.62" height="29.35" transform="translate(-64.67 73.19) rotate(-21.76)"/>
    </g>
    <g class="cls-32">
      <rect class="cls-20" x="166.35" y="190.4" width="24.19" height="28.77" transform="translate(-63.21 80.76) rotate(-21.76)"/>
    </g>
    <g class="cls-55">
      <rect class="cls-3" x="226.44" y="188.67" width="32.91" height="32.26" transform="translate(-58.62 104.66) rotate(-21.76)"/>
    </g>
    <g class="cls-80">
      <rect class="cls-56" x="184.58" y="180.53" width="47.2" height="42.6" transform="translate(-60 91.58) rotate(-21.76)"/>
    </g>
    <g class="cls-57">
      <rect class="cls-2" x="133.4" y="268.99" width="5.84" height="4.3" transform="translate(-135.48 406.15) rotate(-89.72)"/>
    </g>
    <g class="cls-11">
      <rect class="cls-81" x="138.5" y="268.96" width="5.71" height="4.49" transform="translate(-130.55 411.19) rotate(-89.71)"/>
    </g>
    <g class="cls-75">
      <rect class="cls-61" x="143.52" y="269.5" width="5.57" height="3.27" transform="translate(-125.59 416.04) rotate(-89.7)"/>
    </g>
    <g class="cls-9">
      <rect class="cls-87" x="147.03" y="269.1" width="5.58" height="4.07" transform="translate(-122.11 419.52) rotate(-89.7)"/>
    </g>
    <g class="cls-13">
      <rect class="cls-68" x="151.82" y="268.96" width="5.71" height="4.49" transform="translate(-117.34 424.46) rotate(-89.7)"/>
    </g>
    <g class="cls-64">
      <rect class="cls-60" x="157.25" y="269.08" width="5.58" height="4.12" transform="translate(-111.91 429.79) rotate(-89.71)"/>
    </g>
    <g class="cls-48">
      <rect class="cls-74" x="161.98" y="269.28" width="5.57" height="3.72" transform="translate(-107.18 434.57) rotate(-89.72)"/>
    </g>
    <g class="cls-6">
      <rect class="cls-44" x="174.88" y="268.99" width="5.84" height="4.3" transform="translate(-94.19 447.63) rotate(-89.72)"/>
    </g>
    <g class="cls-16">
      <rect class="cls-84" x="179.95" y="269.08" width="5.58" height="4.12" transform="translate(-89.33 452.49) rotate(-89.71)"/>
    </g>
    <g class="cls-17">
      <rect class="cls-46" x="184.68" y="269.28" width="5.57" height="3.72" transform="translate(-84.59 457.26) rotate(-89.72)"/>
    </g>
    <g class="cls-83">
      <rect class="cls-18" x="189.45" y="268.6" width="5.58" height="5.06" transform="translate(-79.87 462) rotate(-89.71)"/>
    </g>
    <g class="cls-28">
      <rect class="cls-31" x="193.63" y="269.1" width="5.58" height="4.07" transform="translate(-75.75 466.12) rotate(-89.7)"/>
    </g>
    <g class="cls-54">
      <rect class="cls-22" x="197.06" y="270.4" width="5.56" height="1.47" transform="translate(-72.33 469.56) rotate(-89.7)"/>
    </g>
    <g class="cls-29">
      <rect class="cls-4" x="200.86" y="268.68" width="5.58" height="4.91" transform="translate(-68.51 473.41) rotate(-89.71)"/>
    </g>
    <g class="cls-38">
      <rect class="cls-58" x="204.68" y="270.4" width="5.56" height="1.47" transform="translate(-64.75 477.19) rotate(-89.7)"/>
    </g>
    <g class="cls-77">
      <rect class="cls-35" x="208.1" y="269.1" width="5.58" height="4.07" transform="translate(-61.35 480.6) rotate(-89.7)"/>
    </g>
    <g class="cls-63">
      <rect class="cls-85" x="212.53" y="268.79" width="5.58" height="4.69" transform="translate(-56.9 485.09) rotate(-89.71)"/>
    </g>
    <g class="cls-10">
      <rect class="cls-78" x="225.54" y="268.99" width="5.84" height="4.3" transform="translate(-43.78 498.29) rotate(-89.72)"/>
    </g>
    <g class="cls-67">
      <rect class="cls-49" x="230.64" y="268.96" width="5.71" height="4.49" transform="translate(-38.88 503.33) rotate(-89.71)"/>
    </g>
    <g class="cls-12">
      <rect class="cls-40" x="236.08" y="269.08" width="5.58" height="4.12" transform="translate(-33.48 508.62) rotate(-89.71)"/>
    </g>
    <g class="cls-1">
      <rect class="cls-34" x="239.69" y="270.4" width="5.56" height="1.47" transform="translate(-29.93 512.19) rotate(-89.7)"/>
    </g>
    <g class="cls-37">
      <rect class="cls-73" x="243.46" y="268.79" width="5.84" height="4.69" transform="translate(-25.95 516.2) rotate(-89.72)"/>
    </g>
    <g class="cls-36">
      <rect class="cls-24" x="248.32" y="269.09" width="5.84" height="4.1" transform="translate(-21.16 521.01) rotate(-89.71)"/>
    </g>
    <g class="cls-79">
      <rect class="cls-43" x="252.02" y="270.4" width="5.56" height="1.47" transform="translate(-17.67 524.52) rotate(-89.7)"/>
    </g>
    <g class="cls-5">
      <rect class="cls-27" x="255.44" y="269.1" width="5.58" height="4.07" transform="translate(-14.26 527.94) rotate(-89.7)"/>
    </g>
    <g class="cls-72">
      <rect class="cls-21" x="259.87" y="268.79" width="5.58" height="4.69" transform="translate(-9.8 532.43) rotate(-89.71)"/>
    </g>
    <path class="cls-45" d="M173.96,270.99c0,1.25-1.01,2.26-2.26,2.26s-2.26-1.01-2.26-2.26,1.01-2.26,2.26-2.26,2.26,1.01,2.26,2.26"/>
    <path class="cls-70" d="M224.35,270.99c0,1.25-1.01,2.26-2.26,2.26s-2.26-1.01-2.26-2.26,1.01-2.26,2.26-2.26,2.26,1.01,2.26,2.26"/>
    <path class="cls-30" d="M194.4,287.07c-47,0-88.61-8.65-114.2-21.95,19.8,18.26,63.49,30.94,114.2,30.94s94.39-12.69,114.2-30.94c-25.59,13.3-67.2,21.95-114.2,21.95"/>
    <path class="cls-52" d="M254.12,52.25c-1.97,0-3.79-.35-5.46-1.02-1.67-.68-3.12-1.65-4.37-2.92-1.23-1.28-2.19-2.8-2.89-4.59-.68-1.78-1.03-3.8-1.05-6.02.02-2.22.36-4.24,1.05-6.02.7-1.79,1.65-3.31,2.89-4.59,1.25-1.26,2.7-2.24,4.37-2.92,1.67-.67,3.48-1.01,5.46-1.01s3.83.35,5.5,1.01c1.68.68,3.15,1.65,4.4,2.92,1.25,1.28,2.21,2.8,2.9,4.59.68,1.78,1.03,3.8,1.04,6.02-.01,2.22-.36,4.24-1.04,6.02-.7,1.79-1.65,3.31-2.9,4.59-1.25,1.26-2.71,2.24-4.4,2.92-1.67.67-3.51,1.02-5.5,1.02M254.12,61.57c3.63-.01,6.95-.61,9.97-1.77,3.03-1.16,5.65-2.8,7.87-4.93,2.21-2.13,3.92-4.64,5.14-7.55,1.22-2.9,1.83-6.11,1.84-9.61-.01-3.5-.62-6.69-1.84-9.59-1.22-2.9-2.93-5.4-5.14-7.52-2.22-2.12-4.83-3.76-7.87-4.91-3.02-1.16-6.34-1.74-9.97-1.76-3.59.02-6.88.6-9.88,1.76-3,1.15-5.62,2.79-7.84,4.91-2.22,2.12-3.93,4.62-5.15,7.52-1.22,2.9-1.84,6.1-1.86,9.59.02,3.5.64,6.71,1.86,9.61,1.22,2.9,2.93,5.41,5.15,7.55,2.22,2.13,4.83,3.77,7.84,4.93,3,1.16,6.3,1.76,9.88,1.77ZM217.8,60.96l-.09-60.96h-9.32l-23.77,40.4L160.42,0h-9.32v60.96h10.8V21.07l20.03,32.92h5.05l20.03-33.44.09,40.4h10.71ZM113.48,53.64c-2.8-.03-4.98-.61-6.53-1.76-1.55-1.14-2.34-2.7-2.35-4.69-.01-1.15.25-2.18.8-3.12.55-.93,1.51-1.67,2.87-2.22,1.38-.55,3.28-.83,5.73-.84h11.23v5.4c-.62,1.6-1.51,2.93-2.68,4.01-1.16,1.07-2.51,1.87-4.06,2.41-1.55.54-3.22.81-5.01.81ZM114.96,13.93c-2.51,0-4.95.22-7.33.64-2.38.42-4.62,1.06-6.7,1.92-2.09.86-3.98,1.92-5.65,3.19l4.27,7.92c1.18-.96,2.53-1.79,4.05-2.48,1.52-.68,3.13-1.2,4.85-1.58,1.73-.36,3.45-.55,5.21-.55,3.87.02,6.78.91,8.69,2.67,1.93,1.76,2.89,4.22,2.89,7.43v.7h-12.02c-3.51.01-6.5.36-8.97,1.07-2.47.7-4.46,1.68-5.98,2.95-1.54,1.25-2.64,2.71-3.34,4.4-.71,1.67-1.06,3.48-1.05,5.43.02,2.73.73,5.12,2.13,7.21,1.41,2.09,3.4,3.72,5.98,4.91,2.58,1.19,5.66,1.79,9.22,1.81,3.5-.01,6.47-.55,8.95-1.64,2.47-1.07,4.35-2.61,5.67-4.63v5.66h10.28v-27.26c-.01-4.47-.84-8.16-2.51-11.09-1.65-2.92-4.05-5.09-7.2-6.53-3.15-1.44-6.97-2.15-11.45-2.15ZM70.64,0v41.28L37.03,0h-9.32v60.96h11.23V19.68l33.61,41.28h9.32V0h-11.23Z"/>
    <path class="cls-71" d="M379.68,60.96h11.32V0h-11.32v60.96ZM327.35,37.97l11.41-26.65,11.49,26.65h-22.9ZM360.09,60.96h11.84L344.42,0h-11.15l-27.43,60.96h11.67l6.01-14.11h30.48l6.1,14.11Z"/>
    <path class="cls-23" d="M313.4,137.06l-.03-24.38h-2.86l-10.03,17.13-10.17-17.13h-2.86v24.38h3.34v-17.66l8.81,14.7h1.6l8.81-14.8.03,17.76h3.34ZM267.29,137.06h3.48v-24.38h-3.48v24.38ZM245.59,128.17l5.26-11.94,5.26,11.94h-10.52ZM260.01,137.06h3.66l-11.07-24.38h-3.45l-11.04,24.38h3.59l2.68-6.1h12.96l2.68,6.1ZM216.1,134.34c-.9,0-1.72-.16-2.47-.47-.75-.31-1.42-.74-1.98-1.32-.56-.57-1-1.25-1.31-2.05-.31-.8-.47-1.69-.47-2.68,0-.99.16-1.88.47-2.67.31-.79.75-1.48,1.31-2.04.56-.57,1.23-1,1.98-1.31.76-.3,1.58-.46,2.47-.46s1.7.16,2.45.46c.75.3,1.4.74,1.96,1.31.56.56,1,1.25,1.31,2.04.31.8.47,1.69.48,2.67,0,.99-.16,1.88-.48,2.68-.31.8-.74,1.49-1.31,2.05-.56.57-1.21,1.01-1.96,1.32-.75.31-1.57.47-2.45.47ZM222.26,111.21v10.17c-.77-.99-1.71-1.74-2.82-2.22-1.1-.49-2.31-.74-3.63-.74-1.36,0-2.6.23-3.74.67-1.13.45-2.12,1.08-2.95,1.91-.84.83-1.48,1.82-1.94,2.97-.47,1.15-.7,2.43-.7,3.85,0,1.42.24,2.7.7,3.85.46,1.16,1.1,2.15,1.94,2.98.84.84,1.82,1.47,2.95,1.93,1.14.45,2.38.67,3.74.68.91,0,1.77-.12,2.58-.35.81-.23,1.55-.58,2.23-1.04.68-.47,1.27-1.05,1.77-1.74v2.93h3.21v-25.84h-3.34ZM194.33,118.42c-1.47,0-2.77.26-3.91.77-1.14.51-2.05,1.24-2.74,2.19v-2.79h-3.2v18.46h3.34v-9.51c0-1.33.25-2.46.72-3.37.48-.9,1.16-1.6,2.03-2.06.87-.47,1.9-.7,3.09-.7,1.59,0,2.82.45,3.68,1.34.86.89,1.29,2.25,1.3,4.06v10.24h3.34v-10.62c0-1.36-.19-2.54-.56-3.55-.37-1-.9-1.83-1.59-2.5-.68-.66-1.49-1.15-2.42-1.48-.93-.33-1.97-.49-3.09-.49ZM169.6,134.69c-.85,0-1.58-.12-2.19-.36-.6-.24-1.07-.59-1.39-1.03-.32-.45-.49-.98-.49-1.6-.01-.53.11-1.01.37-1.44.26-.43.69-.77,1.31-1.03.62-.26,1.48-.38,2.57-.39h5.15v2.58c-.28.71-.68,1.31-1.2,1.79-.52.49-1.12.85-1.82,1.1-.7.25-1.47.38-2.31.38ZM170.37,118.42c-.99,0-1.94.09-2.87.27-.92.18-1.78.45-2.59.8-.81.35-1.53.78-2.17,1.29l1.39,2.51c.48-.41,1.03-.76,1.67-1.06.63-.3,1.29-.52,2.01-.69.71-.16,1.44-.24,2.18-.24,1.65,0,2.89.4,3.71,1.17.82.77,1.23,1.86,1.23,3.29v.66h-5.29c-1.37,0-2.53.14-3.48.43-.95.28-1.71.66-2.29,1.16-.58.49-1,1.07-1.27,1.71-.26.65-.39,1.35-.38,2.1,0,1.07.29,2.02.84,2.83.55.81,1.34,1.45,2.36,1.9,1.02.46,2.23.69,3.63.7,1.45,0,2.68-.24,3.7-.7,1.01-.46,1.8-1.11,2.36-1.95v2.44h3.17v-11.15c0-1.68-.31-3.08-.93-4.18-.62-1.11-1.51-1.94-2.68-2.48-1.18-.55-2.61-.82-4.29-.82ZM142.13,137.26c1.64,0,3.06-.23,4.25-.67,1.19-.45,2.11-1.07,2.75-1.89.64-.81.97-1.78.97-2.9,0-.89-.17-1.63-.5-2.22-.33-.59-.77-1.07-1.32-1.44-.56-.37-1.18-.66-1.88-.86-.69-.22-1.41-.38-2.15-.52-.74-.13-1.46-.26-2.15-.39-.7-.12-1.32-.28-1.87-.47-.56-.19-1-.45-1.32-.77-.33-.33-.5-.76-.5-1.3,0-.49.16-.93.48-1.31.32-.38.81-.68,1.45-.9.64-.22,1.45-.32,2.43-.33.91,0,1.82.1,2.71.33.9.23,1.77.6,2.61,1.14l1.43-2.65c-.54-.35-1.18-.65-1.92-.9-.74-.25-1.52-.44-2.35-.57-.82-.13-1.64-.2-2.46-.2-1.58,0-2.95.24-4.1.7-1.15.46-2.03,1.1-2.66,1.93-.62.83-.94,1.8-.94,2.91,0,.91.17,1.67.5,2.28.33.6.77,1.1,1.32,1.47.56.38,1.18.67,1.87.89.69.21,1.4.39,2.14.52.74.13,1.45.25,2.14.37.69.12,1.32.26,1.87.43.56.17.99.42,1.32.72.33.31.49.72.5,1.23,0,.52-.15.97-.45,1.35-.3.37-.78.66-1.43.86-.64.2-1.48.3-2.51.3-.81,0-1.61-.09-2.4-.25-.8-.16-1.54-.39-2.24-.67-.7-.28-1.31-.61-1.84-.99l-1.39,2.65c.52.41,1.18.78,1.98,1.1.79.32,1.68.58,2.65.77.97.19,1.97.28,3,.29ZM124.99,137.26c1.11,0,2.14-.16,3.09-.46.96-.3,1.81-.75,2.57-1.34.75-.59,1.37-1.32,1.86-2.18l-2.54-1.6c-.6.9-1.34,1.57-2.19,2-.87.43-1.81.65-2.82.64-.91,0-1.75-.16-2.52-.45-.77-.3-1.44-.74-2.01-1.3-.57-.57-1.02-1.25-1.33-2.05-.32-.8-.47-1.7-.48-2.71,0-.99.16-1.88.48-2.67.31-.79.76-1.48,1.33-2.04.57-.57,1.24-1,2.01-1.31.77-.3,1.61-.46,2.52-.46,1.02,0,1.96.21,2.82.64.86.43,1.59,1.1,2.19,2l2.54-1.64c-.49-.86-1.11-1.58-1.86-2.16-.75-.59-1.61-1.03-2.57-1.32-.95-.3-1.98-.45-3.09-.45-1.43,0-2.74.24-3.92.7-1.19.46-2.22,1.1-3.09,1.94-.87.84-1.54,1.83-2.02,2.98-.48,1.14-.72,2.41-.73,3.79,0,1.38.25,2.65.73,3.8.47,1.15,1.15,2.14,2.02,2.98.87.85,1.9,1.5,3.09,1.96,1.18.46,2.49.7,3.92.7ZM107.23,137.06h3.34v-18.46h-3.34v18.46ZM108.9,115.05c.45,0,.84-.1,1.17-.3.34-.19.61-.46.8-.79.19-.33.28-.71.29-1.13,0-.4-.1-.76-.3-1.08-.2-.32-.46-.57-.8-.76-.34-.19-.73-.28-1.16-.28-.44,0-.82.1-1.16.3-.34.2-.6.46-.8.79-.2.32-.3.7-.3,1.11,0,.41.1.78.3,1.1.2.32.47.58.8.77.34.19.73.28,1.16.29ZM102.15,133.57c-.35.28-.76.49-1.2.64s-.92.23-1.41.23c-.93,0-1.64-.27-2.14-.81-.5-.53-.75-1.3-.75-2.29v-9.99h5.29v-2.75h-5.29v-4.04h-3.34v4.04h-3.13v2.75h3.13v10.13c0,1.24.23,2.3.69,3.16.45.86,1.12,1.51,1.99,1.95.87.45,1.93.67,3.17.67.51,0,1-.05,1.49-.14.49-.09.95-.24,1.39-.43.44-.19.82-.43,1.16-.72l-1.04-2.4ZM78.6,134.34c-.89,0-1.72-.16-2.47-.47-.76-.31-1.42-.74-1.98-1.32-.56-.57-1-1.25-1.31-2.05-.31-.8-.47-1.69-.47-2.68,0-.99.16-1.88.47-2.67.31-.79.75-1.48,1.31-2.04.56-.57,1.22-1,1.98-1.31.76-.3,1.58-.46,2.47-.46s1.72.16,2.47.46c.76.3,1.41.74,1.97,1.31.56.56.99,1.25,1.29,2.04.31.8.47,1.69.47,2.67,0,.99-.16,1.88-.47,2.68-.31.8-.74,1.49-1.29,2.05-.56.57-1.21,1.01-1.97,1.32-.75.31-1.57.47-2.47.47ZM78.6,137.26c1.39,0,2.67-.24,3.83-.7,1.17-.46,2.18-1.11,3.04-1.96.86-.84,1.52-1.83,1.99-2.98.48-1.15.71-2.42.72-3.8,0-1.38-.24-2.65-.72-3.79-.47-1.14-1.13-2.14-1.99-2.98-.86-.84-1.87-1.48-3.04-1.94-1.16-.46-2.44-.69-3.83-.7-1.39,0-2.67.24-3.84.7-1.17.46-2.18,1.1-3.05,1.94-.86.84-1.53,1.83-2,2.98-.48,1.14-.72,2.41-.73,3.79,0,1.38.25,2.65.73,3.8.47,1.15,1.14,2.14,2,2.98.86.85,1.88,1.5,3.05,1.96,1.17.46,2.44.7,3.84.7ZM56.45,134.34c-.88,0-1.7-.16-2.46-.47-.75-.31-1.4-.74-1.96-1.32-.56-.57-1-1.25-1.31-2.05-.31-.8-.47-1.69-.47-2.68,0-.99.16-1.88.47-2.67.31-.79.74-1.48,1.31-2.04.56-.57,1.21-1,1.96-1.31.76-.3,1.57-.46,2.46-.46s1.72.16,2.47.46c.75.3,1.42.74,1.98,1.31.56.56,1,1.25,1.31,2.04.31.8.47,1.69.48,2.67,0,.99-.16,1.88-.48,2.68-.31.8-.75,1.49-1.31,2.05-.56.57-1.22,1.01-1.98,1.32-.76.31-1.58.47-2.47.47ZM56.73,118.42c-1.32,0-2.52.24-3.63.74-1.1.49-2.04,1.23-2.82,2.22v-10.17h-3.34v25.84h3.2v-2.93c.5.7,1.09,1.28,1.77,1.74.67.46,1.42.81,2.23,1.04.81.23,1.68.35,2.58.35,1.36,0,2.6-.23,3.74-.68,1.13-.45,2.12-1.09,2.95-1.93.84-.83,1.48-1.82,1.95-2.98.46-1.15.69-2.44.7-3.85,0-1.42-.24-2.7-.7-3.85-.47-1.16-1.11-2.14-1.95-2.97-.84-.82-1.82-1.46-2.95-1.91-1.14-.44-2.38-.67-3.74-.67ZM32.74,134.34c-.89,0-1.72-.16-2.47-.47-.75-.31-1.42-.74-1.98-1.32-.56-.57-1-1.25-1.31-2.05-.31-.8-.47-1.69-.48-2.68,0-.99.16-1.88.48-2.67.31-.79.75-1.48,1.31-2.04.56-.57,1.23-1,1.98-1.31.76-.3,1.58-.46,2.47-.46s1.72.16,2.47.46c.76.3,1.41.74,1.97,1.31.56.56.99,1.25,1.29,2.04.31.8.47,1.69.47,2.67,0,.99-.16,1.88-.47,2.68-.31.8-.74,1.49-1.29,2.05-.56.57-1.21,1.01-1.97,1.32-.75.31-1.57.47-2.47.47ZM32.74,137.26c1.39,0,2.67-.24,3.83-.7,1.17-.46,2.18-1.11,3.04-1.96.86-.84,1.52-1.83,1.99-2.98.48-1.15.71-2.42.72-3.8,0-1.38-.24-2.65-.72-3.79-.47-1.14-1.13-2.14-1.99-2.98-.86-.84-1.87-1.48-3.04-1.94-1.16-.46-2.44-.69-3.83-.7-1.39,0-2.67.24-3.84.7-1.17.46-2.18,1.1-3.05,1.94-.86.84-1.53,1.83-2,2.98-.48,1.14-.72,2.41-.73,3.79,0,1.38.25,2.65.73,3.8.48,1.15,1.14,2.14,2,2.98.86.85,1.88,1.5,3.05,1.96,1.17.46,2.44.7,3.84.7ZM9.4,126.68H3.48v-10.97h5.92c1.49,0,2.73.21,3.74.64,1,.42,1.76,1.04,2.28,1.86.52.81.77,1.8.77,2.97s-.26,2.15-.77,2.97c-.51.82-1.27,1.45-2.28,1.88-1.01.43-2.26.64-3.74.65ZM20.1,137.06l-5.78-8.18c1.14-.41,2.11-.97,2.91-1.7.8-.73,1.4-1.59,1.82-2.6.42-1.01.63-2.14.63-3.4,0-1.77-.42-3.29-1.22-4.56-.81-1.26-1.97-2.23-3.49-2.91-1.52-.68-3.33-1.02-5.46-1.03H0v24.38h3.48v-7.42h6.02c.26,0,.52,0,.78-.02.26-.01.51-.03.76-.05l5.26,7.49h3.8ZM352.13,88.96v-3.1h-3.2v18.46h3.34v-9.19c0-1.35.24-2.48.71-3.41.47-.92,1.14-1.63,2.01-2.1.86-.48,1.9-.72,3.1-.72.12,0,.24,0,.37,0,.12,0,.26.01.39.03v-3.24c-1.62,0-3,.28-4.13.82-1.13.55-1.99,1.37-2.59,2.45ZM334.05,101.95c-.85,0-1.58-.12-2.19-.37-.6-.24-1.07-.59-1.39-1.03-.32-.45-.49-.98-.49-1.6-.01-.53.11-1.01.37-1.44.26-.43.69-.77,1.31-1.03.62-.26,1.48-.38,2.57-.39h5.15v2.58c-.28.71-.68,1.31-1.2,1.79-.52.49-1.12.85-1.82,1.1-.7.25-1.47.38-2.31.38ZM334.82,85.69c-.99,0-1.94.09-2.87.27-.92.18-1.78.45-2.59.8-.81.35-1.53.78-2.17,1.29l1.39,2.51c.48-.4,1.03-.76,1.67-1.06.63-.3,1.29-.52,2.01-.68.71-.16,1.44-.24,2.18-.24,1.65,0,2.89.4,3.71,1.17.82.77,1.23,1.86,1.23,3.29v.66h-5.29c-1.37,0-2.53.15-3.48.43-.95.28-1.71.66-2.29,1.16-.58.49-1,1.07-1.27,1.71-.26.65-.39,1.35-.38,2.1,0,1.07.29,2.02.84,2.83.55.81,1.34,1.45,2.36,1.9,1.02.46,2.23.69,3.63.7,1.45,0,2.68-.24,3.7-.7,1.01-.46,1.8-1.11,2.36-1.95v2.44h3.17v-11.14c0-1.68-.31-3.08-.93-4.19-.62-1.11-1.51-1.94-2.68-2.48-1.18-.55-2.61-.82-4.29-.82ZM318.38,104.32h3.34v-25.84h-3.34v25.84ZM308.66,85.86v9.54c0,1.32-.24,2.44-.71,3.35-.46.91-1.12,1.6-1.97,2.07-.85.47-1.86.71-3.03.71-1.6,0-2.82-.45-3.68-1.36-.86-.9-1.29-2.26-1.3-4.08v-10.24h-3.34v10.62c.01,1.81.34,3.31,1,4.5.66,1.19,1.58,2.08,2.76,2.67,1.18.59,2.58.88,4.18.88.88,0,1.7-.12,2.48-.35.78-.24,1.49-.57,2.13-1.02.65-.44,1.19-.99,1.65-1.63v2.79h3.17v-18.46h-3.34ZM278.96,101.6c-.9,0-1.72-.16-2.47-.47-.75-.31-1.42-.74-1.98-1.32-.56-.57-1-1.25-1.31-2.05-.31-.8-.47-1.69-.47-2.68,0-.99.16-1.88.47-2.68.31-.79.75-1.47,1.31-2.04.56-.57,1.23-1,1.98-1.31.76-.3,1.58-.46,2.47-.46s1.7.16,2.45.46c.75.3,1.4.74,1.96,1.31.56.56,1,1.25,1.3,2.04.31.8.47,1.69.48,2.68,0,.99-.16,1.88-.48,2.68-.31.8-.74,1.49-1.3,2.05-.56.57-1.21,1.01-1.96,1.32-.75.31-1.57.47-2.45.47ZM285.12,78.48v10.17c-.77-.99-1.71-1.74-2.82-2.22-1.1-.49-2.31-.74-3.63-.74-1.36,0-2.6.23-3.74.67-1.13.45-2.12,1.09-2.95,1.91-.84.83-1.48,1.82-1.94,2.97-.46,1.15-.7,2.43-.7,3.85,0,1.42.24,2.7.7,3.85.46,1.16,1.1,2.15,1.94,2.98.84.84,1.82,1.47,2.95,1.93,1.14.45,2.38.67,3.74.68.91,0,1.77-.12,2.58-.35.81-.23,1.55-.58,2.23-1.05.68-.46,1.27-1.04,1.77-1.74v2.93h3.21v-25.84h-3.34ZM256.84,101.6c-.9,0-1.72-.16-2.47-.47-.75-.31-1.42-.74-1.98-1.32-.56-.57-1-1.25-1.31-2.05-.31-.8-.47-1.69-.48-2.68,0-.99.16-1.88.48-2.68.31-.79.75-1.47,1.31-2.04.56-.57,1.23-1,1.98-1.31.76-.3,1.58-.46,2.47-.46s1.72.16,2.47.46c.76.3,1.41.74,1.97,1.31.56.56.99,1.25,1.29,2.04.31.8.47,1.69.47,2.68,0,.99-.16,1.88-.47,2.68-.31.8-.74,1.49-1.29,2.05-.56.57-1.21,1.01-1.97,1.32-.75.31-1.57.47-2.47.47ZM256.84,104.53c1.39,0,2.67-.24,3.83-.7,1.17-.46,2.18-1.11,3.04-1.96.86-.84,1.52-1.83,1.99-2.98.48-1.15.71-2.41.72-3.8,0-1.38-.24-2.65-.72-3.79-.47-1.14-1.13-2.14-1.99-2.98-.86-.84-1.87-1.48-3.04-1.94-1.16-.46-2.44-.69-3.83-.7-1.39,0-2.67.24-3.84.7-1.17.46-2.18,1.1-3.05,1.94-.86.84-1.53,1.84-2,2.98-.48,1.14-.72,2.41-.73,3.79,0,1.38.25,2.65.73,3.8s1.14,2.14,2,2.98c.86.85,1.88,1.5,3.05,1.96,1.17.46,2.44.7,3.84.7ZM242.11,104.32l-.03-24.38h-2.85l-10.03,17.13-10.17-17.13h-2.86v24.38h3.34v-17.66l8.81,14.7h1.6l8.81-14.8.04,17.76h3.34ZM196.59,104.32h3.34v-25.84h-3.34v25.84ZM181.72,101.95c-.85,0-1.58-.12-2.19-.37-.6-.24-1.07-.59-1.39-1.03-.32-.45-.49-.98-.49-1.6-.01-.53.11-1.01.36-1.44.26-.43.69-.77,1.31-1.03.62-.26,1.48-.38,2.57-.39h5.16v2.58c-.28.71-.68,1.31-1.2,1.79-.52.49-1.12.85-1.82,1.1-.7.25-1.47.38-2.31.38ZM182.49,85.69c-.99,0-1.94.09-2.87.27-.92.18-1.78.45-2.59.8-.81.35-1.53.78-2.17,1.29l1.39,2.51c.48-.4,1.03-.76,1.67-1.06.63-.3,1.29-.52,2.01-.68.71-.16,1.44-.24,2.18-.24,1.65,0,2.89.4,3.71,1.17.82.77,1.23,1.86,1.23,3.29v.66h-5.29c-1.37,0-2.53.15-3.48.43-.95.28-1.71.66-2.29,1.16-.58.49-1.01,1.07-1.27,1.71-.26.65-.39,1.35-.38,2.1,0,1.07.29,2.02.84,2.83.55.81,1.34,1.45,2.36,1.9,1.02.46,2.23.69,3.63.7,1.45,0,2.68-.24,3.7-.7,1.02-.46,1.8-1.11,2.36-1.95v2.44h3.17v-11.14c0-1.68-.31-3.08-.93-4.19-.61-1.11-1.51-1.94-2.68-2.48-1.18-.55-2.61-.82-4.3-.82ZM161.91,85.69c-1.48,0-2.77.26-3.91.77-1.14.51-2.05,1.24-2.74,2.19v-2.79h-3.2v18.46h3.34v-9.51c0-1.33.25-2.46.73-3.37.48-.91,1.16-1.6,2.03-2.06.87-.46,1.9-.7,3.09-.7,1.6,0,2.82.45,3.68,1.34.86.89,1.29,2.25,1.3,4.06v10.24h3.34v-10.62c0-1.36-.19-2.54-.56-3.55-.37-1-.9-1.83-1.58-2.5-.68-.66-1.49-1.16-2.42-1.48-.93-.32-1.97-.49-3.09-.49ZM137.84,101.6c-.89,0-1.72-.16-2.47-.47-.76-.31-1.42-.74-1.98-1.32-.56-.57-1-1.25-1.31-2.05-.31-.8-.47-1.69-.48-2.68,0-.99.16-1.88.48-2.68.31-.79.75-1.47,1.31-2.04.56-.57,1.22-1,1.98-1.31.75-.3,1.58-.46,2.47-.46s1.72.16,2.47.46c.75.3,1.41.74,1.97,1.31.56.56.99,1.25,1.29,2.04.31.8.47,1.69.47,2.68,0,.99-.16,1.88-.47,2.68-.31.8-.74,1.49-1.29,2.05-.56.57-1.21,1.01-1.97,1.32-.75.31-1.57.47-2.47.47ZM137.84,104.53c1.39,0,2.67-.24,3.83-.7,1.17-.46,2.18-1.11,3.04-1.96.86-.84,1.52-1.83,1.99-2.98.48-1.15.71-2.41.72-3.8,0-1.38-.24-2.65-.72-3.79-.47-1.14-1.13-2.14-1.99-2.98-.86-.84-1.87-1.48-3.04-1.94-1.16-.46-2.44-.69-3.83-.7-1.39,0-2.67.24-3.84.7-1.17.46-2.18,1.1-3.05,1.94-.86.84-1.53,1.84-2,2.98-.48,1.14-.72,2.41-.73,3.79,0,1.38.25,2.65.73,3.8.48,1.15,1.14,2.14,2,2.98.86.85,1.88,1.5,3.05,1.96,1.17.46,2.44.7,3.84.7ZM120.22,104.32h3.34v-18.46h-3.34v18.46ZM121.89,82.31c.45,0,.83-.1,1.17-.3.34-.19.61-.46.8-.8.19-.33.28-.71.29-1.13,0-.4-.1-.76-.3-1.08-.2-.32-.47-.57-.8-.76-.34-.18-.73-.28-1.16-.28-.44,0-.82.11-1.16.3-.34.2-.6.46-.8.79-.2.32-.3.7-.3,1.11,0,.41.1.78.3,1.1.2.32.47.58.8.77.34.19.73.28,1.16.29ZM115.14,100.83c-.35.28-.75.49-1.2.65-.45.15-.92.23-1.41.23-.93,0-1.64-.27-2.14-.81-.5-.53-.75-1.3-.76-2.29v-9.99h5.29v-2.75h-5.29v-4.04h-3.34v4.04h-3.13v2.75h3.13v10.13c0,1.24.23,2.3.69,3.16.45.86,1.12,1.51,1.99,1.95.87.45,1.93.67,3.18.67.51,0,1-.05,1.49-.14.49-.09.95-.24,1.39-.43.43-.19.82-.43,1.16-.72l-1.05-2.4ZM90.93,101.95c-.85,0-1.58-.12-2.19-.37-.6-.24-1.07-.59-1.39-1.03-.32-.45-.49-.98-.49-1.6-.01-.53.11-1.01.36-1.44.26-.43.69-.77,1.31-1.03.62-.26,1.48-.38,2.57-.39h5.16v2.58c-.28.71-.68,1.31-1.2,1.79-.52.49-1.12.85-1.82,1.1-.7.25-1.47.38-2.31.38ZM91.7,85.69c-.99,0-1.94.09-2.87.27-.92.18-1.78.45-2.59.8-.81.35-1.53.78-2.17,1.29l1.39,2.51c.48-.4,1.03-.76,1.67-1.06.63-.3,1.29-.52,2.01-.68.71-.16,1.44-.24,2.18-.24,1.65,0,2.89.4,3.71,1.17.82.77,1.23,1.86,1.23,3.29v.66h-5.29c-1.37,0-2.53.15-3.48.43-.95.28-1.71.66-2.29,1.16-.58.49-1,1.07-1.27,1.71-.26.65-.39,1.35-.38,2.1,0,1.07.29,2.02.84,2.83.55.81,1.34,1.45,2.36,1.9,1.02.46,2.23.69,3.63.7,1.45,0,2.68-.24,3.7-.7,1.02-.46,1.81-1.11,2.36-1.95v2.44h3.17v-11.14c0-1.68-.31-3.08-.93-4.19-.61-1.11-1.51-1.94-2.68-2.48-1.18-.55-2.61-.82-4.3-.82ZM74.67,79.94v18.18l-14.63-18.18h-2.86v24.38h3.48v-18.18l14.63,18.18h2.86v-24.38h-3.48Z"/>
    <path class="cls-23" d="M406.52,118.42c-1.47,0-2.78.26-3.91.77-1.14.51-2.05,1.24-2.74,2.19v-2.79h-3.2v18.46h3.34v-9.51c0-1.33.25-2.46.73-3.37.48-.9,1.15-1.6,2.03-2.06.87-.47,1.9-.7,3.09-.7,1.6,0,2.82.45,3.68,1.34.86.89,1.3,2.25,1.3,4.06v10.24h3.34v-10.62c0-1.36-.19-2.54-.56-3.55-.37-1-.9-1.83-1.59-2.5-.68-.66-1.49-1.15-2.42-1.48-.93-.33-1.97-.49-3.09-.49M382.46,134.34c-.89,0-1.72-.16-2.47-.47-.75-.31-1.42-.74-1.98-1.32-.56-.57-1-1.25-1.31-2.05-.31-.8-.47-1.69-.47-2.68,0-.99.16-1.88.47-2.67.31-.79.75-1.48,1.31-2.04.56-.57,1.23-1,1.98-1.31.76-.3,1.58-.46,2.47-.46s1.72.16,2.47.46c.76.3,1.41.74,1.97,1.31.56.56.99,1.25,1.29,2.04.31.8.46,1.69.47,2.67,0,.99-.16,1.88-.47,2.68-.31.8-.74,1.49-1.29,2.05-.56.57-1.21,1.01-1.97,1.32-.75.31-1.57.47-2.47.47ZM382.46,137.26c1.39,0,2.67-.24,3.83-.7,1.17-.46,2.18-1.11,3.04-1.96.86-.84,1.52-1.83,1.99-2.98.48-1.15.71-2.42.72-3.8,0-1.38-.24-2.65-.72-3.79-.47-1.14-1.13-2.14-1.99-2.98-.86-.84-1.87-1.48-3.04-1.94-1.16-.46-2.44-.69-3.83-.7-1.39,0-2.67.24-3.84.7-1.17.46-2.18,1.1-3.05,1.94-.86.84-1.53,1.83-2,2.98-.48,1.14-.72,2.41-.73,3.79,0,1.38.25,2.65.73,3.8.47,1.15,1.14,2.14,2,2.98.86.85,1.88,1.5,3.05,1.96,1.17.46,2.44.7,3.84.7ZM364.84,137.06h3.34v-18.46h-3.34v18.46ZM366.51,115.05c.45,0,.84-.1,1.17-.3.34-.19.61-.46.8-.79.19-.33.29-.71.29-1.13,0-.4-.11-.76-.3-1.08-.2-.32-.46-.57-.8-.76-.34-.19-.73-.28-1.16-.28-.44,0-.82.1-1.16.3-.34.2-.6.46-.8.79-.2.32-.3.7-.3,1.11,0,.41.1.78.3,1.1.2.32.46.58.8.77.34.19.73.28,1.16.29ZM352.68,137.26c1.64,0,3.06-.23,4.25-.67,1.19-.45,2.11-1.07,2.75-1.89.64-.81.97-1.78.98-2.9,0-.89-.17-1.63-.51-2.22-.32-.59-.77-1.07-1.32-1.44-.56-.37-1.18-.66-1.88-.86-.69-.22-1.41-.38-2.15-.52s-1.46-.26-2.15-.39c-.7-.12-1.32-.28-1.87-.47-.56-.19-1-.45-1.32-.77-.33-.33-.5-.76-.51-1.3,0-.49.16-.93.48-1.31.32-.38.81-.68,1.45-.9.64-.22,1.45-.32,2.43-.33.91,0,1.82.1,2.72.33.9.23,1.77.6,2.61,1.14l1.43-2.65c-.54-.35-1.19-.65-1.92-.9-.74-.25-1.52-.44-2.34-.57-.82-.13-1.64-.2-2.46-.2-1.58,0-2.95.24-4.1.7-1.15.46-2.03,1.1-2.66,1.93-.62.83-.93,1.8-.94,2.91,0,.91.17,1.67.5,2.28.33.6.77,1.1,1.32,1.47.56.38,1.18.67,1.87.89.69.21,1.4.39,2.14.52s1.45.25,2.14.37c.69.12,1.32.26,1.87.43.56.17.99.42,1.32.72.32.31.49.72.5,1.23,0,.52-.14.97-.45,1.35-.3.37-.78.66-1.43.86-.64.2-1.48.3-2.51.3-.81,0-1.61-.09-2.4-.25-.79-.16-1.54-.39-2.24-.67-.7-.28-1.31-.61-1.84-.99l-1.39,2.65c.52.41,1.18.78,1.98,1.1.8.32,1.68.58,2.65.77.97.19,1.97.28,3,.29ZM335.23,137.26c1.64,0,3.06-.23,4.25-.67,1.19-.45,2.11-1.07,2.75-1.89.64-.81.97-1.78.98-2.9,0-.89-.17-1.63-.5-2.22-.33-.59-.77-1.07-1.32-1.44-.56-.37-1.18-.66-1.88-.86-.69-.22-1.41-.38-2.15-.52s-1.46-.26-2.15-.39c-.7-.12-1.32-.28-1.88-.47-.56-.19-1-.45-1.32-.77-.33-.33-.5-.76-.51-1.3,0-.49.16-.93.48-1.31.32-.38.81-.68,1.45-.9.64-.22,1.45-.32,2.43-.33.91,0,1.82.1,2.72.33.9.23,1.77.6,2.61,1.14l1.43-2.65c-.54-.35-1.18-.65-1.92-.9-.74-.25-1.52-.44-2.34-.57-.82-.13-1.64-.2-2.46-.2-1.58,0-2.95.24-4.1.7-1.15.46-2.03,1.1-2.66,1.93-.62.83-.93,1.8-.94,2.91,0,.91.18,1.67.5,2.28.33.6.77,1.1,1.32,1.47.56.38,1.18.67,1.87.89.69.21,1.4.39,2.14.52.74.13,1.45.25,2.14.37.69.12,1.32.26,1.87.43.56.17.99.42,1.32.72.32.31.49.72.5,1.23,0,.52-.14.97-.45,1.35-.3.37-.78.66-1.43.86-.65.2-1.48.3-2.51.3-.81,0-1.61-.09-2.4-.25-.8-.16-1.54-.39-2.24-.67-.7-.28-1.31-.61-1.84-.99l-1.39,2.65c.52.41,1.18.78,1.98,1.1.8.32,1.68.58,2.65.77.97.19,1.97.28,3,.29ZM320.22,137.06h3.34v-18.46h-3.34v18.46ZM321.9,115.05c.45,0,.83-.1,1.17-.3.34-.19.61-.46.8-.79.19-.33.28-.71.29-1.13,0-.4-.1-.76-.3-1.08-.2-.32-.47-.57-.8-.76-.34-.19-.73-.28-1.16-.28-.44,0-.82.1-1.16.3-.34.2-.6.46-.8.79-.2.32-.3.7-.3,1.11,0,.41.1.78.3,1.1.2.32.47.58.8.77.34.19.73.28,1.16.29Z"/>
  </g>
</svg>